SplineFontDB: 3.0
FontName: Merienda-Bold
FullName: Merienda Bold
FamilyName: Merienda
Weight: Bold
Copyright: Copyright (c) 2011-2012, Eduardo Tunni (http://www.tipo.net.ar), with Reserved Font Name 'Merienda'
Version: 1.001
ItalicAngle: 0
UnderlinePosition: -50
UnderlineWidth: 50
Ascent: 800
Descent: 200
sfntRevision: 0x00010042
LayerCount: 2
Layer: 0 1 "Back"  1
Layer: 1 1 "Fore"  0
XUID: [1021 126 1456326510 4862979]
FSType: 0
OS2Version: 3
OS2_WeightWidthSlopeOnly: 0
OS2_UseTypoMetrics: 1
CreationTime: 1233875100
ModificationTime: 1351749399
PfmFamily: 17
TTFWeight: 700
TTFWidth: 5
LineGap: 0
VLineGap: 0
Panose: 2 0 0 0 0 0 0 0 0 0
OS2TypoAscent: 1102
OS2TypoAOffset: 0
OS2TypoDescent: -342
OS2TypoDOffset: 0
OS2TypoLinegap: 0
OS2WinAscent: 1102
OS2WinAOffset: 0
OS2WinDescent: 342
OS2WinDOffset: 0
HheadAscent: 1102
HheadAOffset: 0
HheadDescent: -342
HheadDOffset: 0
OS2SubXSize: 650
OS2SubYSize: 600
OS2SubXOff: 0
OS2SubYOff: 75
OS2SupXSize: 650
OS2SupYSize: 600
OS2SupXOff: 0
OS2SupYOff: 350
OS2StrikeYSize: 50
OS2StrikeYPos: 359
OS2Vendor: 'TIPO'
OS2CodePages: 20000001.00000000
OS2UnicodeRanges: 800000af.4000204a.00000000.00000000
DEI: 91125
TtTable: prep
PUSHW_1
 511
SCANCTRL
PUSHB_1
 4
SCANTYPE
EndTTInstrs
ShortTable: maxp 16
  1
  0
  245
  91
  7
  0
  0
  2
  0
  1
  1
  0
  64
  0
  0
  0
EndShort
LangName: 1033 "" "" "" "EduardoRodriguezTunni: Merienda One: 2011" "" "Version 1.001" "" "Merienda is a trademark of Eduardo Rodriguez Tunni." "Eduardo Rodriguez Tunni" "Eduardo Rodriguez Tunni" "" "http://www.tipo.net.ar" "http://www.tipo.net.ar" "This Font Software is licensed under the SIL Open Font License, Version 1.1. This license is available with a FAQ at: http://scripts.sil.org/OFL" "http://scripts.sil.org/OFL" 
GaspTable: 1 65535 15 1
Encoding: UnicodeBmp
UnicodeInterp: none
NameList: AGL For New Fonts
DisplaySize: -24
AntiAlias: 1
FitToEm: 1
BeginChars: 65539 245

StartChar: exclam
Encoding: 33 33 4
Width: 286
GlyphClass: 2
Flags: W
LayerCount: 2
Fore
SplineSet
290 703 m 0,0,1
 290 672 290 672 272 605 c 0,2,3
 219 400 219 400 219 287 c 0,4,5
 219 237 219 237 227 218 c 1,6,7
 158 235 158 235 132 269.5 c 128,-1,8
 106 304 106 304 106 364.5 c 128,-1,9
 106 425 106 425 131 550 c 128,-1,10
 156 675 156 675 156 728.5 c 128,-1,11
 156 782 156 782 153 798 c 1,12,13
 206 798 206 798 248 774.5 c 128,-1,14
 290 751 290 751 290 703 c 0,0,1
149 146 m 0,15,16
 223 146 223 146 223 84 c 0,17,18
 223 64 223 64 205 -1 c 1,19,20
 170 -11 170 -11 134 -11 c 0,21,22
 60 -11 60 -11 60 51 c 0,23,24
 60 71 60 71 78 136 c 1,25,26
 113 146 113 146 149 146 c 0,15,16
EndSplineSet
EndChar

StartChar: quotedbl
Encoding: 34 34 5
Width: 403
GlyphClass: 2
Flags: W
LayerCount: 2
Fore
SplineSet
223 762 m 0,0,1
 223 742 223 742 201 688 c 128,-1,2
 179 634 179 634 179 600.5 c 128,-1,3
 179 567 179 567 185 540 c 1,4,5
 116 540 116 540 93 562.5 c 128,-1,6
 70 585 70 585 70 619.5 c 128,-1,7
 70 654 70 654 86.5 705.5 c 128,-1,8
 103 757 103 757 103 781.5 c 128,-1,9
 103 806 103 806 97 827 c 1,10,11
 223 827 223 827 223 762 c 0,0,1
403 762 m 0,12,13
 403 742 403 742 381 688 c 128,-1,14
 359 634 359 634 359 600.5 c 128,-1,15
 359 567 359 567 365 540 c 1,16,17
 296 540 296 540 273 562.5 c 128,-1,18
 250 585 250 585 250 619.5 c 128,-1,19
 250 654 250 654 266.5 705.5 c 128,-1,20
 283 757 283 757 283 781.5 c 128,-1,21
 283 806 283 806 277 827 c 1,22,23
 403 827 403 827 403 762 c 0,12,13
EndSplineSet
EndChar

StartChar: numbersign
Encoding: 35 35 6
Width: 772
GlyphClass: 2
Flags: W
LayerCount: 2
Fore
SplineSet
712 186 m 1,0,-1
 711 163 l 1,1,2
 615 172 615 172 510 174 c 1,3,4
 458 28 458 28 447 -41 c 1,5,6
 440 -41 440 -41 419.5 -34 c 128,-1,7
 399 -27 399 -27 386 -18 c 0,8,9
 354 5 354 5 354 41 c 128,-1,10
 354 77 354 77 386 170 c 1,11,12
 364 169 364 169 314 166 c 128,-1,13
 264 163 264 163 235 162 c 1,14,15
 187 24 187 24 176 -41 c 1,16,17
 169 -41 169 -41 148.5 -34 c 128,-1,18
 128 -27 128 -27 116 -18 c 0,19,20
 83 5 83 5 83 42 c 128,-1,21
 83 79 83 79 112 161 c 1,22,23
 45 167 45 167 22.5 193.5 c 128,-1,24
 0 220 0 220 0 269 c 0,25,26
 0 273 0 273 0.5 280.5 c 128,-1,27
 1 288 1 288 1 292 c 1,28,29
 71 284 71 284 157 281 c 1,30,31
 165 302 165 302 184 349.5 c 128,-1,32
 203 397 203 397 212 422 c 1,33,-1
 205 422 l 2,34,35
 117 422 117 422 88.5 449.5 c 128,-1,36
 60 477 60 477 60 531 c 0,37,38
 60 535 60 535 60.5 542.5 c 128,-1,39
 61 550 61 550 61 554 c 1,40,41
 169 543 169 543 257 543 c 1,42,43
 297 653 297 653 310 727 c 1,44,45
 317 727 317 727 337.5 720 c 128,-1,46
 358 713 358 713 370 704 c 0,47,48
 403 681 403 681 403 640 c 0,49,50
 403 615 403 615 381 546 c 1,51,52
 409 547 409 547 462.5 550.5 c 128,-1,53
 516 554 516 554 532 555 c 1,54,55
 570 661 570 661 581 727 c 1,56,57
 588 727 588 727 608.5 720 c 128,-1,58
 629 713 629 713 642 704 c 0,59,60
 674 681 674 681 674 640 c 0,61,62
 674 613 674 613 655 556 c 1,63,64
 725 551 725 551 748.5 524.5 c 128,-1,65
 772 498 772 498 772 448 c 1,66,-1
 771 425 l 1,67,68
 672 434 672 434 612 435 c 1,69,-1
 557 295 l 1,70,-1
 566 295 l 2,71,72
 659 295 659 295 688 264 c 0,73,74
 712 237 712 237 712 186 c 1,0,-1
488 435 m 1,75,76
 460 434 460 434 406.5 430.5 c 128,-1,77
 353 427 353 427 337 426 c 1,78,79
 327 399 327 399 305.5 344.5 c 128,-1,80
 284 290 284 290 281 282 c 1,81,82
 314 283 314 283 431 290 c 1,83,-1
 488 435 l 1,75,76
EndSplineSet
EndChar

StartChar: dollar
Encoding: 36 36 7
Width: 620
GlyphClass: 2
Flags: W
LayerCount: 2
Fore
SplineSet
437 567 m 0,0,1
 437 603 437 603 415.5 628 c 128,-1,2
 394 653 394 653 352 653 c 128,-1,3
 310 653 310 653 279.5 628 c 128,-1,4
 249 603 249 603 249 562 c 128,-1,5
 249 521 249 521 265 490.5 c 128,-1,6
 281 460 281 460 306.5 437 c 128,-1,7
 332 414 332 414 362.5 391.5 c 128,-1,8
 393 369 393 369 423.5 346 c 128,-1,9
 454 323 454 323 480 298 c 0,10,11
 537 243 537 243 537 169.5 c 128,-1,12
 537 96 537 96 478.5 41 c 128,-1,13
 420 -14 420 -14 323 -23 c 1,14,15
 305 -123 305 -123 305 -190 c 1,16,17
 284 -190 284 -190 257 -182 c 0,18,19
 204 -167 204 -167 204 -113 c 0,20,21
 204 -80 204 -80 218 -18 c 1,22,23
 143 -4 143 -4 102 38.5 c 128,-1,24
 61 81 61 81 61 135 c 128,-1,25
 61 189 61 189 93.5 222 c 128,-1,26
 126 255 126 255 181 255 c 0,27,28
 198 255 198 255 211 251 c 1,29,30
 184 210 184 210 184 162.5 c 128,-1,31
 184 115 184 115 213 81 c 128,-1,32
 242 47 242 47 291 47 c 128,-1,33
 340 47 340 47 372.5 72.5 c 128,-1,34
 405 98 405 98 405 138.5 c 128,-1,35
 405 179 405 179 375.5 211 c 128,-1,36
 346 243 346 243 304.5 271 c 128,-1,37
 263 299 263 299 221.5 330.5 c 128,-1,38
 180 362 180 362 150.5 412 c 128,-1,39
 121 462 121 462 121 532.5 c 128,-1,40
 121 603 121 603 171.5 656 c 128,-1,41
 222 709 222 709 319 717 c 1,42,43
 343 819 343 819 348 875 c 1,44,45
 376 875 376 875 399 853 c 128,-1,46
 422 831 422 831 422 798 c 128,-1,47
 422 765 422 765 411 713 c 1,48,49
 475 698 475 698 510 656.5 c 128,-1,50
 545 615 545 615 545 571.5 c 128,-1,51
 545 528 545 528 514 495 c 128,-1,52
 483 462 483 462 430 462 c 0,53,54
 409 462 409 462 389 469 c 1,55,56
 437 502 437 502 437 567 c 0,0,1
EndSplineSet
EndChar

StartChar: percent
Encoding: 37 37 8
Width: 920
GlyphClass: 2
Flags: W
LayerCount: 2
Fore
SplineSet
234 633 m 0,0,1
 198 633 198 633 171.5 578.5 c 128,-1,2
 145 524 145 524 145 465.5 c 128,-1,3
 145 407 145 407 159 371 c 128,-1,4
 173 335 173 335 199 335 c 0,5,6
 235 335 235 335 256 386.5 c 128,-1,7
 277 438 277 438 277 507 c 0,8,9
 277 633 277 633 234 633 c 0,0,1
268 699 m 0,10,11
 325 699 325 699 355 653.5 c 128,-1,12
 385 608 385 608 385 538.5 c 128,-1,13
 385 469 385 469 365 409.5 c 128,-1,14
 345 350 345 350 298.5 307 c 128,-1,15
 252 264 252 264 189 264 c 128,-1,16
 126 264 126 264 82.5 315 c 128,-1,17
 39 366 39 366 39 460 c 128,-1,18
 39 554 39 554 80.5 622 c 128,-1,19
 122 690 122 690 190 709 c 1,20,21
 215 709 215 709 221 690 c 1,22,23
 248 699 248 699 268 699 c 0,10,11
730 346 m 0,24,25
 694 346 694 346 667.5 291.5 c 128,-1,26
 641 237 641 237 641 178.5 c 128,-1,27
 641 120 641 120 655 84 c 128,-1,28
 669 48 669 48 695 48 c 0,29,30
 731 48 731 48 752 99.5 c 128,-1,31
 773 151 773 151 773 220 c 0,32,33
 773 346 773 346 730 346 c 0,24,25
764 412 m 0,34,35
 821 412 821 412 851 366.5 c 128,-1,36
 881 321 881 321 881 251.5 c 128,-1,37
 881 182 881 182 861 122.5 c 128,-1,38
 841 63 841 63 794.5 20 c 128,-1,39
 748 -23 748 -23 685 -23 c 128,-1,40
 622 -23 622 -23 578.5 28 c 128,-1,41
 535 79 535 79 535 173 c 128,-1,42
 535 267 535 267 576.5 335 c 128,-1,43
 618 403 618 403 686 422 c 1,44,45
 711 422 711 422 717 403 c 1,46,47
 744 412 744 412 764 412 c 0,34,35
622 665 m 128,-1,49
 622 626 622 626 572 491 c 128,-1,50
 522 356 522 356 464.5 188 c 128,-1,51
 407 20 407 20 393 -82 c 1,52,53
 382 -82 382 -82 358 -74 c 128,-1,54
 334 -66 334 -66 319 -57 c 128,-1,55
 304 -48 304 -48 291.5 -29 c 128,-1,56
 279 -10 279 -10 279 14 c 0,57,58
 279 59 279 59 337 201.5 c 128,-1,59
 395 344 395 344 461.5 512 c 128,-1,60
 528 680 528 680 543 768 c 1,61,62
 551 765 551 765 567.5 753.5 c 128,-1,63
 584 742 584 742 594 732 c 0,64,48
 622 704 622 704 622 665 c 128,-1,49
EndSplineSet
EndChar

StartChar: ampersand
Encoding: 38 38 9
Width: 620
GlyphClass: 2
Flags: W
LayerCount: 2
Fore
SplineSet
216 590 m 0,0,1
 216 513 216 513 278.5 472.5 c 128,-1,2
 341 432 341 432 457 432 c 128,-1,3
 573 432 573 432 682 478 c 1,4,5
 682 386 682 386 648 362 c 0,6,7
 632 351 632 351 607 351 c 2,8,-1
 541 351 l 1,9,10
 537 323 537 323 525 246 c 128,-1,11
 513 169 513 169 506 122 c 0,12,13
 488 -10 488 -10 488 -92 c 128,-1,14
 488 -174 488 -174 512 -230 c 1,15,16
 432 -209 432 -209 404 -166 c 128,-1,17
 376 -123 376 -123 376 -42 c 0,18,19
 376 0 376 0 381 48 c 1,20,21
 354 6 354 6 309 -13.5 c 128,-1,22
 264 -33 264 -33 219 -33 c 0,23,24
 134 -33 134 -33 71.5 20 c 128,-1,25
 9 73 9 73 9 160.5 c 128,-1,26
 9 248 9 248 70.5 314.5 c 128,-1,27
 132 381 132 381 239 397 c 1,28,29
 157 424 157 424 121 475.5 c 128,-1,30
 85 527 85 527 85 587 c 0,31,32
 85 664 85 664 149.5 722.5 c 128,-1,33
 214 781 214 781 311.5 781 c 128,-1,34
 409 781 409 781 461 741 c 128,-1,35
 513 701 513 701 513 642.5 c 128,-1,36
 513 584 513 584 476 545 c 128,-1,37
 439 506 439 506 377 506 c 0,38,39
 356 506 356 506 335 511 c 1,40,41
 390 572 390 572 390 613.5 c 128,-1,42
 390 655 390 655 368.5 675 c 128,-1,43
 347 695 347 695 318 695 c 0,44,45
 271 695 271 695 243.5 664.5 c 128,-1,46
 216 634 216 634 216 590 c 0,0,1
267 50 m 0,47,48
 335 50 335 50 363.5 96.5 c 128,-1,49
 392 143 392 143 404 229 c 2,50,-1
 421 352 l 1,51,52
 346 352 346 352 294 337 c 128,-1,53
 242 322 242 322 214 303.5 c 128,-1,54
 186 285 186 285 166 251.5 c 128,-1,55
 146 218 146 218 146 166 c 128,-1,56
 146 114 146 114 181 82 c 128,-1,57
 216 50 216 50 267 50 c 0,47,48
EndSplineSet
EndChar

StartChar: quotesingle
Encoding: 39 39 10
Width: 223
GlyphClass: 2
Flags: W
LayerCount: 2
Fore
SplineSet
223 762 m 0,0,1
 223 742 223 742 201 688 c 128,-1,2
 179 634 179 634 179 600.5 c 128,-1,3
 179 567 179 567 185 540 c 1,4,5
 116 540 116 540 93 562.5 c 128,-1,6
 70 585 70 585 70 619.5 c 128,-1,7
 70 654 70 654 86.5 705.5 c 128,-1,8
 103 757 103 757 103 781.5 c 128,-1,9
 103 806 103 806 97 827 c 1,10,11
 223 827 223 827 223 762 c 0,0,1
EndSplineSet
EndChar

StartChar: parenleft
Encoding: 40 40 11
Width: 359
GlyphClass: 2
Flags: W
LayerCount: 2
Fore
SplineSet
189 282 m 0,0,1
 189 201 189 201 206.5 130 c 128,-1,2
 224 59 224 59 252 10 c 0,3,4
 304 -80 304 -80 362 -121 c 1,5,6
 361 -127 361 -127 352.5 -134 c 128,-1,7
 344 -141 344 -141 335 -143 c 1,8,9
 203 -110 203 -110 126.5 8 c 128,-1,10
 50 126 50 126 50 298.5 c 128,-1,11
 50 471 50 471 142.5 611 c 128,-1,12
 235 751 235 751 386 787 c 1,13,14
 395 785 395 785 402 778.5 c 128,-1,15
 409 772 409 772 409 765 c 1,16,17
 301 689 301 689 245 559 c 128,-1,18
 189 429 189 429 189 282 c 0,0,1
EndSplineSet
EndChar

StartChar: parenright
Encoding: 41 41 12
Width: 359
GlyphClass: 2
Flags: W
LayerCount: 2
Fore
SplineSet
170 362 m 0,0,1
 170 443 170 443 152.5 514 c 128,-1,2
 135 585 135 585 107 634 c 0,3,4
 55 724 55 724 -3 765 c 1,5,6
 -2 771 -2 771 6.5 778 c 128,-1,7
 15 785 15 785 24 787 c 1,8,9
 156 754 156 754 232.5 636 c 128,-1,10
 309 518 309 518 309 345.5 c 128,-1,11
 309 173 309 173 216.5 33 c 128,-1,12
 124 -107 124 -107 -27 -143 c 1,13,14
 -36 -141 -36 -141 -43 -134.5 c 128,-1,15
 -50 -128 -50 -128 -50 -121 c 1,16,17
 58 -45 58 -45 114 85 c 128,-1,18
 170 215 170 215 170 362 c 0,0,1
EndSplineSet
EndChar

StartChar: asterisk
Encoding: 42 42 13
Width: 522
GlyphClass: 2
Flags: W
LayerCount: 2
Fore
SplineSet
332 610 m 0,0,1
 332 493 332 493 269 493 c 0,2,3
 230 493 230 493 180 542 c 1,4,5
 227 591 227 591 250 656 c 1,6,7
 184 625 184 625 137 625 c 0,8,9
 70 625 70 625 70 689 c 0,10,11
 70 722 70 722 92 763 c 1,12,13
 162 732 162 732 224 732 c 1,14,15
 154 810 154 810 154 860 c 0,16,17
 154 917 154 917 239 917 c 0,18,19
 258 917 258 917 276 914 c 1,20,21
 272 883 272 883 272 853 c 128,-1,22
 272 823 272 823 289 779 c 1,23,24
 352 887 352 887 405 887 c 0,25,26
 423 887 423 887 445.5 858.5 c 128,-1,27
 468 830 468 830 477 784 c 1,28,29
 401 770 401 770 351 733 c 1,30,31
 492 696 492 696 492 644 c 0,32,33
 492 625 492 625 475.5 602 c 128,-1,34
 459 579 459 579 428 562 c 1,35,36
 348 644 348 644 330 658 c 1,37,38
 332 643 332 643 332 610 c 0,0,1
EndSplineSet
EndChar

StartChar: plus
Encoding: 43 43 14
Width: 620
GlyphClass: 2
Flags: W
LayerCount: 2
Fore
SplineSet
407 303 m 1,0,-1
 368 302 l 1,1,2
 368 247 368 247 363.5 188.5 c 128,-1,3
 359 130 359 130 330 108 c 128,-1,4
 301 86 301 86 247 86 c 0,5,6
 243 86 243 86 235.5 86.5 c 128,-1,7
 228 87 228 87 224 87 c 1,8,9
 246 199 246 199 249 293 c 1,10,11
 191 289 191 289 155 289 c 0,12,13
 89 289 89 289 67 316.5 c 128,-1,14
 45 344 45 344 45 398 c 0,15,16
 45 402 45 402 45.5 409.5 c 128,-1,17
 46 417 46 417 46 421 c 1,18,19
 127 410 127 410 182 410 c 128,-1,20
 237 410 237 410 250 411 c 1,21,22
 250 465 250 465 254.5 523.5 c 128,-1,23
 259 582 259 582 288 604 c 128,-1,24
 317 626 317 626 371 626 c 0,25,26
 375 626 375 626 382.5 625.5 c 128,-1,27
 390 625 390 625 394 625 c 1,28,29
 372 514 372 514 368 420 c 1,30,31
 428 424 428 424 465 424 c 0,32,33
 531 424 531 424 553 396.5 c 128,-1,34
 575 369 575 369 575 315 c 0,35,36
 575 311 575 311 574.5 303.5 c 128,-1,37
 574 296 574 296 574 292 c 1,38,39
 493 303 493 303 407 303 c 1,0,-1
EndSplineSet
EndChar

StartChar: comma
Encoding: 44 44 15
Width: 209
GlyphClass: 2
Flags: W
LayerCount: 2
Fore
SplineSet
120 146 m 0,0,1
 194 146 194 146 194 84 c 0,2,3
 194 19 194 19 147 -40.5 c 128,-1,4
 100 -100 100 -100 10 -147 c 1,5,-1
 -19 -102 l 1,6,7
 60 -32 60 -32 60 60 c 0,8,9
 60 93 60 93 45 135 c 1,10,11
 84 146 84 146 120 146 c 0,0,1
EndSplineSet
EndChar

StartChar: hyphen
Encoding: 45 45 16
Width: 480
GlyphClass: 2
Flags: W
LayerCount: 2
Fore
SplineSet
189 385 m 1,0,-1
 288 381 l 1,1,2
 377 381 377 381 416 422 c 1,3,4
 420 401 420 401 420 362.5 c 128,-1,5
 420 324 420 324 401 293.5 c 128,-1,6
 382 263 382 263 340 263 c 0,7,8
 225 263 225 263 168.5 253 c 128,-1,9
 112 243 112 243 61 211 c 1,10,11
 60 225 60 225 60 260 c 0,12,13
 60 335 60 335 92.5 360 c 128,-1,14
 125 385 125 385 189 385 c 1,0,-1
EndSplineSet
EndChar

StartChar: period
Encoding: 46 46 17
Width: 208
GlyphClass: 2
Flags: W
LayerCount: 2
Fore
SplineSet
104 -11 m 0,0,1
 30 -11 30 -11 30 51 c 0,2,3
 30 71 30 71 48 136 c 1,4,5
 83 146 83 146 119 146 c 0,6,7
 193 146 193 146 193 84 c 0,8,9
 193 64 193 64 175 -1 c 1,10,11
 140 -11 140 -11 104 -11 c 0,0,1
EndSplineSet
EndChar

StartChar: slash
Encoding: 47 47 18
Width: 393
GlyphClass: 2
Flags: W
LayerCount: 2
Fore
SplineSet
368 541 m 128,-1,1
 293 355 293 355 210.5 137.5 c 128,-1,2
 128 -80 128 -80 114 -182 c 1,3,4
 103 -182 103 -182 79 -174 c 128,-1,5
 55 -166 55 -166 40 -157 c 128,-1,6
 25 -148 25 -148 12.5 -129 c 128,-1,7
 0 -110 0 -110 0 -86 c 0,8,9
 0 -41 0 -41 83 151.5 c 128,-1,10
 166 344 166 344 257.5 561.5 c 128,-1,11
 349 779 349 779 364 868 c 1,12,13
 372 865 372 865 388.5 853.5 c 128,-1,14
 405 842 405 842 416 832 c 0,15,16
 443 804 443 804 443 765.5 c 128,-1,0
 443 727 443 727 368 541 c 128,-1,1
EndSplineSet
EndChar

StartChar: zero
Encoding: 48 48 19
Width: 620
GlyphClass: 2
Flags: W
LayerCount: 2
Fore
SplineSet
348 617 m 0,0,1
 275 617 275 617 221 517 c 128,-1,2
 167 417 167 417 167 306.5 c 128,-1,3
 167 196 167 196 198 128.5 c 128,-1,4
 229 61 229 61 289 61 c 0,5,6
 363 61 363 61 406.5 157 c 128,-1,7
 450 253 450 253 450 378 c 128,-1,8
 450 503 450 503 421 560 c 128,-1,9
 392 617 392 617 348 617 c 0,0,1
409 693 m 0,10,11
 493 693 493 693 538.5 619 c 128,-1,12
 584 545 584 545 584 429 c 0,13,14
 584 260 584 260 509 126 c 0,15,16
 472 59 472 59 408.5 18 c 128,-1,17
 345 -23 345 -23 258.5 -23 c 128,-1,18
 172 -23 172 -23 104 60 c 128,-1,19
 36 143 36 143 36 298.5 c 128,-1,20
 36 454 36 454 102.5 566.5 c 128,-1,21
 169 679 169 679 278 710 c 1,22,23
 304 710 304 710 306 668 c 1,24,25
 363 693 363 693 409 693 c 0,10,11
EndSplineSet
EndChar

StartChar: one
Encoding: 49 49 20
Width: 620
GlyphClass: 2
Flags: W
LayerCount: 2
Fore
SplineSet
139 91.5 m 128,-1,1
 168 105 168 105 200.5 105 c 128,-1,2
 233 105 233 105 247 104 c 1,3,4
 252 159 252 159 271 311.5 c 128,-1,5
 290 464 290 464 298 536 c 1,6,7
 189 473 189 473 163.5 473 c 128,-1,8
 138 473 138 473 120.5 515 c 128,-1,9
 103 557 103 557 103 587 c 1,10,11
 156 599 156 599 255 631 c 128,-1,12
 354 663 354 663 436 702 c 1,13,14
 436 650 436 650 410 439.5 c 128,-1,15
 384 229 384 229 378 101 c 1,16,17
 472 103 472 103 534 130 c 1,18,19
 530 49 530 49 507.5 15 c 128,-1,20
 485 -19 485 -19 427 -19 c 0,21,22
 407 -19 407 -19 338.5 -8.5 c 128,-1,23
 270 2 270 2 198.5 2 c 128,-1,24
 127 2 127 2 63 -21 c 1,25,26
 63 -5 63 -5 72.5 20 c 128,-1,27
 82 45 82 45 96 61.5 c 128,-1,0
 110 78 110 78 139 91.5 c 128,-1,1
EndSplineSet
EndChar

StartChar: two
Encoding: 50 50 21
Width: 620
GlyphClass: 2
Flags: W
LayerCount: 2
Fore
SplineSet
217 435 m 0,0,1
 159 435 159 435 125.5 470 c 128,-1,2
 92 505 92 505 92 554 c 0,3,4
 92 619 92 619 149 669 c 128,-1,5
 206 719 206 719 306 719 c 128,-1,6
 406 719 406 719 473 671.5 c 128,-1,7
 540 624 540 624 540 527 c 128,-1,8
 540 430 540 430 451.5 316 c 128,-1,9
 363 202 363 202 190 103 c 1,10,-1
 209 103 l 2,11,12
 315 103 315 103 407.5 113.5 c 128,-1,13
 500 124 500 124 538 140 c 1,14,15
 534 64 534 64 500 22.5 c 128,-1,16
 466 -19 466 -19 412 -19 c 0,17,18
 398 -19 398 -19 313.5 -8.5 c 128,-1,19
 229 2 229 2 143.5 2 c 128,-1,20
 58 2 58 2 -17 -21 c 1,21,22
 -17 11 -17 11 9 46 c 0,23,24
 37 85 37 85 92 98 c 1,25,26
 137 135 137 135 170 163.5 c 128,-1,27
 203 192 203 192 250 240.5 c 128,-1,28
 297 289 297 289 327 330 c 128,-1,29
 357 371 357 371 379 423 c 128,-1,30
 401 475 401 475 401 526 c 128,-1,31
 401 577 401 577 372 607.5 c 128,-1,32
 343 638 343 638 305 638 c 128,-1,33
 267 638 267 638 240 610.5 c 128,-1,34
 213 583 213 583 213 533 c 128,-1,35
 213 483 213 483 252 438 c 1,36,37
 234 435 234 435 217 435 c 0,0,1
EndSplineSet
EndChar

StartChar: three
Encoding: 51 51 22
Width: 620
GlyphClass: 2
Flags: W
LayerCount: 2
Fore
SplineSet
414 548 m 0,0,1
 414 586 414 586 392 610.5 c 128,-1,2
 370 635 370 635 334 635 c 128,-1,3
 298 635 298 635 275 612.5 c 128,-1,4
 252 590 252 590 252 548.5 c 128,-1,5
 252 507 252 507 292 460 c 1,6,7
 271 455 271 455 251 455 c 0,8,9
 198 455 198 455 167 486.5 c 128,-1,10
 136 518 136 518 136 563 c 0,11,12
 136 630 136 630 191 673.5 c 128,-1,13
 246 717 246 717 339.5 717 c 128,-1,14
 433 717 433 717 486 667.5 c 128,-1,15
 539 618 539 618 539 549 c 0,16,17
 539 499 539 499 504.5 452.5 c 128,-1,18
 470 406 470 406 400 374 c 1,19,20
 467 359 467 359 507.5 308.5 c 128,-1,21
 548 258 548 258 548 194 c 0,22,23
 548 110 548 110 471.5 38.5 c 128,-1,24
 395 -33 395 -33 269 -33 c 0,25,26
 167 -33 167 -33 115 13.5 c 128,-1,27
 63 60 63 60 63 119 c 128,-1,28
 63 178 63 178 98.5 216.5 c 128,-1,29
 134 255 134 255 197 255 c 0,30,31
 216 255 216 255 241 248 c 1,32,33
 189 211 189 211 189 147 c 0,34,35
 189 99 189 99 216.5 73.5 c 128,-1,36
 244 48 244 48 289 48 c 128,-1,37
 334 48 334 48 371.5 84 c 128,-1,38
 409 120 409 120 409 181 c 128,-1,39
 409 242 409 242 372 286 c 128,-1,40
 335 330 335 330 264 336 c 1,41,42
 255 334 255 334 237 332 c 1,43,-1
 232 371 l 1,44,45
 318 386 318 386 366 438.5 c 128,-1,46
 414 491 414 491 414 548 c 0,0,1
EndSplineSet
EndChar

StartChar: four
Encoding: 52 52 23
Width: 620
GlyphClass: 2
Flags: W
LayerCount: 2
Fore
SplineSet
51 219 m 0,0,1
 51 227 51 227 57.5 238 c 128,-1,2
 64 249 64 249 117 338 c 128,-1,3
 170 427 170 427 187 458 c 128,-1,4
 204 489 204 489 238 554 c 0,5,6
 295 664 295 664 314 757 c 1,7,8
 323 755 323 755 343.5 743 c 128,-1,9
 364 731 364 731 377 720.5 c 128,-1,10
 390 710 390 710 400.5 692 c 128,-1,11
 411 674 411 674 411 646.5 c 128,-1,12
 411 619 411 619 374.5 555.5 c 128,-1,13
 338 492 338 492 271.5 393 c 128,-1,14
 205 294 205 294 169 230 c 1,15,16
 277 233 277 233 381 241 c 1,17,18
 395 328 395 328 395 374 c 128,-1,19
 395 420 395 420 393 454 c 1,20,21
 413 456 413 456 427 456 c 0,22,23
 511 456 511 456 511 379 c 0,24,25
 511 346 511 346 498 251 c 1,26,-1
 566 258 l 1,27,28
 573 233 573 233 573 206 c 0,29,30
 573 125 573 125 494 125 c 2,31,-1
 483 125 l 1,32,33
 482 106 482 106 482 49.5 c 128,-1,34
 482 -7 482 -7 488 -35 c 1,35,36
 466 -37 466 -37 449 -37 c 0,37,38
 396 -37 396 -37 372 -11.5 c 128,-1,39
 348 14 348 14 348 53 c 0,40,41
 348 68 348 68 360 128 c 1,42,-1
 77 139 l 1,43,44
 51 167 51 167 51 219 c 0,0,1
EndSplineSet
EndChar

StartChar: five
Encoding: 53 53 24
Width: 620
GlyphClass: 2
Flags: W
LayerCount: 2
Fore
SplineSet
554 643 m 0,0,1
 554 561 554 561 502 561 c 0,2,3
 440 561 440 561 253 598 c 1,4,-1
 226 425 l 1,5,6
 255 430 255 430 293 430 c 0,7,8
 411 430 411 430 478 372 c 128,-1,9
 545 314 545 314 545 217.5 c 128,-1,10
 545 121 545 121 471.5 44 c 128,-1,11
 398 -33 398 -33 275 -33 c 0,12,13
 185 -33 185 -33 123 7.5 c 128,-1,14
 61 48 61 48 61 119 c 0,15,16
 61 175 61 175 97 213 c 128,-1,17
 133 251 133 251 191 251 c 0,18,19
 208 251 208 251 226 248 c 1,20,21
 187 203 187 203 187 154.5 c 128,-1,22
 187 106 187 106 215 75.5 c 128,-1,23
 243 45 243 45 289.5 45 c 128,-1,24
 336 45 336 45 375 85.5 c 128,-1,25
 414 126 414 126 414 193.5 c 128,-1,26
 414 261 414 261 365.5 311 c 128,-1,27
 317 361 317 361 223 361 c 0,28,29
 171 361 171 361 115 348 c 1,30,-1
 162 626 l 1,31,32
 136 649 136 649 132 702 c 1,33,34
 194 693 194 693 268 693 c 0,35,36
 396 693 396 693 510 706 c 2,37,-1
 545 710 l 1,38,39
 554 692 554 692 554 643 c 0,0,1
EndSplineSet
EndChar

StartChar: six
Encoding: 54 54 25
Width: 620
GlyphClass: 2
Flags: W
LayerCount: 2
Fore
SplineSet
360 637 m 0,0,1
 299 637 299 637 259.5 555.5 c 128,-1,2
 220 474 220 474 206 362 c 1,3,4
 280 392 280 392 357.5 392 c 128,-1,5
 435 392 435 392 494.5 343 c 128,-1,6
 554 294 554 294 554 213 c 0,7,8
 554 104 554 104 479 35 c 128,-1,9
 404 -34 404 -34 306 -34 c 128,-1,10
 208 -34 208 -34 136 43 c 128,-1,11
 64 120 64 120 64 270 c 0,12,13
 64 439 64 439 137 573 c 0,14,15
 173 639 173 639 236 679 c 128,-1,16
 299 719 299 719 379.5 719 c 128,-1,17
 460 719 460 719 508.5 675 c 128,-1,18
 557 631 557 631 557 582 c 128,-1,19
 557 533 557 533 529 503.5 c 128,-1,20
 501 474 501 474 447 474 c 0,21,22
 423 474 423 474 400 484 c 1,23,24
 431 506 431 506 431 557 c 0,25,26
 431 589 431 589 412.5 613 c 128,-1,27
 394 637 394 637 360 637 c 0,0,1
298 318 m 0,28,29
 251 318 251 318 201 300 c 1,30,31
 200 289 200 289 200 243.5 c 128,-1,32
 200 198 200 198 209 150.5 c 128,-1,33
 218 103 218 103 235 82 c 128,-1,34
 252 61 252 61 268 54 c 128,-1,35
 284 47 284 47 306 47 c 0,36,37
 359 47 359 47 392 90.5 c 128,-1,38
 425 134 425 134 425 189.5 c 128,-1,39
 425 245 425 245 394.5 281.5 c 128,-1,40
 364 318 364 318 298 318 c 0,28,29
EndSplineSet
EndChar

StartChar: seven
Encoding: 55 55 26
Width: 620
GlyphClass: 2
Flags: W
LayerCount: 2
Fore
SplineSet
564.5 746 m 128,-1,1
 573 728 573 728 573 702.5 c 128,-1,2
 573 677 573 677 526 579.5 c 128,-1,3
 479 482 479 482 421 375 c 128,-1,4
 363 268 363 268 309 141 c 128,-1,5
 255 14 255 14 244 -67 c 1,6,7
 233 -67 233 -67 209 -59 c 128,-1,8
 185 -51 185 -51 170 -42 c 128,-1,9
 155 -33 155 -33 142.5 -14 c 128,-1,10
 130 5 130 5 130 34.5 c 128,-1,11
 130 64 130 64 174 151.5 c 128,-1,12
 218 239 218 239 296 378 c 128,-1,13
 374 517 374 517 413 596 c 1,14,15
 206 554 206 554 139 554 c 0,16,17
 87 554 87 554 87 643 c 0,18,19
 87 692 87 692 96 710 c 1,20,21
 221 693 221 693 314.5 693 c 128,-1,22
 408 693 408 693 458 696 c 1,23,24
 486 767 486 767 494 811 c 1,25,26
 502 808 502 808 518.5 796.5 c 128,-1,27
 535 785 535 785 545.5 774.5 c 128,-1,0
 556 764 556 764 564.5 746 c 128,-1,1
EndSplineSet
EndChar

StartChar: eight
Encoding: 56 56 27
Width: 620
GlyphClass: 2
Flags: W
LayerCount: 2
Fore
SplineSet
336 228 m 0,0,1
 329 235 329 235 307 253.5 c 128,-1,2
 285 272 285 272 275 281 c 1,3,4
 230 246 230 246 211.5 210 c 128,-1,5
 193 174 193 174 193 131.5 c 128,-1,6
 193 89 193 89 216 64 c 128,-1,7
 239 39 239 39 279.5 39 c 128,-1,8
 320 39 320 39 354.5 64.5 c 128,-1,9
 389 90 389 90 389 136.5 c 128,-1,10
 389 183 389 183 336 228 c 0,0,1
286.5 620.5 m 128,-1,12
 258 595 258 595 258 553 c 128,-1,13
 258 511 258 511 278 482.5 c 128,-1,14
 298 454 298 454 348 416 c 1,15,16
 427 486 427 486 427 569 c 0,17,18
 427 602 427 602 408 624 c 128,-1,19
 389 646 389 646 352 646 c 128,-1,11
 315 646 315 646 286.5 620.5 c 128,-1,12
552 573 m 0,20,21
 552 437 552 437 385 381 c 1,22,23
 443 337 443 337 470.5 312 c 128,-1,24
 498 287 498 287 521.5 248 c 128,-1,25
 545 209 545 209 545 166 c 0,26,27
 545 77 545 77 472.5 22 c 128,-1,28
 400 -33 400 -33 286.5 -33 c 128,-1,29
 173 -33 173 -33 114 17 c 128,-1,30
 55 67 55 67 55 138 c 0,31,32
 55 265 55 265 233 319 c 1,33,34
 170 373 170 373 140.5 419 c 128,-1,35
 111 465 111 465 111 527 c 0,36,37
 111 615 111 615 179 667 c 128,-1,38
 247 719 247 719 352 719 c 128,-1,39
 457 719 457 719 504.5 676 c 128,-1,40
 552 633 552 633 552 573 c 0,20,21
EndSplineSet
EndChar

StartChar: nine
Encoding: 57 57 28
Width: 620
GlyphClass: 2
Flags: W
LayerCount: 2
Fore
SplineSet
183 131 m 0,0,1
 183 99 183 99 202.5 74 c 128,-1,2
 222 49 222 49 263.5 49 c 128,-1,3
 305 49 305 49 340 92 c 0,4,5
 402 171 402 171 419 340 c 1,6,7
 355 285 355 285 275 285 c 128,-1,8
 195 285 195 285 141.5 334 c 128,-1,9
 88 383 88 383 88 475.5 c 128,-1,10
 88 568 88 568 160 643.5 c 128,-1,11
 232 719 232 719 356 719 c 0,12,13
 439 719 439 719 498 648.5 c 128,-1,14
 557 578 557 578 557 438 c 0,15,16
 557 263 557 263 482 122 c 0,17,18
 444 52 444 52 379 9.5 c 128,-1,19
 314 -33 314 -33 232 -33 c 128,-1,20
 150 -33 150 -33 103.5 9.5 c 128,-1,21
 57 52 57 52 57 107 c 128,-1,22
 57 162 57 162 92.5 200.5 c 128,-1,23
 128 239 128 239 191 239 c 0,24,25
 210 239 210 239 235 232 c 1,26,27
 183 195 183 195 183 131 c 0,0,1
424 419 m 1,28,-1
 425 440 l 1,29,30
 425 527 425 527 402.5 582.5 c 128,-1,31
 380 638 380 638 336 638 c 0,32,33
 279 638 279 638 243.5 586.5 c 128,-1,34
 208 535 208 535 208 476.5 c 128,-1,35
 208 418 208 418 233 391.5 c 128,-1,36
 258 365 258 365 298 365 c 0,37,38
 365 365 365 365 424 419 c 1,28,-1
EndSplineSet
EndChar

StartChar: colon
Encoding: 58 58 29
Width: 286
GlyphClass: 2
Flags: W
LayerCount: 2
Fore
SplineSet
134 -11 m 0,0,1
 60 -11 60 -11 60 51 c 0,2,3
 60 71 60 71 78 136 c 1,4,5
 113 146 113 146 149 146 c 0,6,7
 223 146 223 146 223 84 c 0,8,9
 223 64 223 64 205 -1 c 1,10,11
 170 -11 170 -11 134 -11 c 0,0,1
167 397 m 0,12,13
 93 397 93 397 93 459 c 0,14,15
 93 479 93 479 111 544 c 1,16,17
 146 554 146 554 182 554 c 0,18,19
 256 554 256 554 256 492 c 0,20,21
 256 472 256 472 238 407 c 1,22,23
 203 397 203 397 167 397 c 0,12,13
EndSplineSet
EndChar

StartChar: semicolon
Encoding: 59 59 30
Width: 287
GlyphClass: 2
Flags: W
LayerCount: 2
Fore
SplineSet
168 397 m 0,0,1
 94 397 94 397 94 459 c 0,2,3
 94 479 94 479 112 544 c 1,4,5
 147 554 147 554 183 554 c 0,6,7
 257 554 257 554 257 492 c 0,8,9
 257 472 257 472 239 407 c 1,10,11
 204 397 204 397 168 397 c 0,0,1
150 146 m 0,12,13
 224 146 224 146 224 84 c 0,14,15
 224 19 224 19 177 -40.5 c 128,-1,16
 130 -100 130 -100 40 -147 c 1,17,-1
 11 -102 l 1,18,19
 90 -32 90 -32 90 60 c 0,20,21
 90 93 90 93 75 135 c 1,22,23
 114 146 114 146 150 146 c 0,12,13
EndSplineSet
EndChar

StartChar: less
Encoding: 60 60 31
Width: 620
GlyphClass: 2
Flags: W
LayerCount: 2
Fore
SplineSet
70 365 m 128,-1,1
 70 395 70 395 90 423 c 1,2,3
 160 457 160 457 243 514.5 c 128,-1,4
 326 572 326 572 382 606 c 128,-1,5
 438 640 438 640 478 640 c 0,6,7
 528 640 528 640 550 541 c 1,8,9
 487 519 487 519 372.5 450.5 c 128,-1,10
 258 382 258 382 230 368 c 1,11,12
 259 354 259 354 372 286.5 c 128,-1,13
 485 219 485 219 550 195 c 1,14,15
 528 96 528 96 478 96 c 0,16,17
 438 96 438 96 382 130 c 128,-1,18
 326 164 326 164 243 221.5 c 128,-1,19
 160 279 160 279 90 313 c 1,20,0
 70 335 70 335 70 365 c 128,-1,1
EndSplineSet
EndChar

StartChar: equal
Encoding: 61 61 32
Width: 620
GlyphClass: 2
Flags: W
LayerCount: 2
Fore
SplineSet
332.5 536 m 128,-1,1
 414 543 414 543 472.5 543 c 128,-1,2
 531 543 531 543 553 515.5 c 128,-1,3
 575 488 575 488 575 434 c 0,4,5
 575 430 575 430 574.5 422.5 c 128,-1,6
 574 415 574 415 574 411 c 1,7,8
 493 422 493 422 431 422 c 128,-1,9
 369 422 369 422 287.5 415 c 128,-1,10
 206 408 206 408 147.5 408 c 128,-1,11
 89 408 89 408 67 435.5 c 128,-1,12
 45 463 45 463 45 517 c 0,13,14
 45 521 45 521 45.5 528.5 c 128,-1,15
 46 536 46 536 46 540 c 1,16,17
 127 529 127 529 189 529 c 128,-1,0
 251 529 251 529 332.5 536 c 128,-1,1
332.5 298 m 128,-1,19
 414 305 414 305 472.5 305 c 128,-1,20
 531 305 531 305 553 277.5 c 128,-1,21
 575 250 575 250 575 196 c 0,22,23
 575 192 575 192 574.5 184.5 c 128,-1,24
 574 177 574 177 574 173 c 1,25,26
 493 184 493 184 431 184 c 128,-1,27
 369 184 369 184 287.5 177 c 128,-1,28
 206 170 206 170 147.5 170 c 128,-1,29
 89 170 89 170 67 197.5 c 128,-1,30
 45 225 45 225 45 279 c 0,31,32
 45 283 45 283 45.5 290.5 c 128,-1,33
 46 298 46 298 46 302 c 1,34,35
 127 291 127 291 189 291 c 128,-1,18
 251 291 251 291 332.5 298 c 128,-1,19
EndSplineSet
EndChar

StartChar: greater
Encoding: 62 62 33
Width: 620
GlyphClass: 2
Flags: W
LayerCount: 2
Fore
SplineSet
142 96 m 0,0,1
 92 96 92 96 70 195 c 1,2,3
 135 219 135 219 248 286.5 c 128,-1,4
 361 354 361 354 390 368 c 1,5,6
 362 382 362 382 247.5 450.5 c 128,-1,7
 133 519 133 519 70 541 c 1,8,9
 92 640 92 640 142 640 c 0,10,11
 182 640 182 640 238 606 c 128,-1,12
 294 572 294 572 377 514.5 c 128,-1,13
 460 457 460 457 530 423 c 1,14,15
 550 395 550 395 550 365 c 128,-1,16
 550 335 550 335 530 313 c 1,17,18
 460 279 460 279 377 221.5 c 128,-1,19
 294 164 294 164 238 130 c 128,-1,20
 182 96 182 96 142 96 c 0,0,1
EndSplineSet
EndChar

StartChar: question
Encoding: 63 63 34
Width: 453
GlyphClass: 2
Flags: W
LayerCount: 2
Fore
SplineSet
185 146 m 0,0,1
 259 146 259 146 259 84 c 0,2,3
 259 64 259 64 241 -1 c 1,4,5
 206 -11 206 -11 170 -11 c 0,6,7
 96 -11 96 -11 96 51 c 0,8,9
 96 71 96 71 114 136 c 1,10,11
 149 146 149 146 185 146 c 0,0,1
237 206 m 1,12,13
 115 238 115 238 115 324 c 0,14,15
 115 390 115 390 196 452 c 0,16,17
 229 478 229 478 262.5 504 c 128,-1,18
 296 530 296 530 319.5 563.5 c 128,-1,19
 343 597 343 597 343 632.5 c 128,-1,20
 343 668 343 668 320.5 687 c 128,-1,21
 298 706 298 706 260.5 706 c 128,-1,22
 223 706 223 706 199 678.5 c 128,-1,23
 175 651 175 651 175 613 c 128,-1,24
 175 575 175 575 200 545 c 1,25,26
 179 537 179 537 146.5 537 c 128,-1,27
 114 537 114 537 87 563 c 128,-1,28
 60 589 60 589 60 632 c 0,29,30
 60 696 60 696 124.5 736 c 128,-1,31
 189 776 189 776 272.5 776 c 128,-1,32
 356 776 356 776 414.5 733 c 128,-1,33
 473 690 473 690 473 606 c 0,34,35
 473 556 473 556 447.5 514.5 c 128,-1,36
 422 473 422 473 386 444 c 128,-1,37
 350 415 350 415 314 389 c 0,38,39
 226 327 226 327 226 268 c 0,40,41
 226 232 226 232 237 206 c 1,12,13
EndSplineSet
EndChar

StartChar: at
Encoding: 64 64 35
Width: 1027
GlyphClass: 2
Flags: W
LayerCount: 2
Fore
SplineSet
580 -12 m 1,0,1
 587 -37 587 -37 587 -58 c 0,2,3
 587 -109 587 -109 544 -129 c 128,-1,4
 501 -149 501 -149 427.5 -149 c 128,-1,5
 354 -149 354 -149 290 -127.5 c 128,-1,6
 226 -106 226 -106 171.5 -64 c 128,-1,7
 117 -22 117 -22 83.5 51 c 128,-1,8
 50 124 50 124 50 217.5 c 128,-1,9
 50 311 50 311 87.5 400 c 128,-1,10
 125 489 125 489 193.5 561 c 128,-1,11
 262 633 262 633 369.5 676.5 c 128,-1,12
 477 720 477 720 605 720 c 0,13,14
 745 720 745 720 854 643 c 0,15,16
 910 604 910 604 943.5 533 c 128,-1,17
 977 462 977 462 977 373 c 128,-1,18
 977 284 977 284 949 211.5 c 128,-1,19
 921 139 921 139 878.5 94.5 c 128,-1,20
 836 50 836 50 789.5 25 c 128,-1,21
 743 0 743 0 701 0 c 0,22,23
 573 0 573 0 573 187 c 1,24,25
 543 141 543 141 500 115 c 128,-1,26
 457 89 457 89 409.5 89 c 128,-1,27
 362 89 362 89 328.5 128.5 c 128,-1,28
 295 168 295 168 295 239.5 c 128,-1,29
 295 311 295 311 318 373.5 c 128,-1,30
 341 436 341 436 392.5 481.5 c 128,-1,31
 444 527 444 527 512 527 c 0,32,33
 550 527 550 527 584 509 c 1,34,-1
 584 535 l 1,35,-1
 627 535 l 2,36,37
 672 535 672 535 694.5 519.5 c 128,-1,38
 717 504 717 504 717 463 c 0,39,40
 717 458 717 458 706 408 c 0,41,42
 674 251 674 251 674 174 c 0,43,44
 674 77 674 77 720 77 c 0,45,46
 762 77 762 77 802.5 153.5 c 128,-1,47
 843 230 843 230 843 365 c 0,48,49
 843 442 843 442 821.5 500 c 128,-1,50
 800 558 800 558 764 590 c 0,51,52
 692 653 692 653 592.5 653 c 128,-1,53
 493 653 493 653 413 615.5 c 128,-1,54
 333 578 333 578 284 516 c 0,55,56
 182 387 182 387 182 222 c 0,57,58
 182 145 182 145 203.5 87.5 c 128,-1,59
 225 30 225 30 262 -2 c 0,60,61
 335 -65 335 -65 424 -65 c 128,-1,62
 513 -65 513 -65 580 -12 c 1,0,1
472.5 386 m 128,-1,64
 431 313 431 313 431 244.5 c 128,-1,65
 431 176 431 176 468 176 c 0,66,67
 513 176 513 176 550.5 259.5 c 128,-1,68
 588 343 588 343 588 440 c 0,69,70
 588 464 588 464 585 491 c 1,71,63
 514 459 514 459 472.5 386 c 128,-1,64
EndSplineSet
EndChar

StartChar: A
Encoding: 65 65 36
Width: 645
GlyphClass: 2
Flags: W
LayerCount: 2
Fore
SplineSet
-20 44 m 0,0,1
 -20 63 -20 63 38 186 c 128,-1,2
 96 309 96 309 169.5 465.5 c 128,-1,3
 243 622 243 622 269 693 c 2,4,-1
 287 742 l 1,5,6
 279 756 279 756 248 793 c 1,7,8
 284 805 284 805 310.5 805 c 128,-1,9
 337 805 337 805 354.5 801 c 128,-1,10
 372 797 372 797 385.5 787.5 c 128,-1,11
 399 778 399 778 409.5 768 c 128,-1,12
 420 758 420 758 429 738.5 c 128,-1,13
 438 719 438 719 444 703.5 c 128,-1,14
 450 688 450 688 457.5 660 c 128,-1,15
 465 632 465 632 469.5 611.5 c 128,-1,16
 474 591 474 591 481.5 554.5 c 128,-1,17
 489 518 489 518 497 484 c 128,-1,18
 505 450 505 450 525 354.5 c 128,-1,19
 545 259 545 259 556.5 211.5 c 128,-1,20
 568 164 568 164 589.5 105 c 128,-1,21
 611 46 611 46 635 12 c 1,22,23
 577 -16 577 -16 541 -16 c 128,-1,24
 505 -16 505 -16 488 2.5 c 128,-1,25
 471 21 471 21 459 58.5 c 128,-1,26
 447 96 447 96 412 260 c 1,27,28
 389 240 389 240 337 238 c 2,29,-1
 166 232 l 1,30,31
 105 83 105 83 76 -33 c 1,32,33
 -20 1 -20 1 -20 44 c 0,0,1
333 609 m 1,34,35
 319 577 319 577 271.5 472.5 c 128,-1,36
 224 368 224 368 198 306 c 1,37,-1
 403 306 l 1,38,39
 356 522 356 522 333 609 c 1,34,35
EndSplineSet
EndChar

StartChar: B
Encoding: 66 66 37
Width: 679
GlyphClass: 2
Flags: W
LayerCount: 2
Fore
SplineSet
129.5 472 m 128,-1,1
 141 602 141 602 141 708 c 128,-1,2
 141 814 141 814 127 847 c 1,3,4
 234 819 234 819 261 759 c 1,5,6
 338 802 338 802 424 802 c 128,-1,7
 510 802 510 802 564.5 753.5 c 128,-1,8
 619 705 619 705 619 635.5 c 128,-1,9
 619 566 619 566 569 506.5 c 128,-1,10
 519 447 519 447 432 418 c 1,11,12
 502 403 502 403 560.5 350.5 c 128,-1,13
 619 298 619 298 619 221 c 0,14,15
 619 103 619 103 531.5 39.5 c 128,-1,16
 444 -24 444 -24 310.5 -24 c 128,-1,17
 177 -24 177 -24 75 53 c 1,18,19
 76 61 76 61 97 201.5 c 128,-1,0
 118 342 118 342 129.5 472 c 128,-1,1
450 687.5 m 128,-1,21
 422 718 422 718 371 718 c 128,-1,22
 320 718 320 718 273 697 c 1,23,24
 273 636 273 636 246.5 390 c 128,-1,25
 220 144 220 144 220 75 c 1,26,27
 264 57 264 57 305 57 c 0,28,29
 376 57 376 57 422 104 c 128,-1,30
 468 151 468 151 468 222 c 128,-1,31
 468 293 468 293 420 340.5 c 128,-1,32
 372 388 372 388 286 392 c 1,33,-1
 283 428 l 1,34,35
 375 441 375 441 426.5 495.5 c 128,-1,36
 478 550 478 550 478 612 c 0,37,20
 478 657 478 657 450 687.5 c 128,-1,21
EndSplineSet
EndChar

StartChar: C
Encoding: 67 67 38
Width: 687
GlyphClass: 2
Flags: W
LayerCount: 2
Fore
SplineSet
323 -15 m 0,0,1
 205 -15 205 -15 125 75 c 128,-1,2
 45 165 45 165 45 337 c 0,3,4
 45 529 45 529 144 664 c 1,5,6
 193 729 193 729 269.5 767.5 c 128,-1,7
 346 806 346 806 446.5 806 c 128,-1,8
 547 806 547 806 599.5 752.5 c 128,-1,9
 652 699 652 699 652 626.5 c 128,-1,10
 652 554 652 554 612 508.5 c 128,-1,11
 572 463 572 463 508 463 c 0,12,13
 486 463 486 463 457 471 c 1,14,15
 478 497 478 497 494 545 c 128,-1,16
 510 593 510 593 510 636 c 128,-1,17
 510 679 510 679 490 706 c 128,-1,18
 470 733 470 733 427 733 c 0,19,20
 361 733 361 733 308 672 c 128,-1,21
 255 611 255 611 229 522 c 128,-1,22
 203 433 203 433 203 338 c 0,23,24
 203 210 203 210 253 144 c 128,-1,25
 303 78 303 78 381 78 c 0,26,27
 430 78 430 78 483 111 c 128,-1,28
 536 144 536 144 584 205 c 1,29,30
 621 197 621 197 621 168 c 1,31,32
 583 99 583 99 528 56 c 128,-1,33
 473 13 473 13 424 -1 c 128,-1,34
 375 -15 375 -15 323 -15 c 0,0,1
EndSplineSet
EndChar

StartChar: D
Encoding: 68 68 39
Width: 760
GlyphClass: 2
Flags: W
LayerCount: 2
Fore
SplineSet
428 802 m 0,0,1
 566 802 566 802 645 693 c 128,-1,2
 724 584 724 584 724 419 c 0,3,4
 724 282 724 282 663 175 c 0,5,6
 595 56 595 56 472 10 c 0,7,8
 405 -15 405 -15 331 -15 c 128,-1,9
 257 -15 257 -15 194.5 2 c 128,-1,10
 132 19 132 19 104 36 c 2,11,-1
 75 53 l 1,12,13
 76 61 76 61 97 202 c 0,14,15
 141 496 141 496 141 735 c 0,16,17
 141 814 141 814 127 847 c 1,18,19
 234 819 234 819 261 759 c 1,20,21
 350 802 350 802 428 802 c 0,0,1
308 60 m 0,22,23
 395 60 395 60 458.5 116 c 128,-1,24
 522 172 522 172 550.5 253 c 128,-1,25
 579 334 579 334 579 425 c 0,26,27
 579 553 579 553 524 634 c 128,-1,28
 469 715 469 715 376 715 c 0,29,30
 318 715 318 715 274 697 c 1,31,32
 274 636 274 636 247.5 390 c 128,-1,33
 221 144 221 144 221 75 c 1,34,35
 260 60 260 60 308 60 c 0,22,23
EndSplineSet
EndChar

StartChar: E
Encoding: 69 69 40
Width: 631
GlyphClass: 2
Flags: W
LayerCount: 2
Fore
SplineSet
412 334 m 2,0,-1
 316 335 l 2,1,2
 272 335 272 335 249 334 c 1,3,4
 234 201 234 201 233 106 c 1,5,6
 468 106 468 106 582 144 c 1,7,8
 573 70 573 70 537 29 c 128,-1,9
 501 -12 501 -12 447 -12 c 0,10,11
 431 -12 431 -12 357.5 -3.5 c 128,-1,12
 284 5 284 5 202 5 c 128,-1,13
 120 5 120 5 42 -12 c 1,14,15
 53 35 53 35 90 65 c 1,16,-1
 90 69 l 2,17,18
 90 123 90 123 118 315 c 1,19,20
 93 306 93 306 75 299 c 1,21,22
 73 321 73 321 73 332 c 0,23,24
 73 399 73 399 132 417 c 1,25,26
 150 549 150 549 156 655 c 1,27,28
 119 657 119 657 109 672 c 128,-1,29
 99 687 99 687 99 731 c 1,30,31
 102 776 102 776 107 790 c 1,32,33
 219 775 219 775 354.5 775 c 128,-1,34
 490 775 490 775 616 799 c 1,35,36
 602 694 602 694 488 673 c 0,37,38
 421 660 421 660 289 656 c 1,39,40
 288 645 288 645 260 424 c 1,41,42
 320 422 320 422 343 422 c 0,43,44
 438 422 438 422 478 455 c 1,45,46
 480 435 480 435 480 425 c 0,47,48
 480 334 480 334 412 334 c 2,0,-1
EndSplineSet
EndChar

StartChar: F
Encoding: 70 70 41
Width: 520
GlyphClass: 2
Flags: W
LayerCount: 2
Fore
SplineSet
409 334 m 2,0,-1
 313 335 l 2,1,2
 272 335 272 335 250 334 c 1,3,4
 234 194 234 194 234 107 c 128,-1,5
 234 20 234 20 240 -15 c 1,6,7
 208 -17 208 -17 198 -17 c 0,8,9
 141 -17 141 -17 116 3 c 128,-1,10
 91 23 91 23 91 73.5 c 128,-1,11
 91 124 91 124 119 316 c 1,12,13
 87 306 87 306 72 299 c 1,14,15
 70 321 70 321 70 332 c 0,16,17
 70 401 70 401 133 418 c 1,18,19
 152 555 152 555 156 655 c 1,20,21
 105 655 105 655 91.5 669 c 128,-1,22
 78 683 78 683 78 731 c 1,23,24
 82 776 82 776 86 790 c 1,25,26
 199 775 199 775 334 775 c 128,-1,27
 469 775 469 775 595 799 c 1,28,29
 581 694 581 694 467 673 c 0,30,31
 405 661 405 661 290 657 c 1,32,33
 289 644 289 644 261 424 c 1,34,35
 319 422 319 422 340 422 c 0,36,37
 435 422 435 422 475 455 c 1,38,39
 477 435 477 435 477 425 c 0,40,41
 477 334 477 334 409 334 c 2,0,-1
EndSplineSet
EndChar

StartChar: G
Encoding: 71 71 42
Width: 687
GlyphClass: 2
Flags: W
LayerCount: 2
Fore
SplineSet
280 -256 m 0,0,1
 447 -256 447 -256 470 137 c 1,2,3
 433 84 433 84 381 56.5 c 128,-1,4
 329 29 329 29 274 29 c 0,5,6
 178 29 178 29 109 107 c 128,-1,7
 40 185 40 185 40 324 c 0,8,9
 40 515 40 515 139 656 c 0,10,11
 187 725 187 725 263 765.5 c 128,-1,12
 339 806 339 806 436.5 806 c 128,-1,13
 534 806 534 806 585.5 755.5 c 128,-1,14
 637 705 637 705 637 631 c 128,-1,15
 637 557 637 557 591 514 c 128,-1,16
 545 471 545 471 482 471 c 0,17,18
 441 471 441 471 404 491 c 128,-1,19
 367 511 367 511 347 549 c 1,20,21
 374 542 374 542 398 542 c 0,22,23
 452 542 452 542 483.5 573 c 128,-1,24
 515 604 515 604 515 643 c 128,-1,25
 515 682 515 682 489 707.5 c 128,-1,26
 463 733 463 733 415 733 c 0,27,28
 352 733 352 733 300.5 668.5 c 128,-1,29
 249 604 249 604 223 512.5 c 128,-1,30
 197 421 197 421 197 323 c 128,-1,31
 197 225 197 225 235.5 169.5 c 128,-1,32
 274 114 274 114 329 114 c 128,-1,33
 384 114 384 114 424.5 168 c 128,-1,34
 465 222 465 222 465 314 c 0,35,36
 465 337 465 337 462 361 c 1,37,-1
 462 364 l 1,38,39
 484 366 484 366 508 366 c 0,40,41
 566 366 566 366 588.5 346.5 c 128,-1,42
 611 327 611 327 611 280 c 0,43,44
 611 -25 611 -25 502 -196 c 0,45,46
 464 -255 464 -255 403 -292 c 128,-1,47
 342 -329 342 -329 265 -329 c 0,48,49
 160 -329 160 -329 107.5 -275.5 c 128,-1,50
 55 -222 55 -222 55 -153 c 128,-1,51
 55 -84 55 -84 92 -42.5 c 128,-1,52
 129 -1 129 -1 184 -1 c 0,53,54
 214 -1 214 -1 250 -18 c 1,55,56
 197 -85 197 -85 197 -159 c 0,57,58
 197 -202 197 -202 217 -229 c 128,-1,59
 237 -256 237 -256 280 -256 c 0,0,1
EndSplineSet
EndChar

StartChar: H
Encoding: 72 72 43
Width: 791
GlyphClass: 2
Flags: W
LayerCount: 2
Fore
SplineSet
477 346 m 2,0,-1
 381 347 l 2,1,2
 330 347 330 347 259 344 c 1,3,4
 236 172 236 172 236 87 c 128,-1,5
 236 2 236 2 250 -31 c 1,6,7
 165 -9 165 -9 134 27.5 c 128,-1,8
 103 64 103 64 103 129 c 0,9,10
 103 167 103 167 124 322 c 0,11,12
 125 326 125 326 125 327 c 1,13,14
 95 319 95 319 77 311 c 1,15,16
 75 333 75 333 75 344 c 0,17,18
 75 414 75 414 139 430 c 1,19,20
 160 608 160 608 160 720 c 0,21,22
 160 750 160 750 156 802 c 1,23,24
 256 798 256 798 282 766 c 1,25,26
 295 748 295 748 298.5 731.5 c 128,-1,27
 302 715 302 715 302 678.5 c 128,-1,28
 302 642 302 642 288 548.5 c 128,-1,29
 274 455 274 455 272 437 c 1,30,31
 438 437 438 437 558 439 c 1,32,33
 579 611 579 611 579 720 c 0,34,35
 579 750 579 750 575 802 c 1,36,37
 675 798 675 798 700 766 c 0,38,39
 714 748 714 748 717.5 731.5 c 128,-1,40
 721 715 721 715 721 678.5 c 128,-1,41
 721 642 721 642 687.5 412.5 c 128,-1,42
 654 183 654 183 654 92.5 c 128,-1,43
 654 2 654 2 668 -31 c 1,44,45
 583 -9 583 -9 552.5 27 c 128,-1,46
 522 63 522 63 522 119 c 128,-1,47
 522 175 522 175 542 322 c 2,48,-1
 548 365 l 1,49,50
 526 346 526 346 477 346 c 2,0,-1
EndSplineSet
EndChar

StartChar: I
Encoding: 73 73 44
Width: 344
GlyphClass: 2
Flags: W
LayerCount: 2
Fore
SplineSet
272.5 723 m 128,-1,1
 274 709 274 709 274 672 c 128,-1,2
 274 635 274 635 241 409 c 128,-1,3
 208 183 208 183 208 92.5 c 128,-1,4
 208 2 208 2 222 -31 c 1,5,6
 137 -9 137 -9 106 27.5 c 128,-1,7
 75 64 75 64 75 129 c 0,8,9
 75 167 75 167 96 322 c 1,10,11
 133 579 133 579 133 720 c 0,12,13
 133 750 133 750 129 802 c 1,14,15
 205 798 205 798 240 778 c 0,16,17
 255 770 255 770 263 753.5 c 128,-1,0
 271 737 271 737 272.5 723 c 128,-1,1
EndSplineSet
EndChar

StartChar: J
Encoding: 74 74 45
Width: 518
GlyphClass: 2
Flags: W
LayerCount: 2
Fore
SplineSet
237 163.5 m 128,-1,1
 244 212 244 212 247.5 246.5 c 128,-1,2
 251 281 251 281 254 332.5 c 128,-1,3
 257 384 257 384 259 426 c 0,4,5
 267 594 267 594 270 645 c 1,6,7
 246 643 246 643 209 643 c 0,8,9
 149 643 149 643 149 721 c 0,10,11
 149 755 149 755 155 781 c 1,12,13
 231 763 231 763 337 763 c 128,-1,14
 443 763 443 763 558 799 c 1,15,16
 552 738 552 738 515 704.5 c 128,-1,17
 478 671 478 671 440 664 c 2,18,-1
 409 658 l 1,19,20
 390 459 390 459 382 348 c 128,-1,21
 374 237 374 237 357.5 172 c 128,-1,22
 341 107 341 107 318 68 c 128,-1,23
 295 29 295 29 264 5 c 128,-1,24
 233 -19 233 -19 202 -27.5 c 128,-1,25
 171 -36 171 -36 133 -36 c 0,26,27
 40 -36 40 -36 -9 18 c 128,-1,28
 -58 72 -58 72 -58 133.5 c 128,-1,29
 -58 195 -58 195 -24.5 230.5 c 128,-1,30
 9 266 9 266 71 266 c 0,31,32
 102 266 102 266 129 250 c 1,33,34
 103 228 103 228 88.5 193 c 128,-1,35
 74 158 74 158 74 122 c 128,-1,36
 74 86 74 86 92.5 61 c 128,-1,37
 111 36 111 36 148 36 c 128,-1,38
 185 36 185 36 207.5 75.5 c 128,-1,0
 230 115 230 115 237 163.5 c 128,-1,1
EndSplineSet
EndChar

StartChar: K
Encoding: 75 75 46
Width: 671
GlyphClass: 2
Flags: W
LayerCount: 2
Fore
SplineSet
272.5 723 m 128,-1,1
 274 709 274 709 274 672 c 128,-1,2
 274 635 274 635 249 464 c 1,3,-1
 240 406 l 1,4,5
 375 517 375 517 468 621.5 c 128,-1,6
 561 726 561 726 599 799 c 1,7,8
 632 741 632 741 632 685.5 c 128,-1,9
 632 630 632 630 575.5 572 c 128,-1,10
 519 514 519 514 405 430 c 1,11,12
 475 209 475 209 562 88 c 0,13,14
 599 37 599 37 656 -23 c 1,15,16
 619 -33 619 -33 582 -33 c 128,-1,17
 545 -33 545 -33 506 -10 c 128,-1,18
 467 13 467 13 438.5 46 c 128,-1,19
 410 79 410 79 380 134 c 0,20,21
 337 215 337 215 287 347 c 1,22,23
 259 326 259 326 226 304 c 1,24,25
 208 155 208 155 208 78.5 c 128,-1,26
 208 2 208 2 222 -31 c 1,27,28
 137 -9 137 -9 106 27.5 c 128,-1,29
 75 64 75 64 75 129 c 0,30,31
 75 167 75 167 96 322 c 1,32,33
 133 579 133 579 133 720 c 0,34,35
 133 750 133 750 129 802 c 1,36,37
 205 798 205 798 240 778 c 0,38,39
 255 770 255 770 263 753.5 c 128,-1,0
 271 737 271 737 272.5 723 c 128,-1,1
EndSplineSet
EndChar

StartChar: L
Encoding: 76 76 47
Width: 547
GlyphClass: 2
Flags: W
LayerCount: 2
Fore
SplineSet
89 76 m 1,0,1
 84 96 84 96 84 131.5 c 128,-1,2
 84 167 84 167 105 322 c 1,3,4
 142 579 142 579 142 720 c 0,5,6
 142 750 142 750 138 802 c 1,7,8
 214 798 214 798 249 778 c 0,9,10
 264 770 264 770 272 753.5 c 128,-1,11
 280 737 280 737 281.5 723 c 128,-1,12
 283 709 283 709 283 672 c 128,-1,13
 283 635 283 635 252.5 429.5 c 128,-1,14
 222 224 222 224 217 106 c 1,15,16
 454 106 454 106 568 144 c 1,17,18
 559 70 559 70 523 29 c 128,-1,19
 487 -12 487 -12 433 -12 c 0,20,21
 417 -12 417 -12 343.5 -3.5 c 128,-1,22
 270 5 270 5 188 5 c 128,-1,23
 106 5 106 5 28 -12 c 1,24,25
 43 46 43 46 89 76 c 1,0,1
EndSplineSet
EndChar

StartChar: M
Encoding: 77 77 48
Width: 927
GlyphClass: 2
Flags: W
LayerCount: 2
Fore
SplineSet
483 188 m 1,0,1
 447 174 447 174 427 174 c 0,2,3
 367 174 367 174 360 191 c 0,4,5
 260 448 260 448 228 522 c 1,6,7
 225 495 225 495 212 397 c 0,8,9
 185 205 185 205 185 78 c 0,10,11
 185 47 185 47 189 -5 c 1,12,13
 119 -5 119 -5 94.5 11.5 c 128,-1,14
 70 28 70 28 70 58 c 0,15,16
 70 68 70 68 103.5 330 c 128,-1,17
 137 592 137 592 137 695 c 2,18,-1
 137 700 l 1,19,20
 108 747 108 747 76 777 c 1,21,22
 113 803 113 803 165 803 c 0,23,24
 231 803 231 803 267 741.5 c 128,-1,25
 303 680 303 680 408 404 c 1,26,-1
 454 286 l 1,27,28
 460 296 460 296 472 313 c 0,29,30
 716 674 716 674 723 803 c 1,31,32
 723 802 723 802 747 800.5 c 128,-1,33
 771 799 771 799 798.5 790.5 c 128,-1,34
 826 782 826 782 838.5 764.5 c 128,-1,35
 851 747 851 747 854 730.5 c 128,-1,36
 857 714 857 714 857 674.5 c 128,-1,37
 857 635 857 635 824 409 c 128,-1,38
 791 183 791 183 791 92.5 c 128,-1,39
 791 2 791 2 805 -31 c 1,40,41
 720 -9 720 -9 689 27.5 c 128,-1,42
 658 64 658 64 658 129 c 0,43,44
 658 167 658 167 678.5 316 c 128,-1,45
 699 465 699 465 707 554 c 1,46,47
 667 485 667 485 593.5 365 c 128,-1,48
 520 245 520 245 505 222.5 c 128,-1,49
 490 200 490 200 483 188 c 1,0,1
EndSplineSet
EndChar

StartChar: N
Encoding: 78 78 49
Width: 821
GlyphClass: 2
Flags: W
LayerCount: 2
Fore
SplineSet
202 232 m 128,-1,1
 195 155 195 155 195 101 c 128,-1,2
 195 47 195 47 199 -5 c 1,3,4
 129 -5 129 -5 104.5 11.5 c 128,-1,5
 80 28 80 28 80 58 c 0,6,7
 80 67 80 67 113 326.5 c 128,-1,8
 146 586 146 586 147 690 c 1,9,-1
 138 703 l 2,10,11
 113 740 113 740 72 765 c 0,12,13
 62 771 62 771 60 773 c 1,14,15
 108 802 108 802 152 802 c 0,16,17
 240 802 240 802 281 744.5 c 128,-1,18
 322 687 322 687 434 461 c 0,19,20
 446 436 446 436 470.5 385.5 c 128,-1,21
 495 335 495 335 510 304 c 0,22,23
 545 229 545 229 585 163 c 1,24,25
 588 202 588 202 612.5 402.5 c 128,-1,26
 637 603 637 603 637 720 c 0,27,28
 637 751 637 751 633 801 c 1,29,30
 703 801 703 801 727 785 c 128,-1,31
 751 769 751 769 751 740 c 0,32,33
 751 729 751 729 718 461 c 128,-1,34
 685 193 685 193 685 90 c 0,35,36
 685 53 685 53 687 36 c 1,37,38
 695 29 695 29 713 19 c 1,39,40
 651 -21 651 -21 598 -21 c 128,-1,41
 545 -21 545 -21 506 38 c 0,42,43
 488 64 488 64 385.5 260.5 c 128,-1,44
 283 457 283 457 240 534 c 1,45,46
 236 500 236 500 222.5 404.5 c 128,-1,0
 209 309 209 309 202 232 c 128,-1,1
EndSplineSet
EndChar

StartChar: O
Encoding: 79 79 50
Width: 802
GlyphClass: 2
Flags: W
LayerCount: 2
Fore
SplineSet
562.5 653 m 128,-1,1
 524 716 524 716 457.5 716 c 128,-1,2
 391 716 391 716 331.5 657.5 c 128,-1,3
 272 599 272 599 238.5 510 c 128,-1,4
 205 421 205 421 205 330 c 0,5,6
 205 205 205 205 246.5 125 c 128,-1,7
 288 45 288 45 372 45 c 0,8,9
 442 45 442 45 495.5 106.5 c 128,-1,10
 549 168 549 168 575 259 c 128,-1,11
 601 350 601 350 601 450 c 0,12,0
 601 590 601 590 562.5 653 c 128,-1,1
506.5 5 m 128,-1,14
 439 -25 439 -25 359 -25 c 128,-1,15
 279 -25 279 -25 218.5 11 c 128,-1,16
 158 47 158 47 122 107 c 0,17,18
 50 227 50 227 50 387 c 128,-1,19
 50 547 50 547 129.5 672 c 128,-1,20
 209 797 209 797 342 830 c 1,21,22
 350 828 350 828 357.5 822 c 128,-1,23
 365 816 365 816 366 809 c 1,24,25
 237 715 237 715 210 553 c 1,26,27
 252 671 252 671 336.5 737.5 c 128,-1,28
 421 804 421 804 518 804 c 128,-1,29
 615 804 615 804 683.5 720.5 c 128,-1,30
 752 637 752 637 752 479 c 0,31,32
 752 324 752 324 694 200 c 0,33,34
 664 134 664 134 619 84.5 c 128,-1,13
 574 35 574 35 506.5 5 c 128,-1,14
EndSplineSet
EndChar

StartChar: P
Encoding: 80 80 51
Width: 621
GlyphClass: 2
Flags: W
LayerCount: 2
Fore
SplineSet
105 3 m 128,-1,1
 80 23 80 23 80 70 c 128,-1,2
 80 117 80 117 113.5 354.5 c 128,-1,3
 147 592 147 592 147 693.5 c 128,-1,4
 147 795 147 795 133 826 c 1,5,6
 235 818 235 818 267 746 c 1,7,8
 344 788 344 788 436.5 788 c 128,-1,9
 529 788 529 788 582.5 730.5 c 128,-1,10
 636 673 636 673 636 589 c 0,11,12
 636 485 636 485 560 401 c 0,13,14
 523 361 523 361 464.5 336 c 128,-1,15
 406 311 406 311 335 311 c 0,16,17
 305 311 305 311 278 315 c 1,18,-1
 275 357 l 1,19,20
 279 357 279 357 283 357 c 0,21,22
 396 357 396 357 463 441 c 1,23,24
 509 501 509 501 509 567 c 0,25,26
 509 664 509 664 430 695 c 1,27,28
 363 720 363 720 280 685 c 1,29,-1
 280 683 l 2,30,31
 280 645 280 645 251.5 434.5 c 128,-1,32
 223 224 223 224 223 83 c 0,33,34
 223 20 223 20 229 -15 c 1,35,36
 197 -17 197 -17 187 -17 c 0,37,0
 130 -17 130 -17 105 3 c 128,-1,1
EndSplineSet
EndChar

StartChar: Q
Encoding: 81 81 52
Width: 787
GlyphClass: 2
Flags: W
LayerCount: 2
Fore
SplineSet
186 -46 m 2,0,-1
 187 -46 l 1,1,2
 281 -35 281 -35 355.5 2 c 128,-1,3
 430 39 430 39 475.5 88.5 c 128,-1,4
 521 138 521 138 551 200 c 0,5,6
 604 311 604 311 604 437 c 0,7,8
 604 604 604 604 534 678 c 0,9,10
 497 717 497 717 438 717 c 128,-1,11
 379 717 379 717 324 660 c 128,-1,12
 269 603 269 603 238.5 517 c 128,-1,13
 208 431 208 431 208 341 c 0,14,15
 208 163 208 163 285 163 c 0,16,17
 318 163 318 163 338.5 191.5 c 128,-1,18
 359 220 359 220 359 266 c 128,-1,19
 359 312 359 312 346.5 341 c 128,-1,20
 334 370 334 370 322 381 c 2,21,-1
 309 392 l 1,22,23
 340 404 340 404 381.5 404 c 128,-1,24
 423 404 423 404 463 373.5 c 128,-1,25
 503 343 503 343 503 279 c 0,26,27
 503 182 503 182 439.5 125.5 c 128,-1,28
 376 69 376 69 290 69 c 128,-1,29
 204 69 204 69 135.5 141.5 c 128,-1,30
 67 214 67 214 67 346 c 0,31,32
 67 474 67 474 129 588 c 0,33,34
 162 648 162 648 210 695 c 128,-1,35
 258 742 258 742 330.5 771 c 128,-1,36
 403 800 403 800 491 800 c 0,37,38
 601 800 601 800 676.5 716 c 128,-1,39
 752 632 752 632 752 475 c 0,40,41
 752 336 752 336 696 216 c 1,42,43
 664 150 664 150 616 95.5 c 128,-1,44
 568 41 568 41 490 -4.5 c 128,-1,45
 412 -50 412 -50 313 -74 c 1,46,47
 699 -195 699 -195 789 -195 c 1,48,49
 765 -252 765 -252 728.5 -282 c 128,-1,50
 692 -312 692 -312 652 -312 c 128,-1,51
 612 -312 612 -312 458 -242.5 c 128,-1,52
 304 -173 304 -173 247 -156 c 0,53,54
 132 -121 132 -121 53 -119 c 1,55,56
 96 -46 96 -46 186 -46 c 2,0,-1
EndSplineSet
EndChar

StartChar: R
Encoding: 82 82 53
Width: 675
GlyphClass: 2
Flags: W
LayerCount: 2
Fore
SplineSet
100 3 m 128,-1,1
 75 23 75 23 75 70 c 128,-1,2
 75 117 75 117 108.5 354.5 c 128,-1,3
 142 592 142 592 142 693.5 c 128,-1,4
 142 795 142 795 128 826 c 1,5,6
 229 818 229 818 262 747 c 1,7,8
 334 787 334 787 425.5 787 c 128,-1,9
 517 787 517 787 575.5 734.5 c 128,-1,10
 634 682 634 682 634 613 c 128,-1,11
 634 544 634 544 587 475.5 c 128,-1,12
 540 407 540 407 447 372 c 1,13,-1
 460 333 l 1,14,15
 496 221 496 221 564 111.5 c 128,-1,16
 632 2 632 2 675 -38 c 1,17,18
 638 -48 638 -48 601.5 -48 c 128,-1,19
 565 -48 565 -48 528 -24.5 c 128,-1,20
 491 -1 491 -1 466.5 27 c 128,-1,21
 442 55 442 55 412 116 c 128,-1,22
 382 177 382 177 369 211 c 128,-1,23
 356 245 356 245 340.5 286 c 128,-1,24
 325 327 325 327 324 330 c 128,-1,25
 323 333 323 333 321 337.5 c 128,-1,26
 319 342 319 342 318 346 c 1,27,28
 296 346 296 346 275 346 c 1,29,-1
 272 392 l 1,30,31
 399 397 399 397 461 483 c 0,32,33
 495 531 495 531 495 581 c 0,34,35
 495 600 495 600 491 618 c 0,36,37
 474 683 474 683 410 699 c 0,38,39
 392 704 392 704 360 704 c 128,-1,40
 328 704 328 704 275 683 c 1,41,42
 275 645 275 645 246.5 434.5 c 128,-1,43
 218 224 218 224 218 83 c 0,44,45
 218 20 218 20 224 -15 c 1,46,47
 192 -17 192 -17 182 -17 c 0,48,0
 125 -17 125 -17 100 3 c 128,-1,1
EndSplineSet
EndChar

StartChar: S
Encoding: 83 83 54
Width: 629
GlyphClass: 2
Flags: W
LayerCount: 2
Fore
SplineSet
260 710.5 m 128,-1,1
 230 683 230 683 230 633 c 128,-1,2
 230 583 230 583 255.5 543.5 c 128,-1,3
 281 504 281 504 318.5 476.5 c 128,-1,4
 356 449 356 449 400.5 417 c 128,-1,5
 445 385 445 385 482.5 356.5 c 128,-1,6
 520 328 520 328 545.5 286 c 128,-1,7
 571 244 571 244 571 197 c 0,8,9
 571 104 571 104 495 39.5 c 128,-1,10
 419 -25 419 -25 295.5 -25 c 128,-1,11
 172 -25 172 -25 100 28 c 128,-1,12
 28 81 28 81 28 148 c 128,-1,13
 28 215 28 215 68 252.5 c 128,-1,14
 108 290 108 290 171 290 c 0,15,16
 189 290 189 290 205 286 c 1,17,18
 174 240 174 240 174 186.5 c 128,-1,19
 174 133 174 133 207 94.5 c 128,-1,20
 240 56 240 56 294.5 56 c 128,-1,21
 349 56 349 56 386 84.5 c 128,-1,22
 423 113 423 113 423 157.5 c 128,-1,23
 423 202 423 202 398 236 c 128,-1,24
 373 270 373 270 336 294.5 c 128,-1,25
 299 319 299 319 255 350.5 c 128,-1,26
 211 382 211 382 174 414 c 128,-1,27
 137 446 137 446 112 495.5 c 128,-1,28
 87 545 87 545 87 604 c 0,29,30
 87 699 87 699 156 755.5 c 128,-1,31
 225 812 225 812 342 812 c 128,-1,32
 459 812 459 812 519.5 759.5 c 128,-1,33
 580 707 580 707 580 647.5 c 128,-1,34
 580 588 580 588 542 547.5 c 128,-1,35
 504 507 504 507 439 507 c 0,36,37
 417 507 417 507 396 511 c 1,38,39
 445 563 445 563 445 620.5 c 128,-1,40
 445 678 445 678 413 708 c 128,-1,41
 381 738 381 738 335.5 738 c 128,-1,0
 290 738 290 738 260 710.5 c 128,-1,1
EndSplineSet
EndChar

StartChar: T
Encoding: 84 84 55
Width: 543
GlyphClass: 2
Flags: W
LayerCount: 2
Fore
SplineSet
28 781 m 1,0,1
 136 763 136 763 287 763 c 128,-1,2
 438 763 438 763 603 799 c 1,3,4
 586 672 586 672 474 660 c 1,5,6
 439 655 439 655 366 650 c 1,7,8
 364 621 364 621 333 396.5 c 128,-1,9
 302 172 302 172 302 87 c 128,-1,10
 302 2 302 2 316 -31 c 1,11,12
 231 -9 231 -9 200 27.5 c 128,-1,13
 169 64 169 64 169 118 c 128,-1,14
 169 172 169 172 194.5 352.5 c 128,-1,15
 220 533 220 533 225 643 c 1,16,17
 144 639 144 639 66 639 c 0,18,19
 20 639 20 639 20 721 c 1,20,21
 22 760 22 760 28 781 c 1,0,1
EndSplineSet
EndChar

StartChar: U
Encoding: 85 85 56
Width: 755
GlyphClass: 2
Flags: W
LayerCount: 2
Fore
SplineSet
683.5 723 m 128,-1,1
 685 709 685 709 685 672 c 128,-1,2
 685 635 685 635 652 409 c 128,-1,3
 619 183 619 183 619 92.5 c 128,-1,4
 619 2 619 2 633 -31 c 1,5,6
 548 -9 548 -9 517 27.5 c 128,-1,7
 486 64 486 64 486 129 c 0,8,9
 486 149 486 149 487 160 c 1,10,11
 396 -20 396 -20 238 -20 c 0,12,13
 154 -20 154 -20 112 37.5 c 128,-1,14
 70 95 70 95 70 220 c 0,15,16
 70 291 70 291 92.5 476 c 128,-1,17
 115 661 115 661 115 716.5 c 128,-1,18
 115 772 115 772 104 802 c 1,19,20
 187 781 187 781 218.5 746.5 c 128,-1,21
 250 712 250 712 250 649.5 c 128,-1,22
 250 587 250 587 230 450.5 c 128,-1,23
 210 314 210 314 210 230.5 c 128,-1,24
 210 147 210 147 234 112 c 128,-1,25
 258 77 258 77 301 77 c 0,26,27
 352 77 352 77 400 122 c 0,28,29
 498 215 498 215 528 479 c 1,30,-1
 528 481 l 1,31,32
 544 620 544 620 544 685 c 128,-1,33
 544 750 544 750 540 802 c 1,34,35
 616 798 616 798 651 778 c 0,36,37
 666 770 666 770 674 753.5 c 128,-1,0
 682 737 682 737 683.5 723 c 128,-1,1
EndSplineSet
EndChar

StartChar: V
Encoding: 86 86 57
Width: 661
GlyphClass: 2
Flags: W
LayerCount: 2
Fore
SplineSet
302 -8.5 m 128,-1,1
 270 -14 270 -14 243.5 -14 c 128,-1,2
 217 -14 217 -14 213 1 c 0,3,4
 195 63 195 63 159 243.5 c 128,-1,5
 123 424 123 424 86.5 571 c 128,-1,6
 50 718 50 718 16 766 c 1,7,8
 71 792 71 792 103 792 c 128,-1,9
 135 792 135 792 149 785 c 128,-1,10
 163 778 163 778 176.5 754 c 128,-1,11
 190 730 190 730 200 690 c 0,12,13
 215 630 215 630 237 512 c 128,-1,14
 259 394 259 394 262 382 c 0,15,16
 297 204 297 204 308 138 c 1,17,18
 373 277 373 277 452 507.5 c 128,-1,19
 531 738 531 738 531 807 c 1,20,21
 644 788 644 788 644 733 c 0,22,23
 644 692 644 692 587.5 559.5 c 128,-1,24
 531 427 531 427 451.5 254.5 c 128,-1,25
 372 82 372 82 342 0 c 1,26,0
 334 -3 334 -3 302 -8.5 c 128,-1,1
EndSplineSet
EndChar

StartChar: W
Encoding: 87 87 58
Width: 983
GlyphClass: 2
Flags: W
LayerCount: 2
Fore
SplineSet
631.5 -8.5 m 128,-1,1
 600 -14 600 -14 572.5 -14 c 128,-1,2
 545 -14 545 -14 545 1 c 1,3,4
 532 54 532 54 481 380 c 1,5,6
 343 73 343 73 317 0 c 1,7,8
 310 -3 310 -3 278 -8.5 c 128,-1,9
 246 -14 246 -14 219 -14 c 128,-1,10
 192 -14 192 -14 192 1 c 1,11,12
 177 64 177 64 150 244 c 128,-1,13
 123 424 123 424 94 571 c 128,-1,14
 65 718 65 718 34 766 c 1,15,16
 89 792 89 792 124.5 792 c 128,-1,17
 160 792 160 792 176 779 c 128,-1,18
 192 766 192 766 205.5 722.5 c 128,-1,19
 219 679 219 679 230 601.5 c 128,-1,20
 241 524 241 524 249.5 455.5 c 128,-1,21
 258 387 258 387 258 386 c 128,-1,22
 258 385 258 385 259 376.5 c 128,-1,23
 260 368 260 368 274.5 267.5 c 128,-1,24
 289 167 289 167 293 138 c 1,25,26
 370 303 370 303 452 546 c 1,27,28
 420 712 420 712 387 766 c 1,29,30
 442 792 442 792 477.5 792 c 128,-1,31
 513 792 513 792 529 779 c 128,-1,32
 545 766 545 766 558.5 722.5 c 128,-1,33
 572 679 572 679 583 601.5 c 128,-1,34
 594 524 594 524 602.5 455.5 c 128,-1,35
 611 387 611 387 611 386 c 128,-1,36
 611 385 611 385 612 376.5 c 128,-1,37
 613 368 613 368 627.5 267.5 c 128,-1,38
 642 167 642 167 646 138 c 1,39,40
 716 320 716 320 788 531 c 128,-1,41
 860 742 860 742 864 807 c 1,42,43
 972 785 972 785 972 737 c 0,44,45
 972 672 972 672 766 220 c 0,46,47
 686 43 686 43 670 0 c 1,48,0
 663 -3 663 -3 631.5 -8.5 c 128,-1,1
EndSplineSet
EndChar

StartChar: X
Encoding: 88 88 59
Width: 671
GlyphClass: 2
Flags: W
LayerCount: 2
Fore
SplineSet
571 -33 m 0,0,1
 489 -33 489 -33 424 53 c 128,-1,2
 359 139 359 139 293 296 c 1,3,4
 156 137 156 137 99 -31 c 1,5,6
 17 22 17 22 16 80 c 128,-1,7
 15 138 15 138 75 212 c 128,-1,8
 135 286 135 286 252 398 c 1,9,10
 246 414 246 414 230 454 c 128,-1,11
 214 494 214 494 202 524.5 c 128,-1,12
 190 555 190 555 184.5 567 c 128,-1,13
 179 579 179 579 168 605 c 128,-1,14
 157 631 157 631 150 644.5 c 128,-1,15
 143 658 143 658 132.5 680 c 128,-1,16
 122 702 122 702 114 716 c 0,17,18
 89 757 89 757 75 776 c 1,19,20
 132 803 132 803 168 803 c 128,-1,21
 204 803 204 803 225.5 784.5 c 128,-1,22
 247 766 247 766 272.5 711.5 c 128,-1,23
 298 657 298 657 309 629 c 128,-1,24
 320 601 320 601 337.5 551.5 c 128,-1,25
 355 502 355 502 357 497 c 1,26,27
 458 596 458 596 515 671 c 128,-1,28
 572 746 572 746 575 809 c 1,29,30
 615 792 615 792 635 765 c 128,-1,31
 655 738 655 738 655 713.5 c 128,-1,32
 655 689 655 689 642.5 661.5 c 128,-1,33
 630 634 630 634 600.5 601 c 128,-1,34
 571 568 571 568 545.5 543 c 128,-1,35
 520 518 520 518 471 473 c 128,-1,36
 422 428 422 428 393 400 c 1,37,38
 505 110 505 110 635 -28 c 1,39,40
 609 -33 609 -33 571 -33 c 0,0,1
EndSplineSet
EndChar

StartChar: Y
Encoding: 89 89 60
Width: 565
GlyphClass: 2
Flags: W
LayerCount: 2
Fore
SplineSet
327 283 m 1,0,1
 311 148 311 148 311 75 c 128,-1,2
 311 2 311 2 325 -31 c 1,3,4
 240 -9 240 -9 209 27.5 c 128,-1,5
 178 64 178 64 178 119.5 c 128,-1,6
 178 175 178 175 193 278 c 1,7,8
 86 660 86 660 8 777 c 1,9,10
 49 803 49 803 94 803 c 0,11,12
 118 803 118 803 134.5 798.5 c 128,-1,13
 151 794 151 794 167 778 c 128,-1,14
 183 762 183 762 194.5 737 c 128,-1,15
 206 712 206 712 220 664 c 1,16,17
 244 588 244 588 281 404 c 1,18,-1
 288 365 l 1,19,20
 380 508 380 508 437.5 635 c 128,-1,21
 495 762 495 762 505 833 c 1,22,23
 580 791 580 791 580 719.5 c 128,-1,24
 580 648 580 648 327 283 c 1,0,1
EndSplineSet
EndChar

StartChar: Z
Encoding: 90 90 61
Width: 621
GlyphClass: 2
Flags: W
LayerCount: 2
Fore
SplineSet
113 784 m 1,0,1
 236 767 236 767 363 767 c 128,-1,2
 490 767 490 767 543 773 c 1,3,4
 560 813 560 813 565 838 c 1,5,6
 631 772 631 772 631 706 c 0,7,8
 631 641 631 641 530 516 c 0,9,10
 483 457 483 457 431 396 c 0,11,12
 287 229 287 229 208 106 c 1,13,-1
 223 106 l 2,14,15
 466 106 466 106 582 144 c 1,16,17
 573 70 573 70 537 29 c 128,-1,18
 501 -12 501 -12 447 -12 c 0,19,20
 419 -12 419 -12 331 -1 c 128,-1,21
 243 10 243 10 150 10 c 128,-1,22
 57 10 57 10 -21 -10 c 1,23,24
 -1 67 -1 67 74 94 c 1,25,26
 362 434 362 434 499 683 c 1,27,28
 238 627 238 627 153 627 c 0,29,30
 105 627 105 627 105 719 c 1,31,32
 107 765 107 765 113 784 c 1,0,1
EndSplineSet
EndChar

StartChar: bracketleft
Encoding: 91 91 62
Width: 379
GlyphClass: 2
Flags: W
LayerCount: 2
Fore
SplineSet
262 -139 m 2,0,1
 115 -139 115 -139 115 -74 c 0,2,3
 115 -54 115 -54 120 -4 c 0,4,5
 150 295 150 295 159 472 c 128,-1,6
 168 649 168 649 172 713 c 0,7,8
 176 783 176 783 329 783 c 1,9,-1
 326 766 l 1,10,-1
 329 783 l 1,11,-1
 399 783 l 2,12,13
 435 783 435 783 439 709 c 1,14,15
 381 714 381 714 318 715 c 1,16,17
 284 484 284 484 272.5 327.5 c 128,-1,18
 261 171 261 171 261 -61 c 2,19,-1
 261 -71 l 1,20,21
 318 -70 318 -70 372 -65 c 1,22,23
 368 -139 368 -139 332 -139 c 2,24,-1
 262 -139 l 2,0,1
EndSplineSet
EndChar

StartChar: backslash
Encoding: 92 92 63
Width: 376
GlyphClass: 2
Flags: W
LayerCount: 2
Fore
SplineSet
322 151.5 m 128,-1,1
 405 -41 405 -41 405 -82.5 c 128,-1,2
 405 -124 405 -124 376.5 -148 c 128,-1,3
 348 -172 348 -172 320 -177 c 2,4,-1
 291 -182 l 1,5,6
 277 -80 277 -80 194.5 137.5 c 128,-1,7
 112 355 112 355 37 541 c 128,-1,8
 -38 727 -38 727 -38 761.5 c 128,-1,9
 -38 796 -38 796 -18 822 c 128,-1,10
 2 848 2 848 22 858 c 2,11,-1
 41 868 l 1,12,13
 56 779 56 779 147.5 561.5 c 128,-1,0
 239 344 239 344 322 151.5 c 128,-1,1
EndSplineSet
EndChar

StartChar: bracketright
Encoding: 93 93 64
Width: 379
GlyphClass: 2
Flags: W
LayerCount: 2
Fore
SplineSet
117 783 m 2,0,1
 264 783 264 783 264 718 c 0,2,3
 264 698 264 698 259 648 c 0,4,5
 229 349 229 349 220 172 c 128,-1,6
 211 -5 211 -5 207 -69 c 0,7,8
 203 -139 203 -139 50 -139 c 2,9,-1
 -20 -139 l 2,10,11
 -56 -139 -56 -139 -60 -65 c 1,12,13
 -1 -70 -1 -70 61 -71 c 1,14,15
 93 157 93 157 105.5 315 c 128,-1,16
 118 473 118 473 118 705 c 2,17,-1
 118 715 l 1,18,19
 62 714 62 714 7 709 c 1,20,21
 11 783 11 783 47 783 c 2,22,-1
 117 783 l 2,0,1
50 -139 m 1,23,-1
 55 -109 l 1,24,-1
 50 -139 l 1,23,-1
55 -109 m 2,25,-1
 57 -99 l 2,26,27
 55 -105 55 -105 55 -109 c 2,25,-1
EndSplineSet
EndChar

StartChar: asciicircum
Encoding: 94 94 65
Width: 620
GlyphClass: 2
Flags: W
LayerCount: 2
Fore
SplineSet
301 759 m 1,0,1
 338 776 338 776 381 776 c 128,-1,2
 424 776 424 776 428 758 c 0,3,4
 459 613 459 613 488.5 527.5 c 128,-1,5
 518 442 518 442 569 352 c 1,6,7
 540 327 540 327 473 327 c 0,8,9
 423 327 423 327 393 401 c 128,-1,10
 363 475 363 475 332 674 c 1,11,12
 218 494 218 494 149 328 c 1,13,14
 105 341 105 341 88 359 c 128,-1,15
 71 377 71 377 71 409.5 c 128,-1,16
 71 442 71 442 129.5 528.5 c 128,-1,17
 188 615 188 615 301 759 c 1,0,1
EndSplineSet
EndChar

StartChar: underscore
Encoding: 95 95 66
Width: 463
GlyphClass: 2
Flags: W
LayerCount: 2
Fore
SplineSet
250.5 0 m 128,-1,1
 323 7 323 7 374 7 c 128,-1,2
 425 7 425 7 444 -20.5 c 128,-1,3
 463 -48 463 -48 463 -102 c 0,4,5
 463 -106 463 -106 462.5 -113.5 c 128,-1,6
 462 -121 462 -121 462 -125 c 1,7,8
 392 -114 392 -114 338.5 -114 c 128,-1,9
 285 -114 285 -114 212.5 -121 c 128,-1,10
 140 -128 140 -128 89 -128 c 128,-1,11
 38 -128 38 -128 19 -100.5 c 128,-1,12
 0 -73 0 -73 0 -19 c 0,13,14
 0 -15 0 -15 0.5 -7.5 c 128,-1,15
 1 0 1 0 1 4 c 1,16,17
 71 -7 71 -7 124.5 -7 c 128,-1,0
 178 -7 178 -7 250.5 0 c 128,-1,1
EndSplineSet
EndChar

StartChar: grave
Encoding: 96 96 67
Width: 372
GlyphClass: 2
Flags: W
LayerCount: 2
Fore
SplineSet
352 652 m 1,0,1
 350 641 350 641 338 631.5 c 128,-1,2
 326 622 326 622 310 619 c 1,3,4
 272 662 272 662 211.5 702.5 c 128,-1,5
 151 743 151 743 88 760 c 1,6,7
 91 829 91 829 151 867 c 1,8,9
 207 844 207 844 266 778.5 c 128,-1,10
 325 713 325 713 352 652 c 1,0,1
EndSplineSet
EndChar

StartChar: a
Encoding: 97 97 68
Width: 635
GlyphClass: 2
Flags: W
LayerCount: 2
Fore
SplineSet
186 189 m 0,0,1
 186 142 186 142 203.5 112.5 c 128,-1,2
 221 83 221 83 253 83 c 0,3,4
 300 83 300 83 342.5 138 c 128,-1,5
 385 193 385 193 410.5 279 c 128,-1,6
 436 365 436 365 436 442.5 c 128,-1,7
 436 520 436 520 430 568 c 1,8,9
 460 570 460 570 472 570 c 0,10,11
 523 570 523 570 549 551 c 128,-1,12
 575 532 575 532 575 483 c 0,13,14
 575 464 575 464 551 328.5 c 128,-1,15
 527 193 527 193 527 111.5 c 128,-1,16
 527 30 527 30 558 -33 c 1,17,18
 483 -20 483 -20 448 22.5 c 128,-1,19
 413 65 413 65 413 145 c 0,20,21
 413 159 413 159 417 199 c 1,22,23
 390 104 390 104 321 46 c 128,-1,24
 252 -12 252 -12 185.5 -12 c 128,-1,25
 119 -12 119 -12 78.5 37.5 c 128,-1,26
 38 87 38 87 38 178 c 128,-1,27
 38 269 38 269 70.5 354.5 c 128,-1,28
 103 440 103 440 168 499.5 c 128,-1,29
 233 559 233 559 313 559 c 0,30,31
 359 559 359 559 407 537 c 1,32,33
 306 501 306 501 246 395.5 c 128,-1,34
 186 290 186 290 186 189 c 0,0,1
EndSplineSet
EndChar

StartChar: b
Encoding: 98 98 69
Width: 641
GlyphClass: 2
Flags: W
LayerCount: 2
Fore
SplineSet
241.5 888.5 m 128,-1,1
 268 839 268 839 268 779 c 128,-1,2
 268 719 268 719 249 574.5 c 128,-1,3
 230 430 230 430 223 344 c 1,4,5
 253 451 253 451 308.5 514 c 128,-1,6
 364 577 364 577 428 577 c 128,-1,7
 492 577 492 577 538.5 516 c 128,-1,8
 585 455 585 455 585 360 c 0,9,10
 585 213 585 213 506.5 106.5 c 128,-1,11
 428 0 428 0 327 0 c 0,12,13
 292 0 292 0 257 16 c 1,14,15
 300 28 300 28 335 65 c 128,-1,16
 370 102 370 102 392 150 c 0,17,18
 437 250 437 250 437 350 c 0,19,20
 437 399 437 399 418.5 436 c 128,-1,21
 400 473 400 473 369 473 c 0,22,23
 319 473 319 473 267.5 371 c 128,-1,24
 216 269 216 269 213 117 c 1,25,-1
 213 98 l 1,26,27
 215 63 215 63 230 -18 c 1,28,29
 86 15 86 15 86 189 c 0,30,31
 86 260 86 260 119.5 475 c 128,-1,32
 153 690 153 690 153 789 c 128,-1,33
 153 888 153 888 144 957 c 1,34,0
 215 938 215 938 241.5 888.5 c 128,-1,1
EndSplineSet
EndChar

StartChar: c
Encoding: 99 99 70
Width: 545
GlyphClass: 2
Flags: W
LayerCount: 2
Fore
SplineSet
193 226 m 0,0,1
 193 59 193 59 291 59 c 0,2,3
 329 59 329 59 368 85 c 128,-1,4
 407 111 407 111 436 157 c 1,5,6
 472 149 472 149 472 120 c 1,7,8
 430 47 430 47 369 16 c 128,-1,9
 308 -15 308 -15 247 -15 c 0,10,11
 165 -15 165 -15 107.5 45.5 c 128,-1,12
 50 106 50 106 50 221 c 0,13,14
 50 368 50 368 131 472.5 c 128,-1,15
 212 577 212 577 350 577 c 0,16,17
 427 577 427 577 466 539.5 c 128,-1,18
 505 502 505 502 505 450.5 c 128,-1,19
 505 399 505 399 473.5 361 c 128,-1,20
 442 323 442 323 393 323 c 0,21,22
 369 323 369 323 345 333 c 1,23,24
 360 350 360 350 373 386.5 c 128,-1,25
 386 423 386 423 386 454 c 0,26,27
 386 515 386 515 333 515 c 0,28,29
 271 515 271 515 232 424 c 128,-1,30
 193 333 193 333 193 226 c 0,0,1
EndSplineSet
EndChar

StartChar: d
Encoding: 100 100 71
Width: 616
GlyphClass: 2
Flags: W
LayerCount: 2
Fore
SplineSet
184 202 m 0,0,1
 184 83 184 83 256 83 c 0,2,3
 294 83 294 83 330 124 c 128,-1,4
 366 165 366 165 388.5 234 c 128,-1,5
 411 303 411 303 427.5 381.5 c 128,-1,6
 444 460 444 460 452 548 c 0,7,8
 466 718 466 718 466 813.5 c 128,-1,9
 466 909 466 909 458 957 c 1,10,11
 530 941 530 941 559 889 c 128,-1,12
 588 837 588 837 588 758 c 128,-1,13
 588 679 588 679 554.5 464 c 128,-1,14
 521 249 521 249 521 150 c 128,-1,15
 521 51 521 51 530 -18 c 1,16,17
 459 1 459 1 432.5 50.5 c 128,-1,18
 406 100 406 100 406 175 c 1,19,20
 375 89 375 89 313 39 c 128,-1,21
 251 -11 251 -11 185 -11 c 128,-1,22
 119 -11 119 -11 77.5 39.5 c 128,-1,23
 36 90 36 90 36 188 c 0,24,25
 36 343 36 343 121 454.5 c 128,-1,26
 206 566 206 566 322 566 c 0,27,28
 355 566 355 566 426 550 c 1,29,30
 364 534 364 534 315.5 494.5 c 128,-1,31
 267 455 267 455 240 404 c 1,32,33
 184 303 184 303 184 202 c 0,0,1
EndSplineSet
EndChar

StartChar: e
Encoding: 101 101 72
Width: 560
GlyphClass: 2
Flags: W
LayerCount: 2
Fore
SplineSet
291 246 m 0,0,1
 243 246 243 246 197 257 c 1,2,3
 196 247 196 247 196 226 c 0,4,5
 196 143 196 143 227 101 c 128,-1,6
 258 59 258 59 301 59 c 128,-1,7
 344 59 344 59 383 85 c 128,-1,8
 422 111 422 111 451 157 c 1,9,10
 487 149 487 149 487 120 c 1,11,12
 399 -15 399 -15 260 -15 c 0,13,14
 176 -15 176 -15 113 49.5 c 128,-1,15
 50 114 50 114 50 229 c 0,16,17
 50 315 50 315 83 392.5 c 128,-1,18
 116 470 116 470 188 523.5 c 128,-1,19
 260 577 260 577 347.5 577 c 128,-1,20
 435 577 435 577 476 537 c 128,-1,21
 517 497 517 497 517 432 c 0,22,23
 517 338 517 338 451.5 292 c 128,-1,24
 386 246 386 246 291 246 c 0,0,1
333 515 m 0,25,26
 282 515 282 515 247 452 c 128,-1,27
 212 389 212 389 201 299 c 1,28,-1
 216 299 l 2,29,30
 303 299 303 299 344.5 344 c 128,-1,31
 386 389 386 389 386 452 c 0,32,33
 386 478 386 478 372.5 496.5 c 128,-1,34
 359 515 359 515 333 515 c 0,25,26
EndSplineSet
EndChar

StartChar: f
Encoding: 102 102 73
Width: 408
GlyphClass: 2
Flags: W
LayerCount: 2
Fore
SplineSet
411 554 m 0,0,1
 411 506 411 506 394 487.5 c 128,-1,2
 377 469 377 469 334.5 469 c 128,-1,3
 292 469 292 469 269 470 c 1,4,5
 230 186 230 186 230 63 c 0,6,7
 230 4 230 4 232.5 -22.5 c 128,-1,8
 235 -49 235 -49 246 -113 c 1,9,10
 174 -90 174 -90 140 -38.5 c 128,-1,11
 106 13 106 13 106 83 c 0,12,13
 106 188 106 188 136 393 c 0,14,15
 143 445 143 445 145 462 c 1,16,17
 92 453 92 453 37 428 c 1,18,19
 35 450 35 450 35 461 c 0,20,21
 35 515 35 515 68 534 c 128,-1,22
 101 553 101 553 163 554 c 1,23,24
 183 652 183 652 216.5 723 c 128,-1,25
 250 794 250 794 290 830 c 0,26,27
 366 900 366 900 449 900 c 0,28,29
 505 900 505 900 543.5 866.5 c 128,-1,30
 582 833 582 833 582 784.5 c 128,-1,31
 582 736 582 736 549 700 c 128,-1,32
 516 664 516 664 462 664 c 0,33,34
 441 664 441 664 421 671 c 1,35,36
 437 683 437 683 452.5 713 c 128,-1,37
 468 743 468 743 468 769.5 c 128,-1,38
 468 796 468 796 456.5 811 c 128,-1,39
 445 826 445 826 426 826 c 0,40,41
 385 826 385 826 342.5 757.5 c 128,-1,42
 300 689 300 689 279 551 c 1,43,44
 368 551 368 551 409 584 c 1,45,46
 411 564 411 564 411 554 c 0,0,1
EndSplineSet
EndChar

StartChar: g
Encoding: 103 103 74
Width: 619
GlyphClass: 2
Flags: W
LayerCount: 2
Fore
SplineSet
371 567 m 0,0,1
 390 567 390 567 400 565 c 0,2,3
 426 560 426 560 428 528 c 1,4,5
 319 505 319 505 254.5 410 c 128,-1,6
 190 315 190 315 190 212 c 0,7,8
 190 92 190 92 263 92 c 0,9,10
 307 92 307 92 342 140 c 0,11,12
 404 227 404 227 429 412 c 0,13,14
 448 558 448 558 500 600 c 0,15,16
 525 621 525 621 562 633 c 1,17,18
 548 527 548 527 548 473 c 0,19,20
 548 73 548 73 462.5 -128 c 128,-1,21
 377 -329 377 -329 184 -329 c 0,22,23
 106 -329 106 -329 62 -287.5 c 128,-1,24
 18 -246 18 -246 18 -196.5 c 128,-1,25
 18 -147 18 -147 49 -115.5 c 128,-1,26
 80 -84 80 -84 136 -84 c 0,27,28
 159 -84 159 -84 183 -94 c 1,29,30
 145 -119 145 -119 145 -171 c 0,31,32
 145 -206 145 -206 166 -231.5 c 128,-1,33
 187 -257 187 -257 217.5 -257 c 128,-1,34
 248 -257 248 -257 271 -244.5 c 128,-1,35
 294 -232 294 -232 318 -200 c 128,-1,36
 342 -168 342 -168 360 -120 c 0,37,38
 401 -9 401 -9 405 183 c 1,39,40
 376 97 376 97 317 45 c 128,-1,41
 258 -7 258 -7 197 -7 c 0,42,43
 120 -7 120 -7 79.5 51.5 c 128,-1,44
 39 110 39 110 39 201 c 0,45,46
 39 307 39 307 90 398 c 1,47,48
 147 503 147 503 248 544 c 0,49,50
 304 567 304 567 371 567 c 0,0,1
EndSplineSet
EndChar

StartChar: h
Encoding: 104 104 75
Width: 621
GlyphClass: 2
Flags: W
LayerCount: 2
Fore
SplineSet
311 499.5 m 128,-1,1
 381 577 381 577 441.5 577 c 128,-1,2
 502 577 502 577 527.5 540.5 c 128,-1,3
 553 504 553 504 553 441.5 c 128,-1,4
 553 379 553 379 533.5 266 c 128,-1,5
 514 153 514 153 514 101.5 c 128,-1,6
 514 50 514 50 527 26.5 c 128,-1,7
 540 3 540 3 571 -14 c 1,8,9
 558 -15 558 -15 534 -15 c 0,10,11
 450 -15 450 -15 414.5 11 c 128,-1,12
 379 37 379 37 379 102 c 0,13,14
 379 139 379 139 399 246.5 c 128,-1,15
 419 354 419 354 419 407 c 0,16,17
 419 473 419 473 379 473 c 0,18,19
 355 473 355 473 326 446 c 128,-1,20
 297 419 297 419 270.5 372.5 c 128,-1,21
 244 326 244 326 226 253 c 128,-1,22
 208 180 208 180 208 107.5 c 128,-1,23
 208 35 208 35 214 0 c 1,24,25
 182 -2 182 -2 172 -2 c 0,26,27
 115 -2 115 -2 90 17.5 c 128,-1,28
 65 37 65 37 65 80 c 128,-1,29
 65 123 65 123 82 244 c 0,30,31
 136 616 136 616 136 809 c 0,32,33
 136 896 136 896 124 926 c 1,34,35
 199 906 199 906 226.5 865.5 c 128,-1,36
 254 825 254 825 254 751 c 0,37,38
 254 701 254 701 234.5 541 c 128,-1,39
 215 381 215 381 208 309 c 1,40,0
 241 422 241 422 311 499.5 c 128,-1,1
EndSplineSet
EndChar

StartChar: i
Encoding: 105 105 76
Width: 321
GlyphClass: 2
Flags: W
LayerCount: 2
Fore
SplineSet
87 164 m 0,0,1
 87 206 87 206 103 316 c 128,-1,2
 119 426 119 426 119 487 c 128,-1,3
 119 548 119 548 113 581 c 1,4,5
 135 583 135 583 154 583 c 0,6,7
 212 583 212 583 234.5 563.5 c 128,-1,8
 257 544 257 544 257 497 c 0,9,10
 257 482 257 482 232.5 339.5 c 128,-1,11
 208 197 208 197 207.5 104.5 c 128,-1,12
 207 12 207 12 219 -15 c 1,13,14
 141 5 141 5 114 45.5 c 128,-1,15
 87 86 87 86 87 164 c 0,0,1
223 667 m 0,16,17
 120 667 120 667 120 739 c 0,18,19
 120 765 120 765 135 810 c 1,20,21
 163 814 163 814 184 814 c 0,22,23
 287 814 287 814 287 742 c 0,24,25
 287 716 287 716 272 671 c 1,26,27
 244 667 244 667 223 667 c 0,16,17
EndSplineSet
EndChar

StartChar: j
Encoding: 106 106 77
Width: 331
GlyphClass: 2
Flags: W
LayerCount: 2
Fore
SplineSet
225.5 565 m 128,-1,1
 248 547 248 547 248 493.5 c 128,-1,2
 248 440 248 440 245 375.5 c 128,-1,3
 242 311 242 311 233 225.5 c 128,-1,4
 224 140 224 140 209.5 65 c 128,-1,5
 195 -10 195 -10 169 -85 c 128,-1,6
 143 -160 143 -160 109.5 -213.5 c 128,-1,7
 76 -267 76 -267 25 -300.5 c 128,-1,8
 -26 -334 -26 -334 -84.5 -334 c 128,-1,9
 -143 -334 -143 -334 -181.5 -300.5 c 128,-1,10
 -220 -267 -220 -267 -220 -218.5 c 128,-1,11
 -220 -170 -220 -170 -187 -134 c 128,-1,12
 -154 -98 -154 -98 -100 -98 c 0,13,14
 -79 -98 -79 -98 -59 -105 c 1,15,16
 -75 -117 -75 -117 -90.5 -147 c 128,-1,17
 -106 -177 -106 -177 -106 -203.5 c 128,-1,18
 -106 -230 -106 -230 -94.5 -245 c 128,-1,19
 -83 -260 -83 -260 -64 -260 c 0,20,21
 -16 -260 -16 -260 20 -197 c 128,-1,22
 56 -134 56 -134 74 -30 c 0,23,24
 109 172 109 172 109 412 c 0,25,26
 109 516 109 516 105 581 c 1,27,28
 127 583 127 583 148 583 c 0,29,0
 203 583 203 583 225.5 565 c 128,-1,1
205 668 m 0,30,31
 102 668 102 668 102 740 c 0,32,33
 102 766 102 766 117 811 c 1,34,35
 145 815 145 815 166 815 c 0,36,37
 269 815 269 815 269 743 c 0,38,39
 269 717 269 717 254 672 c 1,40,41
 226 668 226 668 205 668 c 0,30,31
EndSplineSet
EndChar

StartChar: k
Encoding: 107 107 78
Width: 574
GlyphClass: 2
Flags: W
LayerCount: 2
Fore
SplineSet
405 579 m 0,0,1
 458 579 458 579 495 540 c 128,-1,2
 532 501 532 501 532 440 c 128,-1,3
 532 379 532 379 497.5 335.5 c 128,-1,4
 463 292 463 292 401 268 c 1,5,-1
 413 231 l 2,6,7
 446 128 446 128 509 27 c 128,-1,8
 572 -74 572 -74 611 -111 c 1,9,10
 575 -120 575 -120 547 -120 c 0,11,12
 446 -120 446 -120 370 27 c 0,13,14
 340 85 340 85 282 244 c 1,15,16
 269 243 269 243 244 243 c 1,17,18
 238 248 238 248 238 275 c 1,19,20
 284 276 284 276 320 291 c 128,-1,21
 356 306 356 306 376 330 c 1,22,23
 414 379 414 379 414 433 c 0,24,25
 414 460 414 460 402.5 477.5 c 128,-1,26
 391 495 391 495 370 495 c 0,27,28
 333 495 333 495 294.5 442 c 128,-1,29
 256 389 256 389 229.5 294.5 c 128,-1,30
 203 200 203 200 203 117.5 c 128,-1,31
 203 35 203 35 209 0 c 1,32,33
 177 -2 177 -2 167 -2 c 0,34,35
 110 -2 110 -2 85 17.5 c 128,-1,36
 60 37 60 37 60 80 c 128,-1,37
 60 123 60 123 78 244 c 0,38,39
 131 616 131 616 131 809 c 0,40,41
 131 896 131 896 119 926 c 1,42,43
 194 906 194 906 221.5 865.5 c 128,-1,44
 249 825 249 825 249 751 c 0,45,46
 249 701 249 701 229.5 541 c 128,-1,47
 210 381 210 381 203 309 c 1,48,49
 239 514 239 514 350 566 c 0,50,51
 378 579 378 579 405 579 c 0,0,1
EndSplineSet
EndChar

StartChar: l
Encoding: 108 108 79
Width: 299
GlyphClass: 2
Flags: W
LayerCount: 2
Fore
SplineSet
70 63.5 m 128,-1,1
 67 82 67 82 67 121 c 128,-1,2
 67 160 67 160 100.5 428 c 128,-1,3
 134 696 134 696 134 796 c 128,-1,4
 134 896 134 896 122 926 c 1,5,6
 197 906 197 906 224.5 865.5 c 128,-1,7
 252 825 252 825 252 751 c 0,8,9
 252 707 252 707 223 465 c 128,-1,10
 194 223 194 223 194 75 c 0,11,12
 194 43 194 43 198 -15 c 1,13,14
 107 -11 107 -11 85 25 c 0,15,0
 73 45 73 45 70 63.5 c 128,-1,1
EndSplineSet
EndChar

StartChar: m
Encoding: 109 109 80
Width: 895
GlyphClass: 2
Flags: W
LayerCount: 2
Fore
SplineSet
502 106 m 0,0,1
 502 56 502 56 508 0 c 1,2,3
 476 -2 476 -2 466 -2 c 0,4,5
 410 -2 410 -2 385 17.5 c 128,-1,6
 360 37 360 37 360 75 c 128,-1,7
 360 113 360 113 381.5 231.5 c 128,-1,8
 403 350 403 350 403 411.5 c 128,-1,9
 403 473 403 473 363 473 c 0,10,11
 341 473 341 473 315 446.5 c 128,-1,12
 289 420 289 420 266 374.5 c 128,-1,13
 243 329 243 329 227.5 258 c 128,-1,14
 212 187 212 187 212 121.5 c 128,-1,15
 212 56 212 56 218 0 c 1,16,17
 186 -2 186 -2 176 -2 c 0,18,19
 120 -2 120 -2 95 17.5 c 128,-1,20
 70 37 70 37 70 83 c 0,21,22
 70 94 70 94 90.5 232 c 128,-1,23
 111 370 111 370 111 450.5 c 128,-1,24
 111 531 111 531 94 598 c 1,25,26
 168 575 168 575 197 532 c 128,-1,27
 226 489 226 489 226 426 c 0,28,29
 226 394 226 394 219 345 c 1,30,31
 253 445 253 445 313.5 511 c 128,-1,32
 374 577 374 577 430.5 577 c 128,-1,33
 487 577 487 577 512.5 535 c 128,-1,34
 538 493 538 493 538 414 c 1,35,36
 576 487 576 487 625 532 c 128,-1,37
 674 577 674 577 715 577 c 0,38,39
 776 577 776 577 801.5 540.5 c 128,-1,40
 827 504 827 504 827 441.5 c 128,-1,41
 827 379 827 379 807.5 266 c 128,-1,42
 788 153 788 153 788 101.5 c 128,-1,43
 788 50 788 50 801 26.5 c 128,-1,44
 814 3 814 3 845 -14 c 1,45,46
 832 -15 832 -15 808 -15 c 0,47,48
 724 -15 724 -15 688.5 11 c 128,-1,49
 653 37 653 37 653 102 c 0,50,51
 653 139 653 139 673 246.5 c 128,-1,52
 693 354 693 354 693 407 c 0,53,54
 693 473 693 473 653 473 c 0,55,56
 623 473 623 473 588.5 429.5 c 128,-1,57
 554 386 554 386 528 298.5 c 128,-1,58
 502 211 502 211 502 106 c 0,0,1
EndSplineSet
EndChar

StartChar: n
Encoding: 110 110 81
Width: 626
GlyphClass: 2
Flags: W
LayerCount: 2
Fore
SplineSet
532.5 540.5 m 128,-1,1
 558 504 558 504 558 441.5 c 128,-1,2
 558 379 558 379 538.5 266 c 128,-1,3
 519 153 519 153 519 101.5 c 128,-1,4
 519 50 519 50 532 26.5 c 128,-1,5
 545 3 545 3 576 -14 c 1,6,7
 563 -15 563 -15 539 -15 c 0,8,9
 455 -15 455 -15 419.5 11 c 128,-1,10
 384 37 384 37 384 102 c 0,11,12
 384 139 384 139 404 246.5 c 128,-1,13
 424 354 424 354 424 407 c 0,14,15
 424 473 424 473 384 473 c 0,16,17
 361 473 361 473 332 446 c 128,-1,18
 303 419 303 419 276 372.5 c 128,-1,19
 249 326 249 326 231 253 c 128,-1,20
 213 180 213 180 213 107.5 c 128,-1,21
 213 35 213 35 219 0 c 1,22,23
 187 -2 187 -2 177 -2 c 0,24,25
 120 -2 120 -2 95 18 c 128,-1,26
 70 38 70 38 70 84 c 0,27,28
 70 104 70 104 91 238 c 128,-1,29
 112 372 112 372 112 451.5 c 128,-1,30
 112 531 112 531 95 598 c 1,31,32
 168 575 168 575 197 532.5 c 128,-1,33
 226 490 226 490 226 435.5 c 128,-1,34
 226 381 226 381 214 309 c 1,35,36
 247 421 247 421 318 499 c 128,-1,37
 389 577 389 577 448 577 c 128,-1,0
 507 577 507 577 532.5 540.5 c 128,-1,1
EndSplineSet
EndChar

StartChar: o
Encoding: 111 111 82
Width: 617
GlyphClass: 2
Flags: W
LayerCount: 2
Fore
SplineSet
361 501 m 0,0,1
 296 501 296 501 245 413.5 c 128,-1,2
 194 326 194 326 194 239 c 0,3,4
 194 57 194 57 288 57 c 0,5,6
 355 57 355 57 397 144.5 c 128,-1,7
 439 232 439 232 439 341 c 0,8,9
 439 501 439 501 361 501 c 0,0,1
525 515 m 128,-1,11
 567 456 567 456 567 357 c 0,12,13
 567 246 567 246 522 153 c 0,14,15
 472 48 472 48 380 8 c 0,16,17
 328 -15 328 -15 266 -15 c 0,18,19
 179 -15 179 -15 114.5 52.5 c 128,-1,20
 50 120 50 120 50 246.5 c 128,-1,21
 50 373 50 373 112 469.5 c 128,-1,22
 174 566 174 566 276 591 c 1,23,24
 287 591 287 591 296.5 584.5 c 128,-1,25
 306 578 306 578 306 571 c 1,26,27
 205 501 205 501 185 376 c 1,28,29
 206 432 206 432 236.5 473 c 128,-1,30
 267 514 267 514 300 535 c 0,31,32
 363 574 363 574 423 574 c 128,-1,10
 483 574 483 574 525 515 c 128,-1,11
EndSplineSet
EndChar

StartChar: p
Encoding: 112 112 83
Width: 649
GlyphClass: 2
Flags: W
LayerCount: 2
Fore
SplineSet
456 553 m 128,-1,1
 518 553 518 553 558.5 503.5 c 128,-1,2
 599 454 599 454 599 360 c 0,3,4
 599 210 599 210 517 105 c 128,-1,5
 435 0 435 0 320 0 c 0,6,7
 279 0 279 0 237 16 c 1,8,9
 335 39 335 39 393 143 c 128,-1,10
 451 247 451 247 451 350 c 0,11,12
 451 398 451 398 433.5 428 c 128,-1,13
 416 458 416 458 384 458 c 0,14,15
 323 458 323 458 276 384 c 128,-1,16
 229 310 229 310 204 181.5 c 128,-1,17
 179 53 179 53 179 -86.5 c 128,-1,18
 179 -226 179 -226 199 -329 c 1,19,20
 117 -326 117 -326 77.5 -302.5 c 128,-1,21
 38 -279 38 -279 38 -213 c 0,22,23
 38 -189 38 -189 68.5 40.5 c 128,-1,24
 99 270 99 270 99 394 c 128,-1,25
 99 518 99 518 84 603 c 1,26,27
 164 583 164 583 194.5 529 c 128,-1,28
 225 475 225 475 225 371 c 1,29,30
 267 457 267 457 330.5 505 c 128,-1,0
 394 553 394 553 456 553 c 128,-1,1
EndSplineSet
EndChar

StartChar: q
Encoding: 113 113 84
Width: 637
GlyphClass: 2
Flags: W
LayerCount: 2
Fore
SplineSet
180 0 m 0,0,1
 117 0 117 0 76.5 48 c 128,-1,2
 36 96 36 96 36 187 c 0,3,4
 36 331 36 331 115 447 c 128,-1,5
 194 563 194 563 305 563 c 0,6,7
 351 563 351 563 399 541 c 1,8,9
 334 519 334 519 283 459.5 c 128,-1,10
 232 400 232 400 208 332 c 128,-1,11
 184 264 184 264 184 208 c 0,12,13
 184 93 184 93 250 93 c 0,14,15
 323 93 323 93 378 200.5 c 128,-1,16
 433 308 433 308 433 454 c 0,17,18
 433 520 433 520 427 568 c 1,19,20
 457 570 457 570 469 570 c 0,21,22
 517 570 517 570 542 551 c 128,-1,23
 567 532 567 532 567 483 c 0,24,25
 567 460 567 460 540 292.5 c 128,-1,26
 513 125 513 125 503 0 c 1,27,28
 577 31 577 31 600 72 c 1,29,30
 619 37 619 37 619 11 c 0,31,32
 619 -27 619 -27 578 -43 c 0,33,34
 554 -52 554 -52 498 -70 c 1,35,36
 496 -134 496 -134 496 -194.5 c 128,-1,37
 496 -255 496 -255 507 -329 c 1,38,39
 430 -326 430 -326 393 -303.5 c 128,-1,40
 356 -281 356 -281 356 -217 c 0,41,42
 356 -195 356 -195 368 -121 c 1,43,44
 330 -143 330 -143 301 -170 c 1,45,46
 292 -150 292 -150 292 -134 c 0,47,48
 292 -83 292 -83 382 -46 c 1,49,50
 412 114 412 114 424 216 c 1,51,52
 330 0 330 0 180 0 c 0,0,1
EndSplineSet
EndChar

StartChar: r
Encoding: 114 114 85
Width: 463
GlyphClass: 2
Flags: W
LayerCount: 2
Fore
SplineSet
303.5 516.5 m 128,-1,1
 354 578 354 578 397.5 578 c 128,-1,2
 441 578 441 578 463 545.5 c 128,-1,3
 485 513 485 513 485 461.5 c 128,-1,4
 485 410 485 410 454.5 367 c 128,-1,5
 424 324 424 324 371 324 c 0,6,7
 357 324 357 324 338 332 c 1,8,9
 369 371 369 371 369 426 c 0,10,11
 369 458 369 458 343 458 c 0,12,13
 324 458 324 458 302 431.5 c 128,-1,14
 280 405 280 405 260 358.5 c 128,-1,15
 240 312 240 312 226.5 239.5 c 128,-1,16
 213 167 213 167 213 85 c 0,17,18
 213 75 213 75 218 0 c 1,19,20
 186 -2 186 -2 177 -2 c 0,21,22
 120 -2 120 -2 95 18 c 128,-1,23
 70 38 70 38 70 84 c 0,24,25
 70 104 70 104 91 238 c 128,-1,26
 112 372 112 372 112 451.5 c 128,-1,27
 112 531 112 531 95 598 c 1,28,29
 168 575 168 575 197 532.5 c 128,-1,30
 226 490 226 490 226 433.5 c 128,-1,31
 226 377 226 377 217 325 c 1,32,0
 253 455 253 455 303.5 516.5 c 128,-1,1
EndSplineSet
EndChar

StartChar: s
Encoding: 115 115 86
Width: 502
GlyphClass: 2
Flags: W
LayerCount: 2
Fore
SplineSet
234 499.5 m 128,-1,1
 212 481 212 481 212 447 c 128,-1,2
 212 413 212 413 235.5 383 c 128,-1,3
 259 353 259 353 293 330.5 c 128,-1,4
 327 308 327 308 361.5 284.5 c 128,-1,5
 396 261 396 261 422 226.5 c 128,-1,6
 448 192 448 192 451 150 c 1,7,8
 451 78 451 78 389 29 c 128,-1,9
 327 -20 327 -20 235 -20 c 128,-1,10
 143 -20 143 -20 90.5 17 c 128,-1,11
 38 54 38 54 38 102 c 128,-1,12
 38 150 38 150 67.5 179.5 c 128,-1,13
 97 209 97 209 141 209 c 0,14,15
 164 209 164 209 184 201 c 1,16,17
 152 167 152 167 152 129 c 128,-1,18
 152 91 152 91 173 68 c 128,-1,19
 194 45 194 45 230 45 c 128,-1,20
 266 45 266 45 290.5 63.5 c 128,-1,21
 315 82 315 82 315 111.5 c 128,-1,22
 315 141 315 141 298 164 c 128,-1,23
 281 187 281 187 255.5 204.5 c 128,-1,24
 230 222 230 222 200 244 c 128,-1,25
 170 266 170 266 144.5 288.5 c 128,-1,26
 119 311 119 311 102 345.5 c 128,-1,27
 85 380 85 380 85 421 c 0,28,29
 85 492 85 492 143.5 537.5 c 128,-1,30
 202 583 202 583 289.5 583 c 128,-1,31
 377 583 377 583 417.5 549 c 128,-1,32
 458 515 458 515 458 469.5 c 128,-1,33
 458 424 458 424 429.5 392 c 128,-1,34
 401 360 401 360 356 360 c 0,35,36
 334 360 334 360 306 369 c 1,37,38
 328 388 328 388 340 412.5 c 128,-1,39
 352 437 352 437 352 461 c 128,-1,40
 352 485 352 485 332 501.5 c 128,-1,41
 312 518 312 518 284 518 c 128,-1,0
 256 518 256 518 234 499.5 c 128,-1,1
EndSplineSet
EndChar

StartChar: t
Encoding: 116 116 87
Width: 386
GlyphClass: 2
Flags: W
LayerCount: 2
Fore
SplineSet
230 187 m 128,-1,1
 221 118 221 118 221 46 c 128,-1,2
 221 -26 221 -26 235 -57 c 1,3,4
 158 -37 158 -37 129 4.5 c 128,-1,5
 100 46 100 46 100 122 c 0,6,7
 100 189 100 189 121 305.5 c 128,-1,8
 142 422 142 422 148 463 c 1,9,10
 96 454 96 454 37 428 c 1,11,12
 35 450 35 450 35 461 c 0,13,14
 35 514 35 514 67 533.5 c 128,-1,15
 99 553 99 553 159 554 c 1,16,17
 166 629 166 629 166 662 c 128,-1,18
 166 695 166 695 165.5 717 c 128,-1,19
 165 739 165 739 165 750 c 1,20,21
 231 743 231 743 261 710.5 c 128,-1,22
 291 678 291 678 291 618 c 0,23,24
 291 594 291 594 286 551 c 1,25,26
 370 553 370 553 409 584 c 1,27,28
 411 564 411 564 411 554 c 0,29,30
 411 506 411 506 394 487.5 c 128,-1,31
 377 469 377 469 337 469 c 128,-1,32
 297 469 297 469 276 470 c 1,33,34
 271 434 271 434 255 345 c 128,-1,0
 239 256 239 256 230 187 c 128,-1,1
EndSplineSet
EndChar

StartChar: u
Encoding: 117 117 88
Width: 606
GlyphClass: 2
Flags: W
LayerCount: 2
Fore
SplineSet
435 579 m 0,0,1
 487 579 487 579 514 560 c 128,-1,2
 541 541 541 541 541 490 c 0,3,4
 541 474 541 474 522 349.5 c 128,-1,5
 503 225 503 225 503 136 c 128,-1,6
 503 47 503 47 522 -21 c 1,7,8
 447 3 447 3 418 47 c 128,-1,9
 389 91 389 91 389 156 c 0,10,11
 389 181 389 181 400 269 c 1,12,13
 369 155 369 155 305.5 77.5 c 128,-1,14
 242 0 242 0 186 0 c 0,15,16
 71 0 71 0 71 166 c 0,17,18
 71 221 71 221 87.5 319.5 c 128,-1,19
 104 418 104 418 104 469 c 128,-1,20
 104 520 104 520 90 572 c 1,21,22
 173 572 173 572 210.5 550.5 c 128,-1,23
 248 529 248 529 248 465 c 0,24,25
 248 431 248 431 227 330 c 128,-1,26
 206 229 206 229 206 178 c 0,27,28
 206 104 206 104 246 104 c 0,29,30
 266 104 266 104 292 131.5 c 128,-1,31
 318 159 318 159 342 204.5 c 128,-1,32
 366 250 366 250 382.5 318.5 c 128,-1,33
 399 387 399 387 399 457.5 c 128,-1,34
 399 528 399 528 393 577 c 1,35,36
 423 579 423 579 435 579 c 0,0,1
EndSplineSet
EndChar

StartChar: v
Encoding: 118 118 89
Width: 516
GlyphClass: 2
Flags: W
LayerCount: 2
Fore
SplineSet
266 0 m 1,0,1
 234 -14 234 -14 199 -14 c 128,-1,2
 164 -14 164 -14 160 1 c 0,3,4
 144 65 144 65 123 192.5 c 128,-1,5
 102 320 102 320 80.5 415.5 c 128,-1,6
 59 511 59 511 29 560 c 1,7,8
 84 586 84 586 117 586 c 128,-1,9
 150 586 150 586 167 571 c 128,-1,10
 184 556 184 556 195.5 511.5 c 128,-1,11
 207 467 207 467 212 438 c 0,12,13
 226 342 226 342 226 331 c 128,-1,14
 226 320 226 320 234 241.5 c 128,-1,15
 242 163 242 163 246 138 c 1,16,17
 424 483 424 483 424 599 c 1,18,19
 506 557 506 557 506 508 c 0,20,21
 506 468 506 468 464.5 389.5 c 128,-1,22
 423 311 423 311 360.5 199.5 c 128,-1,23
 298 88 298 88 266 0 c 1,0,1
EndSplineSet
EndChar

StartChar: w
Encoding: 119 119 90
Width: 769
GlyphClass: 2
Flags: W
LayerCount: 2
Fore
SplineSet
547 0 m 1,0,1
 522 -14 522 -14 485.5 -14 c 128,-1,2
 449 -14 449 -14 445 1 c 0,3,4
 427 83 427 83 413 183 c 128,-1,5
 399 283 399 283 395 310 c 1,6,7
 290 93 290 93 254 0 c 1,8,9
 230 -14 230 -14 193 -14 c 128,-1,10
 156 -14 156 -14 152 1 c 0,11,12
 137 65 137 65 120 192.5 c 128,-1,13
 103 320 103 320 84 415.5 c 128,-1,14
 65 511 65 511 36 560 c 1,15,16
 91 586 91 586 121.5 586 c 128,-1,17
 152 586 152 586 166.5 575.5 c 128,-1,18
 181 565 181 565 190.5 541.5 c 128,-1,19
 200 518 200 518 206 491 c 128,-1,20
 212 464 212 464 216 421.5 c 128,-1,21
 220 379 220 379 223 340 c 0,22,23
 234 193 234 193 241 138 c 1,24,25
 329 348 329 348 365 467 c 1,26,27
 349 525 349 525 329 560 c 1,28,29
 384 586 384 586 414.5 586 c 128,-1,30
 445 586 445 586 459.5 575.5 c 128,-1,31
 474 565 474 565 483.5 541.5 c 128,-1,32
 493 518 493 518 499 491 c 128,-1,33
 505 464 505 464 509 421.5 c 128,-1,34
 513 379 513 379 516 340 c 0,35,36
 527 193 527 193 534 138 c 1,37,38
 682 486 682 486 685 599 c 1,39,40
 764 557 764 557 764 513.5 c 128,-1,41
 764 470 764 470 725 380.5 c 128,-1,42
 686 291 686 291 628 174.5 c 128,-1,43
 570 58 570 58 547 0 c 1,0,1
EndSplineSet
EndChar

StartChar: x
Encoding: 120 120 91
Width: 555
GlyphClass: 2
Flags: W
LayerCount: 2
Fore
SplineSet
451 -30 m 0,0,1
 381 -30 381 -30 330.5 30.5 c 128,-1,2
 280 91 280 91 236 200 c 1,3,4
 148 92 148 92 108 -42 c 1,5,6
 33 20 33 20 33 68 c 0,7,8
 33 103 33 103 76.5 154.5 c 128,-1,9
 120 206 120 206 204 284 c 1,10,11
 140 457 140 457 116.5 498.5 c 128,-1,12
 93 540 93 540 78 560 c 1,13,14
 128 586 128 586 169 586 c 0,15,16
 202 586 202 586 223 558 c 1,17,18
 248 527 248 527 261 491.5 c 128,-1,19
 274 456 274 456 280.5 435.5 c 128,-1,20
 287 415 287 415 300 375 c 1,21,22
 443 515 443 515 458 595 c 1,23,24
 517 545 517 545 517 508 c 0,25,26
 517 482 517 482 499 455 c 128,-1,27
 481 428 481 428 461 409.5 c 128,-1,28
 441 391 441 391 395.5 353.5 c 128,-1,29
 350 316 350 316 326 294 c 1,30,31
 361 197 361 197 420 105 c 128,-1,32
 479 13 479 13 515 -21 c 1,33,34
 479 -30 479 -30 451 -30 c 0,0,1
EndSplineSet
EndChar

StartChar: y
Encoding: 121 121 92
Width: 516
GlyphClass: 2
Flags: W
LayerCount: 2
Fore
SplineSet
506 508 m 0,0,1
 506 473 506 473 476 413.5 c 128,-1,2
 446 354 446 354 403 282 c 128,-1,3
 360 210 360 210 317 128.5 c 128,-1,4
 274 47 274 47 244 -55.5 c 128,-1,5
 214 -158 214 -158 214 -256 c 0,6,7
 214 -301 214 -301 221 -342 c 1,8,9
 140 -327 140 -327 111 -297.5 c 128,-1,10
 82 -268 82 -268 82 -228 c 0,11,12
 82 -173 82 -173 162 -11 c 1,13,14
 147 51 147 51 125 183.5 c 128,-1,15
 103 316 103 316 80.5 414 c 128,-1,16
 58 512 58 512 29 560 c 1,17,18
 84 586 84 586 117 586 c 128,-1,19
 150 586 150 586 167 571 c 128,-1,20
 184 556 184 556 195.5 511.5 c 128,-1,21
 207 467 207 467 212 438 c 0,22,23
 226 342 226 342 226 331 c 128,-1,24
 226 320 226 320 234 241.5 c 128,-1,25
 242 163 242 163 246 138 c 1,26,27
 424 483 424 483 424 599 c 1,28,29
 506 557 506 557 506 508 c 0,0,1
EndSplineSet
EndChar

StartChar: z
Encoding: 122 122 93
Width: 495
GlyphClass: 2
Flags: W
LayerCount: 2
Fore
SplineSet
346 459 m 1,0,-1
 146 440 l 1,1,2
 106 440 106 440 90.5 456.5 c 128,-1,3
 75 473 75 473 75 507 c 128,-1,4
 75 541 75 541 83 571 c 1,5,6
 182 552 182 552 269 552 c 128,-1,7
 356 552 356 552 407 556 c 1,8,9
 427 594 427 594 435 624 c 1,10,11
 495 569 495 569 495 528.5 c 128,-1,12
 495 488 495 488 448.5 430.5 c 128,-1,13
 402 373 402 373 314.5 279 c 128,-1,14
 227 185 227 185 173 114 c 1,15,16
 259 110 259 110 325.5 110 c 128,-1,17
 392 110 392 110 460 122 c 1,18,19
 465 90 465 90 465 57.5 c 128,-1,20
 465 25 465 25 447 6.5 c 128,-1,21
 429 -12 429 -12 384 -12 c 0,22,23
 365 -12 365 -12 272.5 -1.5 c 128,-1,24
 180 9 180 9 112.5 9 c 128,-1,25
 45 9 45 9 -20 -13 c 1,26,27
 -3 84 -3 84 54 105 c 1,28,29
 236 300 236 300 346 459 c 1,0,-1
EndSplineSet
EndChar

StartChar: braceleft
Encoding: 123 123 94
Width: 372
GlyphClass: 2
Flags: W
LayerCount: 2
Fore
SplineSet
228 277 m 128,-1,1
 252 230 252 230 252 184.5 c 128,-1,2
 252 139 252 139 245.5 83.5 c 128,-1,3
 239 28 239 28 239 -1.5 c 128,-1,4
 239 -31 239 -31 253.5 -50 c 128,-1,5
 268 -69 268 -69 298.5 -69 c 128,-1,6
 329 -69 329 -69 350 -65 c 1,7,8
 350 -108 350 -108 335 -123.5 c 128,-1,9
 320 -139 320 -139 277 -139 c 0,10,11
 178 -139 178 -139 138.5 -106.5 c 128,-1,12
 99 -74 99 -74 99 -10 c 0,13,14
 99 13 99 13 106 72.5 c 128,-1,15
 113 132 113 132 113 168 c 0,16,17
 113 309 113 309 45 312 c 1,18,-1
 47 348 l 1,19,20
 101 357 101 357 121 418 c 0,21,22
 138 471 138 471 138 548 c 2,23,-1
 138 595 l 2,24,25
 138 694 138 694 182.5 738.5 c 128,-1,26
 227 783 227 783 336 783 c 0,27,28
 372 783 372 783 387 765 c 128,-1,29
 402 747 402 747 402 709 c 1,30,31
 378 712 378 712 360 712 c 0,32,33
 312 712 312 712 297 689 c 128,-1,34
 282 666 282 666 282 610 c 0,35,36
 282 503 282 503 256 425.5 c 128,-1,37
 230 348 230 348 174 330 c 1,38,0
 204 324 204 324 228 277 c 128,-1,1
EndSplineSet
EndChar

StartChar: bar
Encoding: 124 124 95
Width: 456
GlyphClass: 2
Flags: W
LayerCount: 2
Fore
SplineSet
154 -122 m 0,0,1
 154 -65 154 -65 161.5 105.5 c 128,-1,2
 169 276 169 276 169 383 c 0,3,4
 169 751 169 751 155 867 c 1,5,6
 232 867 232 867 267 851.5 c 128,-1,7
 302 836 302 836 302 803 c 0,8,9
 302 747 302 747 294.5 619 c 128,-1,10
 287 491 287 491 287 383 c 0,11,12
 287 -78 287 -78 301 -186 c 1,13,14
 224 -186 224 -186 189 -170.5 c 128,-1,15
 154 -155 154 -155 154 -122 c 0,0,1
EndSplineSet
EndChar

StartChar: braceright
Encoding: 125 125 96
Width: 372
GlyphClass: 2
Flags: W
LayerCount: 2
Fore
SplineSet
144 367 m 128,-1,1
 120 414 120 414 120 459.5 c 128,-1,2
 120 505 120 505 126.5 560.5 c 128,-1,3
 133 616 133 616 133 645.5 c 128,-1,4
 133 675 133 675 118.5 694 c 128,-1,5
 104 713 104 713 73.5 713 c 128,-1,6
 43 713 43 713 22 709 c 1,7,8
 22 752 22 752 37 767.5 c 128,-1,9
 52 783 52 783 95 783 c 0,10,11
 194 783 194 783 236 750 c 128,-1,12
 278 717 278 717 278 654 c 0,13,14
 278 631 278 631 268.5 571.5 c 128,-1,15
 259 512 259 512 259 476 c 0,16,17
 259 335 259 335 327 332 c 1,18,-1
 325 296 l 1,19,20
 271 287 271 287 251 226 c 0,21,22
 234 173 234 173 234 96 c 2,23,-1
 234 49 l 2,24,25
 234 -50 234 -50 189.5 -94.5 c 128,-1,26
 145 -139 145 -139 36 -139 c 0,27,28
 0 -139 0 -139 -15 -121 c 128,-1,29
 -30 -103 -30 -103 -30 -65 c 1,30,31
 -6 -68 -6 -68 12 -68 c 0,32,33
 60 -68 60 -68 75 -45 c 128,-1,34
 90 -22 90 -22 90 34 c 0,35,36
 90 141 90 141 116 218.5 c 128,-1,37
 142 296 142 296 198 314 c 1,38,0
 168 320 168 320 144 367 c 128,-1,1
EndSplineSet
EndChar

StartChar: asciitilde
Encoding: 126 126 97
Width: 620
GlyphClass: 2
Flags: W
LayerCount: 2
Fore
SplineSet
420 281 m 0,0,1
 377 281 377 281 296.5 296.5 c 128,-1,2
 216 312 216 312 186 312 c 0,3,4
 90 312 90 312 44 269 c 1,5,6
 44 376 44 376 80 410 c 0,7,8
 117 445 117 445 199 445 c 0,9,10
 243 445 243 445 323.5 429.5 c 128,-1,11
 404 414 404 414 434 414 c 0,12,13
 530 414 530 414 576 457 c 1,14,15
 576 350 576 350 540 316 c 0,16,17
 503 281 503 281 420 281 c 0,0,1
EndSplineSet
EndChar

StartChar: exclamdown
Encoding: 161 161 98
Width: 286
GlyphClass: 2
Flags: W
LayerCount: 2
Fore
SplineSet
26 -160 m 0,0,1
 26 -129 26 -129 44 -62 c 0,2,3
 97 143 97 143 97 255 c 0,4,5
 97 306 97 306 89 325 c 1,6,7
 158 307 158 307 184 272.5 c 128,-1,8
 210 238 210 238 210 178 c 128,-1,9
 210 118 210 118 185 -7 c 128,-1,10
 160 -132 160 -132 160 -185.5 c 128,-1,11
 160 -239 160 -239 163 -255 c 1,12,13
 110 -255 110 -255 68 -231.5 c 128,-1,14
 26 -208 26 -208 26 -160 c 0,0,1
167 397 m 0,15,16
 93 397 93 397 93 459 c 0,17,18
 93 479 93 479 111 544 c 1,19,20
 146 554 146 554 182 554 c 0,21,22
 256 554 256 554 256 492 c 0,23,24
 256 472 256 472 238 407 c 1,25,26
 203 397 203 397 167 397 c 0,15,16
EndSplineSet
EndChar

StartChar: cent
Encoding: 162 162 99
Width: 620
GlyphClass: 2
Flags: W
LayerCount: 2
Fore
SplineSet
237 313 m 0,0,1
 237 146 237 146 335 146 c 0,2,3
 373 146 373 146 412 172 c 128,-1,4
 451 198 451 198 480 244 c 1,5,6
 516 236 516 236 516 207 c 1,7,8
 457 105 457 105 352 79 c 1,9,10
 332 -28 332 -28 332 -98 c 1,11,12
 311 -98 311 -98 284 -90 c 0,13,14
 231 -75 231 -75 231 -21 c 0,15,16
 231 13 231 13 245 77 c 1,17,18
 179 92 179 92 136.5 150.5 c 128,-1,19
 94 209 94 209 94 308 c 0,20,21
 94 441 94 441 161.5 541.5 c 128,-1,22
 229 642 229 642 347 660 c 1,23,24
 375 781 375 781 379 832 c 1,25,26
 407 832 407 832 430 810 c 128,-1,27
 453 788 453 788 453 755 c 128,-1,28
 453 722 453 722 440 659 c 1,29,30
 494 648 494 648 521.5 614 c 128,-1,31
 549 580 549 580 549 533 c 128,-1,32
 549 486 549 486 517.5 448 c 128,-1,33
 486 410 486 410 437 410 c 0,34,35
 413 410 413 410 389 420 c 1,36,37
 404 437 404 437 417 473.5 c 128,-1,38
 430 510 430 510 430 541 c 0,39,40
 430 602 430 602 377 602 c 0,41,42
 315 602 315 602 276 511 c 128,-1,43
 237 420 237 420 237 313 c 0,0,1
EndSplineSet
EndChar

StartChar: sterling
Encoding: 163 163 100
Width: 620
GlyphClass: 2
Flags: W
LayerCount: 2
Fore
SplineSet
28 340 m 1,0,-1
 64 339 l 1,1,2
 104 339 104 339 143 345 c 0,3,4
 143 346 143 346 144 348 c 0,5,6
 176 544 176 544 237.5 631.5 c 128,-1,7
 299 719 299 719 395 719 c 0,8,9
 468 719 468 719 503.5 686 c 128,-1,10
 539 653 539 653 539 606 c 128,-1,11
 539 559 539 559 508 526 c 128,-1,12
 477 493 477 493 424 493 c 0,13,14
 403 493 403 493 383 500 c 1,15,16
 404 514 404 514 418.5 538.5 c 128,-1,17
 433 563 433 563 433 586.5 c 128,-1,18
 433 610 433 610 421 625.5 c 128,-1,19
 409 641 409 641 384.5 641 c 128,-1,20
 360 641 360 641 340 617.5 c 128,-1,21
 320 594 320 594 306 549 c 0,22,23
 284 475 284 475 271 366 c 1,24,25
 337 377 337 377 376.5 377 c 128,-1,26
 416 377 416 377 438.5 358 c 128,-1,27
 461 339 461 339 472 288 c 1,28,29
 456 297 456 297 404.5 297 c 128,-1,30
 353 297 353 297 259 280 c 1,31,32
 236 153 236 153 192 105 c 1,33,-1
 346 101 l 1,34,35
 457 101 457 101 521 130 c 1,36,37
 517 49 517 49 494.5 15 c 128,-1,38
 472 -19 472 -19 414 -19 c 0,39,40
 394 -19 394 -19 310.5 -8.5 c 128,-1,41
 227 2 227 2 155.5 2 c 128,-1,42
 84 2 84 2 20 -21 c 1,43,44
 20 -12 20 -12 23 4.5 c 128,-1,45
 26 21 26 21 47 51.5 c 128,-1,46
 68 82 68 82 103 95 c 1,47,48
 115 131 115 131 132 258 c 1,49,50
 108 256 108 256 101 256 c 0,51,52
 35 256 35 256 28 340 c 1,0,-1
EndSplineSet
EndChar

StartChar: yen
Encoding: 165 165 101
Width: 620
GlyphClass: 2
Flags: W
LayerCount: 2
Fore
SplineSet
90 405 m 1,0,-1
 126 404 l 2,1,2
 148 404 148 404 192 408 c 1,3,4
 138 571 138 571 60 693 c 1,5,6
 102 719 102 719 147 719 c 0,7,8
 173 719 173 719 186.5 705.5 c 128,-1,9
 200 692 200 692 207.5 681 c 128,-1,10
 215 670 215 670 223 650.5 c 128,-1,11
 231 631 231 631 237 613.5 c 128,-1,12
 243 596 243 596 251.5 566 c 128,-1,13
 260 536 260 536 266.5 512 c 128,-1,14
 273 488 273 488 283 448.5 c 128,-1,15
 293 409 293 409 302 378 c 2,16,-1
 312 342 l 1,17,18
 409 485 409 485 447 570.5 c 128,-1,19
 485 656 485 656 498 735 c 1,20,21
 570 694 570 694 570 627 c 0,22,23
 570 591 570 591 546.5 548 c 128,-1,24
 523 505 523 505 471 432 c 1,25,26
 501 428 501 428 519 408.5 c 128,-1,27
 537 389 537 389 546 345 c 1,28,29
 529 354 529 354 494 354 c 128,-1,30
 459 354 459 354 411 350 c 1,31,-1
 374 298 l 1,32,33
 399 302 399 302 435.5 302 c 128,-1,34
 472 302 472 302 494.5 283 c 128,-1,35
 517 264 517 264 528 213 c 1,36,37
 512 222 512 222 464.5 222 c 128,-1,38
 417 222 417 222 354 212 c 1,39,40
 339 102 339 102 339 59.5 c 128,-1,41
 339 17 339 17 342 -15 c 1,42,43
 262 -12 262 -12 238 14.5 c 128,-1,44
 214 41 214 41 214 87.5 c 128,-1,45
 214 134 214 134 220 188 c 1,46,47
 174 181 174 181 157 181 c 0,48,49
 91 181 91 181 84 265 c 1,50,-1
 120 264 l 1,51,52
 169 264 169 264 231 274 c 1,53,-1
 231 275 l 1,54,55
 222 311 222 311 217 326 c 1,56,57
 189 321 189 321 163 321 c 0,58,59
 97 321 97 321 90 405 c 1,0,-1
EndSplineSet
EndChar

StartChar: brokenbar
Encoding: 166 166 102
Width: 456
GlyphClass: 2
Flags: W
LayerCount: 2
Fore
SplineSet
287 430 m 1,0,1
 216 430 216 430 192.5 460.5 c 128,-1,2
 169 491 169 491 169 547 c 0,3,4
 169 751 169 751 155 867 c 1,5,6
 232 867 232 867 267 851.5 c 128,-1,7
 302 836 302 836 302 802 c 128,-1,8
 302 768 302 768 294.5 628 c 128,-1,9
 287 488 287 488 287 430 c 1,0,1
169 251 m 1,10,11
 240 251 240 251 263.5 220.5 c 128,-1,12
 287 190 287 190 287 134 c 0,13,14
 287 -70 287 -70 301 -186 c 1,15,16
 224 -186 224 -186 189 -170.5 c 128,-1,17
 154 -155 154 -155 154 -121 c 128,-1,18
 154 -87 154 -87 161.5 53 c 128,-1,19
 169 193 169 193 169 251 c 1,10,11
EndSplineSet
EndChar

StartChar: section
Encoding: 167 167 103
Width: 620
GlyphClass: 2
Flags: W
LayerCount: 2
Fore
SplineSet
539 270 m 0,0,1
 539 196 539 196 483 141.5 c 128,-1,2
 427 87 427 87 332 77 c 1,3,4
 340 71 340 71 365.5 52.5 c 128,-1,5
 391 34 391 34 401.5 25.5 c 128,-1,6
 412 17 412 17 433 -0.5 c 128,-1,7
 454 -18 454 -18 463.5 -30.5 c 128,-1,8
 473 -43 473 -43 484 -62 c 1,9,10
 506 -96 506 -96 506 -140 c 0,11,12
 506 -222 506 -222 438.5 -279 c 128,-1,13
 371 -336 371 -336 263 -336 c 128,-1,14
 155 -336 155 -336 94 -289 c 128,-1,15
 33 -242 33 -242 33 -183 c 128,-1,16
 33 -124 33 -124 65.5 -91.5 c 128,-1,17
 98 -59 98 -59 153 -59 c 0,18,19
 168 -59 168 -59 182 -62 c 1,20,21
 156 -105 156 -105 156 -151 c 128,-1,22
 156 -197 156 -197 185 -230.5 c 128,-1,23
 214 -264 214 -264 262.5 -264 c 128,-1,24
 311 -264 311 -264 343 -239 c 128,-1,25
 375 -214 375 -214 375 -176 c 128,-1,26
 375 -138 375 -138 354 -108 c 128,-1,27
 333 -78 333 -78 302 -54.5 c 128,-1,28
 271 -31 271 -31 234 -1 c 128,-1,29
 197 29 197 29 166 58 c 128,-1,30
 135 87 135 87 114 129.5 c 128,-1,31
 93 172 93 172 93 219 c 0,32,33
 93 293 93 293 138 340.5 c 128,-1,34
 183 388 183 388 272 399 c 1,35,36
 204 447 204 447 165 500.5 c 128,-1,37
 126 554 126 554 126 634 c 128,-1,38
 126 714 126 714 184.5 763.5 c 128,-1,39
 243 813 243 813 345.5 813 c 128,-1,40
 448 813 448 813 498 767 c 128,-1,41
 548 721 548 721 548 672.5 c 128,-1,42
 548 624 548 624 517 590.5 c 128,-1,43
 486 557 486 557 433 557 c 0,44,45
 410 557 410 557 393 565 c 1,46,47
 414 579 414 579 428.5 603.5 c 128,-1,48
 443 628 443 628 443 652 c 0,49,50
 443 699 443 699 414 723 c 128,-1,51
 385 747 385 747 347 747 c 0,52,53
 254 747 254 747 254 650 c 0,54,55
 254 604 254 604 283.5 563 c 128,-1,56
 313 522 313 522 354.5 490 c 128,-1,57
 396 458 396 458 438 426.5 c 128,-1,58
 480 395 480 395 509.5 354.5 c 128,-1,59
 539 314 539 314 539 270 c 0,0,1
242 310.5 m 128,-1,61
 212 282 212 282 212 241.5 c 128,-1,62
 212 201 212 201 242 172.5 c 128,-1,63
 272 144 272 144 314.5 144 c 128,-1,64
 357 144 357 144 386 172 c 128,-1,65
 415 200 415 200 415 241 c 128,-1,66
 415 282 415 282 386 310.5 c 128,-1,67
 357 339 357 339 314.5 339 c 128,-1,60
 272 339 272 339 242 310.5 c 128,-1,61
EndSplineSet
EndChar

StartChar: dieresis
Encoding: 168 168 104
Width: 450
GlyphClass: 2
Flags: W
LayerCount: 2
Fore
SplineSet
168 667 m 0,0,1
 65 667 65 667 65 739 c 0,2,3
 65 765 65 765 80 810 c 1,4,5
 108 814 108 814 129 814 c 0,6,7
 232 814 232 814 232 742 c 0,8,9
 232 716 232 716 217 671 c 1,10,11
 189 667 189 667 168 667 c 0,0,1
378 667 m 0,12,13
 275 667 275 667 275 739 c 0,14,15
 275 765 275 765 290 810 c 1,16,17
 318 814 318 814 339 814 c 0,18,19
 442 814 442 814 442 742 c 0,20,21
 442 716 442 716 427 671 c 1,22,23
 399 667 399 667 378 667 c 0,12,13
EndSplineSet
EndChar

StartChar: copyright
Encoding: 169 169 105
Width: 667
GlyphClass: 2
Flags: W
LayerCount: 2
Fore
SplineSet
312 378 m 0,0,1
 255 378 255 378 216.5 420 c 128,-1,2
 178 462 178 462 178 547.5 c 128,-1,3
 178 633 178 633 227 695.5 c 128,-1,4
 276 758 276 758 364 758 c 0,5,6
 415 758 415 758 441 732.5 c 128,-1,7
 467 707 467 707 467 672 c 128,-1,8
 467 637 467 637 447 614.5 c 128,-1,9
 427 592 427 592 394 592 c 0,10,11
 384 592 384 592 360 599 c 1,12,13
 371 611 371 611 379 634.5 c 128,-1,14
 387 658 387 658 387 677 c 0,15,16
 387 715 387 715 358 715 c 0,17,18
 317 715 317 715 291.5 661.5 c 128,-1,19
 266 608 266 608 266 547.5 c 128,-1,20
 266 487 266 487 286 459 c 128,-1,21
 306 431 306 431 337 431 c 0,22,23
 384 431 384 431 421 485 c 1,24,25
 453 485 453 485 453 465 c 1,26,27
 405 378 405 378 312 378 c 0,0,1
370 861 m 0,28,29
 472 861 472 861 550 800 c 1,30,31
 589 768 589 768 612 711.5 c 128,-1,32
 635 655 635 655 635 579 c 0,33,34
 635 454 635 454 545 363.5 c 128,-1,35
 455 273 455 273 297 273 c 0,36,37
 195 273 195 273 118 334 c 0,38,39
 78 366 78 366 55 422.5 c 128,-1,40
 32 479 32 479 32 555 c 0,41,42
 32 680 32 680 122 770.5 c 128,-1,43
 212 861 212 861 370 861 c 0,28,29
368 814 m 0,44,45
 241 814 241 814 169 737.5 c 128,-1,46
 97 661 97 661 97 555 c 0,47,48
 97 492 97 492 114.5 444.5 c 128,-1,49
 132 397 132 397 162 371 c 0,50,51
 221 320 221 320 299 320 c 0,52,53
 426 320 426 320 498 396.5 c 128,-1,54
 570 473 570 473 570 579 c 0,55,56
 570 642 570 642 552.5 689.5 c 128,-1,57
 535 737 535 737 505 763 c 0,58,59
 446 814 446 814 368 814 c 0,44,45
EndSplineSet
EndChar

StartChar: ordfeminine
Encoding: 170 170 106
Width: 391
GlyphClass: 2
Flags: W
LayerCount: 2
Fore
SplineSet
191 777 m 0,0,1
 223 777 223 777 249 763 c 1,2,-1
 249 784 l 1,3,-1
 283 784 l 2,4,5
 319 784 319 784 337 771.5 c 128,-1,6
 355 759 355 759 355 731.5 c 128,-1,7
 355 704 355 704 340.5 628 c 128,-1,8
 326 552 326 552 326 507 c 128,-1,9
 326 462 326 462 350 414 c 1,10,11
 249 430 249 430 240 507 c 1,12,13
 216 470 216 470 182 449.5 c 128,-1,14
 148 429 148 429 110.5 429 c 128,-1,15
 73 429 73 429 46 459.5 c 128,-1,16
 19 490 19 490 19 549 c 0,17,18
 19 633 19 633 67.5 705 c 128,-1,19
 116 777 116 777 191 777 c 0,0,1
160 665 m 128,-1,21
 127 607 127 607 127 552.5 c 128,-1,22
 127 498 127 498 156 498 c 0,23,24
 192 498 192 498 222 564.5 c 128,-1,25
 252 631 252 631 252 708 c 0,26,27
 252 721 252 721 250 749 c 1,28,20
 193 723 193 723 160 665 c 128,-1,21
EndSplineSet
EndChar

StartChar: guillemotleft
Encoding: 171 171 107
Width: 638
GlyphClass: 2
Flags: W
LayerCount: 2
Fore
SplineSet
367 519 m 1,0,1
 337 509 337 509 307.5 476 c 128,-1,2
 278 443 278 443 241.5 389 c 128,-1,3
 205 335 205 335 191 317 c 1,4,5
 202 298 202 298 227 244.5 c 128,-1,6
 252 191 252 191 274.5 158 c 128,-1,7
 297 125 297 125 324 115 c 1,8,9
 252 60 252 60 209 60 c 0,10,11
 181 60 181 60 160 94 c 128,-1,12
 139 128 139 128 128.5 170.5 c 128,-1,13
 118 213 118 213 100 254.5 c 128,-1,14
 82 296 82 296 60 307 c 1,15,-1
 63 327 l 1,16,17
 98 343 98 343 142 428 c 0,18,19
 159 463 159 463 178 496 c 1,20,21
 220 574 220 574 263.5 574 c 128,-1,22
 307 574 307 574 367 519 c 1,0,1
505 574 m 0,23,24
 548 574 548 574 608 519 c 1,25,26
 578 509 578 509 548.5 476 c 128,-1,27
 519 443 519 443 482.5 389 c 128,-1,28
 446 335 446 335 432 317 c 1,29,30
 443 298 443 298 468 244.5 c 128,-1,31
 493 191 493 191 515.5 158 c 128,-1,32
 538 125 538 125 565 115 c 1,33,34
 493 60 493 60 450 60 c 0,35,36
 422 60 422 60 401 94 c 128,-1,37
 380 128 380 128 369.5 170.5 c 128,-1,38
 359 213 359 213 341 254.5 c 128,-1,39
 323 296 323 296 301 307 c 1,40,-1
 304 327 l 1,41,42
 347 347 347 347 400 464 c 0,43,44
 420 506 420 506 448.5 540 c 128,-1,45
 477 574 477 574 505 574 c 0,23,24
EndSplineSet
EndChar

StartChar: logicalnot
Encoding: 172 172 108
Width: 620
GlyphClass: 2
Flags: W
LayerCount: 2
Fore
SplineSet
575 315 m 1,0,-1
 567 126 l 1,1,2
 540 121 540 121 520 121 c 0,3,4
 451 121 451 121 451 189 c 0,5,6
 451 219 451 219 474 305 c 1,7,8
 460 306 460 306 424.5 306 c 128,-1,9
 389 306 389 306 296 297.5 c 128,-1,10
 203 289 203 289 146 289 c 128,-1,11
 89 289 89 289 67 316.5 c 128,-1,12
 45 344 45 344 45 398 c 0,13,14
 45 402 45 402 45.5 409.5 c 128,-1,15
 46 417 46 417 46 421 c 1,16,17
 127 410 127 410 189 410 c 128,-1,18
 251 410 251 410 332.5 417 c 128,-1,19
 414 424 414 424 472.5 424 c 128,-1,20
 531 424 531 424 553 396.5 c 128,-1,21
 575 369 575 369 575 315 c 1,0,-1
EndSplineSet
EndChar

StartChar: registered
Encoding: 174 174 109
Width: 667
GlyphClass: 2
Flags: W
LayerCount: 2
Fore
SplineSet
345 752 m 0,0,1
 460 752 460 752 460 671 c 0,2,3
 460 639 460 639 439 607 c 128,-1,4
 418 575 418 575 375 558 c 1,5,6
 405 444 405 444 463 386 c 1,7,8
 434 380 434 380 415.5 380 c 128,-1,9
 397 380 397 380 379 390.5 c 128,-1,10
 361 401 361 401 348.5 422.5 c 128,-1,11
 336 444 336 444 329 460.5 c 128,-1,12
 322 477 322 477 312.5 506.5 c 128,-1,13
 303 536 303 536 300 545 c 1,14,-1
 278 543 l 1,15,16
 267 463 267 463 267 383 c 1,17,18
 255 381 255 381 240 381 c 0,19,20
 185 381 185 381 185 419 c 0,21,22
 185 439 185 439 205 554.5 c 128,-1,23
 225 670 225 670 227 731 c 1,24,25
 286 752 286 752 345 752 c 0,0,1
354.5 603 m 128,-1,27
 382 628 382 628 382 653 c 0,28,29
 382 706 382 706 335 706 c 0,30,31
 318 706 318 706 298 699 c 1,32,33
 291 633 291 633 282 575 c 1,34,26
 327 578 327 578 354.5 603 c 128,-1,27
368 814 m 0,35,36
 241 814 241 814 169 737.5 c 128,-1,37
 97 661 97 661 97 555 c 0,38,39
 97 492 97 492 114.5 444.5 c 128,-1,40
 132 397 132 397 162 371 c 0,41,42
 221 320 221 320 299 320 c 0,43,44
 426 320 426 320 498 396.5 c 128,-1,45
 570 473 570 473 570 579 c 0,46,47
 570 642 570 642 552.5 689.5 c 128,-1,48
 535 737 535 737 505 763 c 0,49,50
 446 814 446 814 368 814 c 0,35,36
370 861 m 0,51,52
 472 861 472 861 550 800 c 1,53,54
 589 768 589 768 612 711.5 c 128,-1,55
 635 655 635 655 635 579 c 0,56,57
 635 454 635 454 545 363.5 c 128,-1,58
 455 273 455 273 297 273 c 0,59,60
 195 273 195 273 118 334 c 0,61,62
 78 366 78 366 55 422.5 c 128,-1,63
 32 479 32 479 32 555 c 0,64,65
 32 680 32 680 122 770.5 c 128,-1,66
 212 861 212 861 370 861 c 0,51,52
EndSplineSet
EndChar

StartChar: macron
Encoding: 175 175 110
Width: 424
GlyphClass: 2
Flags: W
LayerCount: 2
Fore
SplineSet
225.5 786 m 128,-1,1
 275 793 275 793 310.5 793 c 128,-1,2
 346 793 346 793 360 766.5 c 128,-1,3
 374 740 374 740 374 689 c 0,4,5
 374 685 374 685 373.5 678 c 128,-1,6
 373 671 373 671 373 667 c 1,7,8
 324 678 324 678 286 678 c 128,-1,9
 248 678 248 678 198.5 671 c 128,-1,10
 149 664 149 664 113.5 664 c 128,-1,11
 78 664 78 664 64 690.5 c 128,-1,12
 50 717 50 717 50 768 c 0,13,14
 50 772 50 772 50.5 779 c 128,-1,15
 51 786 51 786 51 790 c 1,16,17
 101 779 101 779 138.5 779 c 128,-1,0
 176 779 176 779 225.5 786 c 128,-1,1
EndSplineSet
EndChar

StartChar: degree
Encoding: 176 176 111
Width: 404
GlyphClass: 2
Flags: W
LayerCount: 2
Fore
SplineSet
231 784 m 0,0,1
 291 784 291 784 332.5 748.5 c 128,-1,2
 374 713 374 713 374 637 c 128,-1,3
 374 561 374 561 320.5 505.5 c 128,-1,4
 267 450 267 450 173 450 c 0,5,6
 113 450 113 450 71.5 485.5 c 128,-1,7
 30 521 30 521 30 596.5 c 128,-1,8
 30 672 30 672 83.5 728 c 128,-1,9
 137 784 137 784 231 784 c 0,0,1
212 719 m 0,10,11
 175 719 175 719 155 687.5 c 128,-1,12
 135 656 135 656 135 608.5 c 128,-1,13
 135 561 135 561 151.5 538 c 128,-1,14
 168 515 168 515 199 515 c 128,-1,15
 230 515 230 515 250 546.5 c 128,-1,16
 270 578 270 578 270 624.5 c 128,-1,17
 270 671 270 671 253 695 c 128,-1,18
 236 719 236 719 212 719 c 0,10,11
EndSplineSet
EndChar

StartChar: plusminus
Encoding: 177 177 112
Width: 620
GlyphClass: 2
Flags: W
LayerCount: 2
Fore
SplineSet
407 396 m 1,0,-1
 368 395 l 1,1,2
 368 340 368 340 363.5 281.5 c 128,-1,3
 359 223 359 223 330 201 c 128,-1,4
 301 179 301 179 247 179 c 0,5,6
 243 179 243 179 235.5 179.5 c 128,-1,7
 228 180 228 180 224 180 c 1,8,9
 246 292 246 292 249 386 c 1,10,11
 191 382 191 382 155 382 c 0,12,13
 89 382 89 382 67 409.5 c 128,-1,14
 45 437 45 437 45 491 c 0,15,16
 45 495 45 495 45.5 502.5 c 128,-1,17
 46 510 46 510 46 514 c 1,18,19
 127 503 127 503 182 503 c 128,-1,20
 237 503 237 503 250 504 c 1,21,22
 250 558 250 558 254.5 616.5 c 128,-1,23
 259 675 259 675 288 697 c 128,-1,24
 317 719 317 719 371 719 c 0,25,26
 375 719 375 719 382.5 718.5 c 128,-1,27
 390 718 390 718 394 718 c 1,28,29
 372 607 372 607 368 513 c 1,30,31
 428 517 428 517 465 517 c 0,32,33
 531 517 531 517 553 489.5 c 128,-1,34
 575 462 575 462 575 408 c 0,35,36
 575 404 575 404 574.5 396.5 c 128,-1,37
 574 389 574 389 574 385 c 1,38,39
 493 396 493 396 407 396 c 1,0,-1
309.5 122 m 128,-1,41
 391 129 391 129 449.5 129 c 128,-1,42
 508 129 508 129 530 101.5 c 128,-1,43
 552 74 552 74 552 20 c 0,44,45
 552 16 552 16 551.5 8.5 c 128,-1,46
 551 1 551 1 551 -3 c 1,47,48
 470 8 470 8 408 8 c 128,-1,49
 346 8 346 8 264.5 1 c 128,-1,50
 183 -6 183 -6 124.5 -6 c 128,-1,51
 66 -6 66 -6 44 21.5 c 128,-1,52
 22 49 22 49 22 103 c 0,53,54
 22 107 22 107 22.5 114.5 c 128,-1,55
 23 122 23 122 23 126 c 1,56,57
 104 115 104 115 166 115 c 128,-1,40
 228 115 228 115 309.5 122 c 128,-1,41
EndSplineSet
EndChar

StartChar: twosuperior
Encoding: 178 178 113
Width: 412
GlyphClass: 2
Flags: W
LayerCount: 2
Fore
SplineSet
272 275 m 1,0,-1
 105 287 l 1,1,2
 47 287 47 287 -5 264 c 1,3,4
 -5 286 -5 286 4 311 c 1,5,6
 23 357 23 357 73 367 c 1,7,8
 239 503 239 503 239 598 c 0,9,10
 239 624 239 624 225 639 c 128,-1,11
 211 654 211 654 193.5 654 c 128,-1,12
 176 654 176 654 163.5 641 c 128,-1,13
 151 628 151 628 151 599.5 c 128,-1,14
 151 571 151 571 176 540 c 1,15,16
 163 536 163 536 146 536 c 0,17,18
 110 536 110 536 85.5 557 c 128,-1,19
 61 578 61 578 61 618.5 c 128,-1,20
 61 659 61 659 97.5 691 c 128,-1,21
 134 723 134 723 199 723 c 128,-1,22
 264 723 264 723 307 692.5 c 128,-1,23
 350 662 350 662 350 605.5 c 128,-1,24
 350 549 350 549 306 487 c 128,-1,25
 262 425 262 425 176 368 c 1,26,-1
 232 368 l 2,27,28
 295 368 295 368 350 393 c 1,29,30
 347 329 347 329 330.5 302 c 128,-1,31
 314 275 314 275 272 275 c 1,0,-1
EndSplineSet
EndChar

StartChar: threesuperior
Encoding: 179 179 114
Width: 412
GlyphClass: 2
Flags: W
LayerCount: 2
Fore
SplineSet
310 694.5 m 128,-1,1
 349 667 349 667 349 612.5 c 128,-1,2
 349 558 349 558 283 516 c 1,3,4
 316 502 316 502 335.5 472.5 c 128,-1,5
 355 443 355 443 355 409 c 0,6,7
 355 357 355 357 306.5 312 c 128,-1,8
 258 267 258 267 185 267 c 128,-1,9
 112 267 112 267 78.5 297.5 c 128,-1,10
 45 328 45 328 45 365.5 c 128,-1,11
 45 403 45 403 66.5 427 c 128,-1,12
 88 451 88 451 121.5 451 c 128,-1,13
 155 451 155 451 177 440 c 1,14,15
 138 419 138 419 138 382 c 0,16,17
 138 360 138 360 150.5 348.5 c 128,-1,18
 163 337 163 337 185 337 c 128,-1,19
 207 337 207 337 225.5 354.5 c 128,-1,20
 244 372 244 372 244 401 c 128,-1,21
 244 430 244 430 226.5 451.5 c 128,-1,22
 209 473 209 473 174 479 c 1,23,24
 165 477 165 477 147 475 c 1,25,-1
 141 514 l 1,26,27
 248 532 248 532 248 609 c 0,28,29
 248 632 248 632 235.5 645.5 c 128,-1,30
 223 659 223 659 207.5 659 c 128,-1,31
 192 659 192 659 180.5 647.5 c 128,-1,32
 169 636 169 636 169 610 c 128,-1,33
 169 584 169 584 191 556 c 1,34,35
 179 552 179 552 155 552 c 128,-1,36
 131 552 131 552 109 571.5 c 128,-1,37
 87 591 87 591 87 627 c 128,-1,38
 87 663 87 663 120.5 692.5 c 128,-1,39
 154 722 154 722 212.5 722 c 128,-1,0
 271 722 271 722 310 694.5 c 128,-1,1
EndSplineSet
EndChar

StartChar: acute
Encoding: 180 180 115
Width: 372
GlyphClass: 2
Flags: W
LayerCount: 2
Fore
SplineSet
88 652 m 1,0,1
 115 713 115 713 174 778.5 c 128,-1,2
 233 844 233 844 289 867 c 1,3,4
 349 829 349 829 352 760 c 1,5,6
 289 743 289 743 228.5 702.5 c 128,-1,7
 168 662 168 662 130 619 c 1,8,9
 114 622 114 622 102 631.5 c 128,-1,10
 90 641 90 641 88 652 c 1,0,1
EndSplineSet
EndChar

StartChar: mu
Encoding: 181 181 116
Width: 606
GlyphClass: 2
Flags: W
LayerCount: 2
Fore
SplineSet
435 579 m 0,0,1
 487 579 487 579 514 560 c 128,-1,2
 541 541 541 541 541 490 c 0,3,4
 541 474 541 474 522 349.5 c 128,-1,5
 503 225 503 225 503 136 c 128,-1,6
 503 47 503 47 522 -21 c 1,7,8
 447 3 447 3 418 47 c 128,-1,9
 389 91 389 91 389 156 c 0,10,11
 389 181 389 181 400 269 c 1,12,13
 366 144 366 144 307 72.5 c 128,-1,14
 248 1 248 1 161 1 c 1,15,16
 135 -139 135 -139 135 -213.5 c 128,-1,17
 135 -288 135 -288 143 -307 c 1,18,19
 74 -289 74 -289 48 -254.5 c 128,-1,20
 22 -220 22 -220 22 -163 c 128,-1,21
 22 -106 22 -106 63 112.5 c 128,-1,22
 104 331 104 331 104 462 c 0,23,24
 104 520 104 520 90 572 c 1,25,26
 173 572 173 572 210.5 550.5 c 128,-1,27
 248 529 248 529 248 465 c 0,28,29
 248 431 248 431 227 330 c 128,-1,30
 206 229 206 229 206 178 c 0,31,32
 206 104 206 104 246 104 c 0,33,34
 266 104 266 104 292 131.5 c 128,-1,35
 318 159 318 159 342 204.5 c 128,-1,36
 366 250 366 250 382.5 318.5 c 128,-1,37
 399 387 399 387 399 457.5 c 128,-1,38
 399 528 399 528 393 577 c 1,39,40
 423 579 423 579 435 579 c 0,0,1
EndSplineSet
EndChar

StartChar: paragraph
Encoding: 182 182 117
Width: 620
GlyphClass: 2
Flags: W
LayerCount: 2
Fore
SplineSet
343 -191 m 0,0,1
 343 -147 343 -147 352 -70 c 2,2,-1
 370 72 l 2,3,4
 378 137 378 137 384 191 c 1,5,6
 232 252 232 252 152 346 c 128,-1,7
 72 440 72 440 72 550 c 128,-1,8
 72 660 72 660 139.5 736 c 128,-1,9
 207 812 207 812 331 812 c 0,10,11
 434 812 434 812 489 759.5 c 128,-1,12
 544 707 544 707 544 602 c 0,13,14
 544 558 544 558 507 233.5 c 128,-1,15
 470 -91 470 -91 470 -239 c 0,16,17
 470 -271 470 -271 474 -329 c 1,18,19
 396 -325 396 -325 369.5 -299 c 128,-1,20
 343 -273 343 -273 343 -191 c 0,0,1
426 682 m 1,21,22
 397 732 397 732 335.5 732 c 128,-1,23
 274 732 274 732 245.5 689.5 c 128,-1,24
 217 647 217 647 217 573.5 c 128,-1,25
 217 500 217 500 268 427.5 c 128,-1,26
 319 355 319 355 396 316 c 1,27,28
 426 619 426 619 426 682 c 1,21,22
191.5 32.5 m 128,-1,30
 212 186 212 186 217 223 c 1,31,32
 259 183 259 183 326 150 c 1,33,34
 321 112 321 112 313 53 c 128,-1,35
 305 -6 305 -6 302 -36 c 0,36,37
 291 -128 291 -128 291 -207 c 128,-1,38
 291 -286 291 -286 319 -319 c 1,39,40
 243 -316 243 -316 207 -292.5 c 128,-1,41
 171 -269 171 -269 171 -195 c 128,-1,29
 171 -121 171 -121 191.5 32.5 c 128,-1,30
EndSplineSet
EndChar

StartChar: periodcentered
Encoding: 183 183 118
Width: 303
GlyphClass: 2
Flags: W
LayerCount: 2
Fore
SplineSet
154 239 m 0,0,1
 80 239 80 239 80 301 c 0,2,3
 80 321 80 321 98 386 c 1,4,5
 133 396 133 396 169 396 c 0,6,7
 243 396 243 396 243 334 c 0,8,9
 243 314 243 314 225 249 c 1,10,11
 190 239 190 239 154 239 c 0,0,1
EndSplineSet
EndChar

StartChar: cedilla
Encoding: 184 184 119
Width: 292
GlyphClass: 2
Flags: W
LayerCount: 2
Fore
SplineSet
210 -74.5 m 128,-1,1
 242 -105 242 -105 242 -157 c 128,-1,2
 242 -209 242 -209 204.5 -257 c 128,-1,3
 167 -305 167 -305 104 -323 c 1,4,5
 50 -303 50 -303 50 -238 c 1,6,7
 98 -229 98 -229 125.5 -203.5 c 128,-1,8
 153 -178 153 -178 153 -146 c 0,9,10
 153 -98 153 -98 94 -77 c 1,11,12
 95 -58 95 -58 110 -40 c 1,13,0
 178 -44 178 -44 210 -74.5 c 128,-1,1
EndSplineSet
EndChar

StartChar: onesuperior
Encoding: 185 185 120
Width: 412
GlyphClass: 2
Flags: W
LayerCount: 2
Fore
SplineSet
266 268 m 1,0,1
 246 265 246 265 216.5 265 c 128,-1,2
 187 265 187 265 169.5 283 c 128,-1,3
 152 301 152 301 152 329.5 c 128,-1,4
 152 358 152 358 156.5 403.5 c 128,-1,5
 161 449 161 449 168 504 c 128,-1,6
 175 559 175 559 177 582 c 1,7,8
 135 559 135 559 120 559 c 0,9,10
 96 559 96 559 82 590.5 c 128,-1,11
 68 622 68 622 68 644 c 1,12,13
 188 676 188 676 292 724 c 1,14,15
 264 470 264 470 264 384 c 128,-1,16
 264 298 264 298 266 268 c 1,0,1
EndSplineSet
EndChar

StartChar: ordmasculine
Encoding: 186 186 121
Width: 380
GlyphClass: 2
Flags: W
LayerCount: 2
Fore
SplineSet
219 730 m 128,-1,1
 185 730 185 730 158 680.5 c 128,-1,2
 131 631 131 631 131 577 c 0,3,4
 131 483 131 483 176 483 c 0,5,6
 211 483 211 483 232 532 c 128,-1,7
 253 581 253 581 253 643 c 0,8,0
 253 730 253 730 219 730 c 128,-1,1
198 772 m 1,9,10
 225 786 225 786 259.5 786 c 128,-1,11
 294 786 294 786 322 749.5 c 128,-1,12
 350 713 350 713 350 652 c 0,13,14
 350 564 350 564 302.5 495.5 c 128,-1,15
 255 427 255 427 163 427 c 0,16,17
 108 427 108 427 67 468 c 128,-1,18
 26 509 26 509 26 586.5 c 128,-1,19
 26 664 26 664 64 722 c 128,-1,20
 102 780 102 780 166 796 c 1,21,22
 179 796 179 796 188.5 789 c 128,-1,23
 198 782 198 782 198 772 c 1,9,10
EndSplineSet
EndChar

StartChar: guillemotright
Encoding: 187 187 122
Width: 638
GlyphClass: 2
Flags: W
LayerCount: 2
Fore
SplineSet
271 115 m 1,0,1
 301 125 301 125 330.5 158 c 128,-1,2
 360 191 360 191 396.5 245 c 128,-1,3
 433 299 433 299 447 317 c 1,4,5
 436 336 436 336 411 389.5 c 128,-1,6
 386 443 386 443 363.5 476 c 128,-1,7
 341 509 341 509 314 519 c 1,8,9
 386 574 386 574 429 574 c 0,10,11
 457 574 457 574 478 540 c 128,-1,12
 499 506 499 506 509.5 463.5 c 128,-1,13
 520 421 520 421 538 379.5 c 128,-1,14
 556 338 556 338 578 327 c 1,15,-1
 575 307 l 1,16,17
 540 291 540 291 496 206 c 0,18,19
 479 171 479 171 460 138 c 1,20,21
 418 60 418 60 374.5 60 c 128,-1,22
 331 60 331 60 271 115 c 1,0,1
133 60 m 0,23,24
 90 60 90 60 30 115 c 1,25,26
 60 125 60 125 89.5 158 c 128,-1,27
 119 191 119 191 155.5 245 c 128,-1,28
 192 299 192 299 206 317 c 1,29,30
 195 336 195 336 170 389.5 c 128,-1,31
 145 443 145 443 122.5 476 c 128,-1,32
 100 509 100 509 73 519 c 1,33,34
 145 574 145 574 188 574 c 0,35,36
 216 574 216 574 237 540 c 128,-1,37
 258 506 258 506 268.5 463.5 c 128,-1,38
 279 421 279 421 297 379.5 c 128,-1,39
 315 338 315 338 337 327 c 1,40,-1
 334 307 l 1,41,42
 291 287 291 287 238 170 c 0,43,44
 218 128 218 128 189.5 94 c 128,-1,45
 161 60 161 60 133 60 c 0,23,24
EndSplineSet
EndChar

StartChar: onequarter
Encoding: 188 188 123
Width: 840
GlyphClass: 2
Flags: W
LayerCount: 2
Fore
SplineSet
475 70 m 1,0,1
 457 93 457 93 457 114 c 128,-1,2
 457 135 457 135 486 180 c 0,3,4
 587 337 587 337 611 450 c 1,5,6
 643 439 643 439 669 417 c 128,-1,7
 695 395 695 395 695 373.5 c 128,-1,8
 695 352 695 352 677.5 320.5 c 128,-1,9
 660 289 660 289 623 235.5 c 128,-1,10
 586 182 586 182 564 143 c 1,11,12
 596 144 596 144 648 148 c 1,13,14
 654 185 654 185 654 241 c 1,15,16
 676 245 676 245 703 245 c 0,17,18
 753 245 753 245 753 204 c 0,19,20
 753 192 753 192 747 156 c 1,21,-1
 781 160 l 1,22,23
 788 132 788 132 788 117 c 0,24,25
 788 63 788 63 736 59 c 1,26,27
 736 -3 736 -3 742 -32 c 1,28,29
 722 -35 722 -35 692.5 -35 c 128,-1,30
 663 -35 663 -35 645.5 -17 c 128,-1,31
 628 1 628 1 628 22 c 128,-1,32
 628 43 628 43 632 60 c 1,33,34
 497 62 497 62 475 70 c 1,0,1
242 216 m 1,35,36
 222 213 222 213 192.5 213 c 128,-1,37
 163 213 163 213 145.5 231 c 128,-1,38
 128 249 128 249 128 277.5 c 128,-1,39
 128 306 128 306 132.5 351.5 c 128,-1,40
 137 397 137 397 144 452 c 128,-1,41
 151 507 151 507 153 530 c 1,42,43
 111 507 111 507 96 507 c 0,44,45
 72 507 72 507 58 538.5 c 128,-1,46
 44 570 44 570 44 592 c 1,47,48
 164 624 164 624 268 672 c 1,49,50
 240 418 240 418 240 332 c 128,-1,51
 240 246 240 246 242 216 c 1,35,36
531.5 722.5 m 128,-1,53
 550 696 550 696 550 661 c 128,-1,54
 550 626 550 626 503 491 c 128,-1,55
 456 356 456 356 401.5 188 c 128,-1,56
 347 20 347 20 333 -82 c 1,57,58
 323 -82 323 -82 301.5 -74 c 128,-1,59
 280 -66 280 -66 266.5 -57 c 128,-1,60
 253 -48 253 -48 242 -29 c 128,-1,61
 231 -10 231 -10 231 14 c 0,62,63
 231 59 231 59 286 201.5 c 128,-1,64
 341 344 341 344 404.5 512 c 128,-1,65
 468 680 468 680 483 768 c 1,66,67
 491 764 491 764 502 756.5 c 128,-1,52
 513 749 513 749 531.5 722.5 c 128,-1,53
EndSplineSet
EndChar

StartChar: onehalf
Encoding: 189 189 124
Width: 840
GlyphClass: 2
Flags: W
LayerCount: 2
Fore
SplineSet
726 -25 m 1,0,-1
 559 -13 l 1,1,2
 501 -13 501 -13 449 -36 c 1,3,4
 449 -14 449 -14 458 11 c 1,5,6
 477 57 477 57 527 67 c 1,7,8
 693 203 693 203 693 298 c 0,9,10
 693 324 693 324 679 339 c 128,-1,11
 665 354 665 354 647.5 354 c 128,-1,12
 630 354 630 354 617.5 341 c 128,-1,13
 605 328 605 328 605 299.5 c 128,-1,14
 605 271 605 271 630 240 c 1,15,16
 617 236 617 236 600 236 c 0,17,18
 564 236 564 236 539.5 257 c 128,-1,19
 515 278 515 278 515 318.5 c 128,-1,20
 515 359 515 359 551.5 391 c 128,-1,21
 588 423 588 423 653 423 c 128,-1,22
 718 423 718 423 761 392.5 c 128,-1,23
 804 362 804 362 804 305.5 c 128,-1,24
 804 249 804 249 760 187 c 128,-1,25
 716 125 716 125 630 68 c 1,26,-1
 686 68 l 2,27,28
 749 68 749 68 804 93 c 1,29,30
 801 29 801 29 784.5 2 c 128,-1,31
 768 -25 768 -25 726 -25 c 1,0,-1
242 216 m 1,32,33
 222 213 222 213 192.5 213 c 128,-1,34
 163 213 163 213 145.5 231 c 128,-1,35
 128 249 128 249 128 277.5 c 128,-1,36
 128 306 128 306 132.5 351.5 c 128,-1,37
 137 397 137 397 144 452 c 128,-1,38
 151 507 151 507 153 530 c 1,39,40
 111 507 111 507 96 507 c 0,41,42
 72 507 72 507 58 538.5 c 128,-1,43
 44 570 44 570 44 592 c 1,44,45
 164 624 164 624 268 672 c 1,46,47
 240 418 240 418 240 332 c 128,-1,48
 240 246 240 246 242 216 c 1,32,33
531.5 722.5 m 128,-1,50
 550 696 550 696 550 661 c 128,-1,51
 550 626 550 626 503 491 c 128,-1,52
 456 356 456 356 401.5 188 c 128,-1,53
 347 20 347 20 333 -82 c 1,54,55
 323 -82 323 -82 301.5 -74 c 128,-1,56
 280 -66 280 -66 266.5 -57 c 128,-1,57
 253 -48 253 -48 242 -29 c 128,-1,58
 231 -10 231 -10 231 14 c 0,59,60
 231 59 231 59 286 201.5 c 128,-1,61
 341 344 341 344 404.5 512 c 128,-1,62
 468 680 468 680 483 768 c 1,63,64
 491 764 491 764 502 756.5 c 128,-1,49
 513 749 513 749 531.5 722.5 c 128,-1,50
EndSplineSet
EndChar

StartChar: threequarters
Encoding: 190 190 125
Width: 840
GlyphClass: 2
Flags: W
LayerCount: 2
Fore
SplineSet
286 642.5 m 128,-1,1
 325 615 325 615 325 560.5 c 128,-1,2
 325 506 325 506 259 464 c 1,3,4
 292 450 292 450 311.5 420.5 c 128,-1,5
 331 391 331 391 331 357 c 0,6,7
 331 305 331 305 282.5 260 c 128,-1,8
 234 215 234 215 161 215 c 128,-1,9
 88 215 88 215 54.5 245.5 c 128,-1,10
 21 276 21 276 21 313.5 c 128,-1,11
 21 351 21 351 42.5 375 c 128,-1,12
 64 399 64 399 97.5 399 c 128,-1,13
 131 399 131 399 153 388 c 1,14,15
 114 367 114 367 114 330 c 0,16,17
 114 308 114 308 126.5 296.5 c 128,-1,18
 139 285 139 285 161 285 c 128,-1,19
 183 285 183 285 201.5 302.5 c 128,-1,20
 220 320 220 320 220 349 c 128,-1,21
 220 378 220 378 202.5 399.5 c 128,-1,22
 185 421 185 421 150 427 c 1,23,24
 141 425 141 425 123 423 c 1,25,-1
 117 462 l 1,26,27
 224 480 224 480 224 557 c 0,28,29
 224 580 224 580 211.5 593.5 c 128,-1,30
 199 607 199 607 183.5 607 c 128,-1,31
 168 607 168 607 156.5 595.5 c 128,-1,32
 145 584 145 584 145 558 c 128,-1,33
 145 532 145 532 167 504 c 1,34,35
 155 500 155 500 131 500 c 128,-1,36
 107 500 107 500 85 519.5 c 128,-1,37
 63 539 63 539 63 575 c 128,-1,38
 63 611 63 611 96.5 640.5 c 128,-1,39
 130 670 130 670 188.5 670 c 128,-1,0
 247 670 247 670 286 642.5 c 128,-1,1
490 70 m 1,40,41
 472 93 472 93 472 114 c 128,-1,42
 472 135 472 135 501 180 c 0,43,44
 602 337 602 337 626 450 c 1,45,46
 658 439 658 439 684 417 c 128,-1,47
 710 395 710 395 710 373.5 c 128,-1,48
 710 352 710 352 692.5 320.5 c 128,-1,49
 675 289 675 289 638 235.5 c 128,-1,50
 601 182 601 182 579 143 c 1,51,52
 611 144 611 144 663 148 c 1,53,54
 669 185 669 185 669 241 c 1,55,56
 691 245 691 245 718 245 c 0,57,58
 768 245 768 245 768 204 c 0,59,60
 768 192 768 192 762 156 c 1,61,-1
 796 160 l 1,62,63
 803 132 803 132 803 117 c 0,64,65
 803 63 803 63 751 59 c 1,66,67
 751 -3 751 -3 757 -32 c 1,68,69
 737 -35 737 -35 707.5 -35 c 128,-1,70
 678 -35 678 -35 660.5 -17 c 128,-1,71
 643 1 643 1 643 22 c 128,-1,72
 643 43 643 43 647 60 c 1,73,74
 512 62 512 62 490 70 c 1,40,41
568.5 722.5 m 128,-1,76
 587 696 587 696 587 661 c 128,-1,77
 587 626 587 626 540 491 c 128,-1,78
 493 356 493 356 438.5 188 c 128,-1,79
 384 20 384 20 370 -82 c 1,80,81
 360 -82 360 -82 338.5 -74 c 128,-1,82
 317 -66 317 -66 303.5 -57 c 128,-1,83
 290 -48 290 -48 279 -29 c 128,-1,84
 268 -10 268 -10 268 14 c 0,85,86
 268 59 268 59 323 201.5 c 128,-1,87
 378 344 378 344 441.5 512 c 128,-1,88
 505 680 505 680 520 768 c 1,89,90
 528 764 528 764 539 756.5 c 128,-1,75
 550 749 550 749 568.5 722.5 c 128,-1,76
EndSplineSet
EndChar

StartChar: questiondown
Encoding: 191 191 126
Width: 373
GlyphClass: 2
Flags: W
LayerCount: 2
Fore
SplineSet
228 397 m 0,0,1
 154 397 154 397 154 459 c 0,2,3
 154 479 154 479 172 544 c 1,4,5
 207 554 207 554 243 554 c 0,6,7
 317 554 317 554 317 492 c 0,8,9
 317 472 317 472 299 407 c 1,10,11
 264 397 264 397 228 397 c 0,0,1
176 337 m 1,12,13
 298 305 298 305 298 219 c 0,14,15
 298 153 298 153 218 91 c 0,16,17
 184 65 184 65 150.5 39 c 128,-1,18
 117 13 117 13 93.5 -20.5 c 128,-1,19
 70 -54 70 -54 70 -89.5 c 128,-1,20
 70 -125 70 -125 92.5 -144 c 128,-1,21
 115 -163 115 -163 152.5 -163 c 128,-1,22
 190 -163 190 -163 214 -135.5 c 128,-1,23
 238 -108 238 -108 238 -70 c 128,-1,24
 238 -32 238 -32 213 -2 c 1,25,26
 234 6 234 6 266.5 6 c 128,-1,27
 299 6 299 6 326 -20 c 128,-1,28
 353 -46 353 -46 353 -89 c 0,29,30
 353 -153 353 -153 288.5 -193 c 128,-1,31
 224 -233 224 -233 140.5 -233 c 128,-1,32
 57 -233 57 -233 -1.5 -190 c 128,-1,33
 -60 -147 -60 -147 -60 -63 c 0,34,35
 -60 -13 -60 -13 -34.5 28.5 c 128,-1,36
 -9 70 -9 70 27 99 c 128,-1,37
 63 128 63 128 100 154 c 0,38,39
 187 216 187 216 187 275 c 0,40,41
 187 311 187 311 176 337 c 1,12,13
EndSplineSet
EndChar

StartChar: Agrave
Encoding: 192 192 127
Width: 645
GlyphClass: 2
Flags: W
LayerCount: 2
Fore
SplineSet
-20 44 m 0,0,1
 -20 63 -20 63 38 186 c 128,-1,2
 96 309 96 309 169.5 465.5 c 128,-1,3
 243 622 243 622 269 693 c 2,4,-1
 287 742 l 1,5,6
 279 756 279 756 248 793 c 1,7,8
 284 805 284 805 310.5 805 c 128,-1,9
 337 805 337 805 354.5 801 c 128,-1,10
 372 797 372 797 385.5 787.5 c 128,-1,11
 399 778 399 778 409.5 768 c 128,-1,12
 420 758 420 758 429 738.5 c 128,-1,13
 438 719 438 719 444 703.5 c 128,-1,14
 450 688 450 688 457.5 660 c 128,-1,15
 465 632 465 632 469.5 611.5 c 128,-1,16
 474 591 474 591 481.5 554.5 c 128,-1,17
 489 518 489 518 497 484 c 128,-1,18
 505 450 505 450 525 354.5 c 128,-1,19
 545 259 545 259 556.5 211.5 c 128,-1,20
 568 164 568 164 589.5 105 c 128,-1,21
 611 46 611 46 635 12 c 1,22,23
 577 -16 577 -16 541 -16 c 128,-1,24
 505 -16 505 -16 488 2.5 c 128,-1,25
 471 21 471 21 459 58.5 c 128,-1,26
 447 96 447 96 412 260 c 1,27,28
 389 240 389 240 337 238 c 2,29,-1
 166 232 l 1,30,31
 105 83 105 83 76 -33 c 1,32,33
 -20 1 -20 1 -20 44 c 0,0,1
333 609 m 1,34,35
 319 577 319 577 271.5 472.5 c 128,-1,36
 224 368 224 368 198 306 c 1,37,-1
 403 306 l 1,38,39
 356 522 356 522 333 609 c 1,34,35
501 881 m 1,40,41
 499 870 499 870 487 860.5 c 128,-1,42
 475 851 475 851 459 848 c 1,43,44
 421 891 421 891 360.5 931.5 c 128,-1,45
 300 972 300 972 237 989 c 1,46,47
 240 1058 240 1058 300 1096 c 1,48,49
 356 1073 356 1073 415 1007.5 c 128,-1,50
 474 942 474 942 501 881 c 1,40,41
EndSplineSet
EndChar

StartChar: Aacute
Encoding: 193 193 128
Width: 645
GlyphClass: 2
Flags: W
LayerCount: 2
Fore
SplineSet
-20 44 m 0,0,1
 -20 63 -20 63 38 186 c 128,-1,2
 96 309 96 309 169.5 465.5 c 128,-1,3
 243 622 243 622 269 693 c 2,4,-1
 287 742 l 1,5,6
 279 756 279 756 248 793 c 1,7,8
 284 805 284 805 310.5 805 c 128,-1,9
 337 805 337 805 354.5 801 c 128,-1,10
 372 797 372 797 385.5 787.5 c 128,-1,11
 399 778 399 778 409.5 768 c 128,-1,12
 420 758 420 758 429 738.5 c 128,-1,13
 438 719 438 719 444 703.5 c 128,-1,14
 450 688 450 688 457.5 660 c 128,-1,15
 465 632 465 632 469.5 611.5 c 128,-1,16
 474 591 474 591 481.5 554.5 c 128,-1,17
 489 518 489 518 497 484 c 128,-1,18
 505 450 505 450 525 354.5 c 128,-1,19
 545 259 545 259 556.5 211.5 c 128,-1,20
 568 164 568 164 589.5 105 c 128,-1,21
 611 46 611 46 635 12 c 1,22,23
 577 -16 577 -16 541 -16 c 128,-1,24
 505 -16 505 -16 488 2.5 c 128,-1,25
 471 21 471 21 459 58.5 c 128,-1,26
 447 96 447 96 412 260 c 1,27,28
 389 240 389 240 337 238 c 2,29,-1
 166 232 l 1,30,31
 105 83 105 83 76 -33 c 1,32,33
 -20 1 -20 1 -20 44 c 0,0,1
333 609 m 1,34,35
 319 577 319 577 271.5 472.5 c 128,-1,36
 224 368 224 368 198 306 c 1,37,-1
 403 306 l 1,38,39
 356 522 356 522 333 609 c 1,34,35
231 881 m 1,40,41
 258 942 258 942 317 1007.5 c 128,-1,42
 376 1073 376 1073 432 1096 c 1,43,44
 492 1058 492 1058 495 989 c 1,45,46
 432 972 432 972 371.5 931.5 c 128,-1,47
 311 891 311 891 273 848 c 1,48,49
 257 851 257 851 245 860.5 c 128,-1,50
 233 870 233 870 231 881 c 1,40,41
EndSplineSet
EndChar

StartChar: Acircumflex
Encoding: 194 194 129
Width: 645
GlyphClass: 2
Flags: W
LayerCount: 2
Fore
SplineSet
-20 44 m 0,0,1
 -20 63 -20 63 38 186 c 128,-1,2
 96 309 96 309 169.5 465.5 c 128,-1,3
 243 622 243 622 269 693 c 2,4,-1
 287 742 l 1,5,6
 279 756 279 756 248 793 c 1,7,8
 284 805 284 805 310.5 805 c 128,-1,9
 337 805 337 805 354.5 801 c 128,-1,10
 372 797 372 797 385.5 787.5 c 128,-1,11
 399 778 399 778 409.5 768 c 128,-1,12
 420 758 420 758 429 738.5 c 128,-1,13
 438 719 438 719 444 703.5 c 128,-1,14
 450 688 450 688 457.5 660 c 128,-1,15
 465 632 465 632 469.5 611.5 c 128,-1,16
 474 591 474 591 481.5 554.5 c 128,-1,17
 489 518 489 518 497 484 c 128,-1,18
 505 450 505 450 525 354.5 c 128,-1,19
 545 259 545 259 556.5 211.5 c 128,-1,20
 568 164 568 164 589.5 105 c 128,-1,21
 611 46 611 46 635 12 c 1,22,23
 577 -16 577 -16 541 -16 c 128,-1,24
 505 -16 505 -16 488 2.5 c 128,-1,25
 471 21 471 21 459 58.5 c 128,-1,26
 447 96 447 96 412 260 c 1,27,28
 389 240 389 240 337 238 c 2,29,-1
 166 232 l 1,30,31
 105 83 105 83 76 -33 c 1,32,33
 -20 1 -20 1 -20 44 c 0,0,1
333 609 m 1,34,35
 319 577 319 577 271.5 472.5 c 128,-1,36
 224 368 224 368 198 306 c 1,37,-1
 403 306 l 1,38,39
 356 522 356 522 333 609 c 1,34,35
543 877 m 1,40,41
 506 866 506 866 466.5 866 c 128,-1,42
 427 866 427 866 410 887.5 c 128,-1,43
 393 909 393 909 376 976 c 1,44,45
 324 896 324 896 242 849 c 1,46,47
 192 883 192 883 191 938 c 1,48,49
 273 989 273 989 314 1030 c 2,50,-1
 337 1053 l 2,51,52
 343 1059 343 1059 359 1078.5 c 128,-1,53
 375 1098 375 1098 379 1102 c 1,54,55
 415 1102 415 1102 434 1082 c 128,-1,56
 453 1062 453 1062 460 1034 c 128,-1,57
 467 1006 467 1006 488 960 c 128,-1,58
 509 914 509 914 543 877 c 1,40,41
EndSplineSet
EndChar

StartChar: Atilde
Encoding: 195 195 130
Width: 645
GlyphClass: 2
Flags: W
LayerCount: 2
Fore
SplineSet
-20 44 m 0,0,1
 -20 63 -20 63 38 186 c 128,-1,2
 96 309 96 309 169.5 465.5 c 128,-1,3
 243 622 243 622 269 693 c 2,4,-1
 287 742 l 1,5,6
 279 756 279 756 248 793 c 1,7,8
 284 805 284 805 310.5 805 c 128,-1,9
 337 805 337 805 354.5 801 c 128,-1,10
 372 797 372 797 385.5 787.5 c 128,-1,11
 399 778 399 778 409.5 768 c 128,-1,12
 420 758 420 758 429 738.5 c 128,-1,13
 438 719 438 719 444 703.5 c 128,-1,14
 450 688 450 688 457.5 660 c 128,-1,15
 465 632 465 632 469.5 611.5 c 128,-1,16
 474 591 474 591 481.5 554.5 c 128,-1,17
 489 518 489 518 497 484 c 128,-1,18
 505 450 505 450 525 354.5 c 128,-1,19
 545 259 545 259 556.5 211.5 c 128,-1,20
 568 164 568 164 589.5 105 c 128,-1,21
 611 46 611 46 635 12 c 1,22,23
 577 -16 577 -16 541 -16 c 128,-1,24
 505 -16 505 -16 488 2.5 c 128,-1,25
 471 21 471 21 459 58.5 c 128,-1,26
 447 96 447 96 412 260 c 1,27,28
 389 240 389 240 337 238 c 2,29,-1
 166 232 l 1,30,31
 105 83 105 83 76 -33 c 1,32,33
 -20 1 -20 1 -20 44 c 0,0,1
333 609 m 1,34,35
 319 577 319 577 271.5 472.5 c 128,-1,36
 224 368 224 368 198 306 c 1,37,-1
 403 306 l 1,38,39
 356 522 356 522 333 609 c 1,34,35
507.5 924 m 128,-1,41
 479 894 479 894 446 894 c 128,-1,42
 413 894 413 894 365.5 908 c 128,-1,43
 318 922 318 922 299 922 c 0,44,45
 251 922 251 922 224 879 c 1,46,47
 201 883 201 883 197 903 c 1,48,49
 205 972 205 972 233.5 1002 c 128,-1,50
 262 1032 262 1032 295 1032 c 128,-1,51
 328 1032 328 1032 375.5 1018 c 128,-1,52
 423 1004 423 1004 442 1004 c 0,53,54
 490 1004 490 1004 517 1047 c 1,55,56
 540 1043 540 1043 544 1023 c 1,57,40
 536 954 536 954 507.5 924 c 128,-1,41
EndSplineSet
EndChar

StartChar: Adieresis
Encoding: 196 196 131
Width: 645
GlyphClass: 2
Flags: W
LayerCount: 2
Fore
SplineSet
-20 44 m 0,0,1
 -20 63 -20 63 38 186 c 128,-1,2
 96 309 96 309 169.5 465.5 c 128,-1,3
 243 622 243 622 269 693 c 2,4,-1
 287 742 l 1,5,6
 279 756 279 756 248 793 c 1,7,8
 284 805 284 805 310.5 805 c 128,-1,9
 337 805 337 805 354.5 801 c 128,-1,10
 372 797 372 797 385.5 787.5 c 128,-1,11
 399 778 399 778 409.5 768 c 128,-1,12
 420 758 420 758 429 738.5 c 128,-1,13
 438 719 438 719 444 703.5 c 128,-1,14
 450 688 450 688 457.5 660 c 128,-1,15
 465 632 465 632 469.5 611.5 c 128,-1,16
 474 591 474 591 481.5 554.5 c 128,-1,17
 489 518 489 518 497 484 c 128,-1,18
 505 450 505 450 525 354.5 c 128,-1,19
 545 259 545 259 556.5 211.5 c 128,-1,20
 568 164 568 164 589.5 105 c 128,-1,21
 611 46 611 46 635 12 c 1,22,23
 577 -16 577 -16 541 -16 c 128,-1,24
 505 -16 505 -16 488 2.5 c 128,-1,25
 471 21 471 21 459 58.5 c 128,-1,26
 447 96 447 96 412 260 c 1,27,28
 389 240 389 240 337 238 c 2,29,-1
 166 232 l 1,30,31
 105 83 105 83 76 -33 c 1,32,33
 -20 1 -20 1 -20 44 c 0,0,1
333 609 m 1,34,35
 319 577 319 577 271.5 472.5 c 128,-1,36
 224 368 224 368 198 306 c 1,37,-1
 403 306 l 1,38,39
 356 522 356 522 333 609 c 1,34,35
286 896 m 0,40,41
 183 896 183 896 183 968 c 0,42,43
 183 994 183 994 198 1039 c 1,44,45
 226 1043 226 1043 247 1043 c 0,46,47
 350 1043 350 1043 350 971 c 0,48,49
 350 945 350 945 335 900 c 1,50,51
 307 896 307 896 286 896 c 0,40,41
496 896 m 0,52,53
 393 896 393 896 393 968 c 0,54,55
 393 994 393 994 408 1039 c 1,56,57
 436 1043 436 1043 457 1043 c 0,58,59
 560 1043 560 1043 560 971 c 0,60,61
 560 945 560 945 545 900 c 1,62,63
 517 896 517 896 496 896 c 0,52,53
EndSplineSet
EndChar

StartChar: Aring
Encoding: 197 197 132
Width: 645
GlyphClass: 2
Flags: W
LayerCount: 2
Fore
SplineSet
-20 44 m 0,0,1
 -20 63 -20 63 38 186 c 128,-1,2
 96 309 96 309 169.5 465.5 c 128,-1,3
 243 622 243 622 269 693 c 2,4,-1
 287 742 l 1,5,6
 279 756 279 756 248 793 c 1,7,8
 284 805 284 805 310.5 805 c 128,-1,9
 337 805 337 805 354.5 801 c 128,-1,10
 372 797 372 797 385.5 787.5 c 128,-1,11
 399 778 399 778 409.5 768 c 128,-1,12
 420 758 420 758 429 738.5 c 128,-1,13
 438 719 438 719 444 703.5 c 128,-1,14
 450 688 450 688 457.5 660 c 128,-1,15
 465 632 465 632 469.5 611.5 c 128,-1,16
 474 591 474 591 481.5 554.5 c 128,-1,17
 489 518 489 518 497 484 c 128,-1,18
 505 450 505 450 525 354.5 c 128,-1,19
 545 259 545 259 556.5 211.5 c 128,-1,20
 568 164 568 164 589.5 105 c 128,-1,21
 611 46 611 46 635 12 c 1,22,23
 577 -16 577 -16 541 -16 c 128,-1,24
 505 -16 505 -16 488 2.5 c 128,-1,25
 471 21 471 21 459 58.5 c 128,-1,26
 447 96 447 96 412 260 c 1,27,28
 389 240 389 240 337 238 c 2,29,-1
 166 232 l 1,30,31
 105 83 105 83 76 -33 c 1,32,33
 -20 1 -20 1 -20 44 c 0,0,1
333 609 m 1,34,35
 319 577 319 577 271.5 472.5 c 128,-1,36
 224 368 224 368 198 306 c 1,37,-1
 403 306 l 1,38,39
 356 522 356 522 333 609 c 1,34,35
415 977 m 0,40,41
 415 1010 415 1010 376 1010 c 0,42,43
 357 1010 357 1010 340 1005 c 1,44,45
 330 965 330 965 330 960 c 0,46,47
 330 927 330 927 369 927 c 0,48,49
 388 927 388 927 405 932 c 1,50,51
 415 972 415 972 415 977 c 0,40,41
360 846 m 0,52,53
 247 846 247 846 247 943 c 0,54,55
 247 990 247 990 275 1074 c 1,56,57
 335 1091 335 1091 385 1091 c 0,58,59
 498 1091 498 1091 498 994 c 0,60,61
 498 947 498 947 470 863 c 1,62,63
 410 846 410 846 360 846 c 0,52,53
EndSplineSet
EndChar

StartChar: AE
Encoding: 198 198 133
Width: 941
GlyphClass: 2
Flags: W
LayerCount: 2
Fore
SplineSet
722 334 m 2,0,-1
 626 335 l 2,1,2
 586 335 586 335 559 334 c 1,3,4
 544 201 544 201 543 106 c 1,5,6
 778 106 778 106 892 144 c 1,7,8
 883 70 883 70 847 29 c 128,-1,9
 811 -12 811 -12 757 -12 c 0,10,11
 741 -12 741 -12 660 -3.5 c 128,-1,12
 579 5 579 5 503.5 5 c 128,-1,13
 428 5 428 5 352 -12 c 1,14,15
 363 35 363 35 400 65 c 1,16,-1
 400 69 l 2,17,18
 400 126 400 126 430 329 c 1,19,20
 308 320 308 320 260 299 c 1,21,22
 258 321 258 321 258 332 c 0,23,24
 258 387 258 387 292.5 406 c 128,-1,25
 327 425 327 425 392 425 c 2,26,-1
 443 425 l 1,27,28
 464 581 464 581 467 685 c 1,29,30
 432 690 432 690 412 695 c 1,31,32
 387 634 387 634 315 498 c 0,33,34
 124 135 124 135 71 -33 c 1,35,36
 -25 1 -25 1 -25 44 c 0,37,38
 -25 64 -25 64 39 184 c 128,-1,39
 103 304 103 304 189 459.5 c 128,-1,40
 275 615 275 615 306 681 c 2,41,-1
 358 790 l 1,42,43
 471 775 471 775 635.5 775 c 128,-1,44
 800 775 800 775 926 799 c 1,45,46
 914 716 914 716 850 688 c 1,47,48
 797 666 797 666 722.5 666 c 128,-1,49
 648 666 648 666 600 670 c 1,50,51
 599 643 599 643 569 422 c 1,52,-1
 653 422 l 2,53,54
 748 422 748 422 788 455 c 1,55,56
 790 435 790 435 790 425 c 0,57,58
 790 334 790 334 722 334 c 2,0,-1
EndSplineSet
EndChar

StartChar: Ccedilla
Encoding: 199 199 134
Width: 687
GlyphClass: 2
Flags: W
LayerCount: 2
Fore
SplineSet
323 -15 m 0,0,1
 205 -15 205 -15 125 75 c 128,-1,2
 45 165 45 165 45 337 c 0,3,4
 45 529 45 529 144 664 c 1,5,6
 193 729 193 729 269.5 767.5 c 128,-1,7
 346 806 346 806 446.5 806 c 128,-1,8
 547 806 547 806 599.5 752.5 c 128,-1,9
 652 699 652 699 652 626.5 c 128,-1,10
 652 554 652 554 612 508.5 c 128,-1,11
 572 463 572 463 508 463 c 0,12,13
 486 463 486 463 457 471 c 1,14,15
 478 497 478 497 494 545 c 128,-1,16
 510 593 510 593 510 636 c 128,-1,17
 510 679 510 679 490 706 c 128,-1,18
 470 733 470 733 427 733 c 0,19,20
 361 733 361 733 308 672 c 128,-1,21
 255 611 255 611 229 522 c 128,-1,22
 203 433 203 433 203 338 c 0,23,24
 203 210 203 210 253 144 c 128,-1,25
 303 78 303 78 381 78 c 0,26,27
 430 78 430 78 483 111 c 128,-1,28
 536 144 536 144 584 205 c 1,29,30
 621 197 621 197 621 168 c 1,31,32
 583 99 583 99 528 56 c 128,-1,33
 473 13 473 13 424 -1 c 128,-1,34
 375 -15 375 -15 323 -15 c 0,0,1
350 -74.5 m 128,-1,36
 382 -105 382 -105 382 -157 c 128,-1,37
 382 -209 382 -209 344.5 -257 c 128,-1,38
 307 -305 307 -305 244 -323 c 1,39,40
 190 -303 190 -303 190 -238 c 1,41,42
 238 -229 238 -229 265.5 -203.5 c 128,-1,43
 293 -178 293 -178 293 -146 c 0,44,45
 293 -98 293 -98 234 -77 c 1,46,47
 235 -58 235 -58 250 -40 c 1,48,35
 318 -44 318 -44 350 -74.5 c 128,-1,36
EndSplineSet
EndChar

StartChar: Egrave
Encoding: 200 200 135
Width: 631
GlyphClass: 2
Flags: W
LayerCount: 2
Fore
SplineSet
412 334 m 2,0,-1
 316 335 l 2,1,2
 272 335 272 335 249 334 c 1,3,4
 234 201 234 201 233 106 c 1,5,6
 468 106 468 106 582 144 c 1,7,8
 573 70 573 70 537 29 c 128,-1,9
 501 -12 501 -12 447 -12 c 0,10,11
 431 -12 431 -12 357.5 -3.5 c 128,-1,12
 284 5 284 5 202 5 c 128,-1,13
 120 5 120 5 42 -12 c 1,14,15
 53 35 53 35 90 65 c 1,16,-1
 90 69 l 2,17,18
 90 123 90 123 118 315 c 1,19,20
 93 306 93 306 75 299 c 1,21,22
 73 321 73 321 73 332 c 0,23,24
 73 399 73 399 132 417 c 1,25,26
 150 549 150 549 156 655 c 1,27,28
 119 657 119 657 109 672 c 128,-1,29
 99 687 99 687 99 731 c 1,30,31
 102 776 102 776 107 790 c 1,32,33
 219 775 219 775 354.5 775 c 128,-1,34
 490 775 490 775 616 799 c 1,35,36
 602 694 602 694 488 673 c 0,37,38
 421 660 421 660 289 656 c 1,39,40
 288 645 288 645 260 424 c 1,41,42
 320 422 320 422 343 422 c 0,43,44
 438 422 438 422 478 455 c 1,45,46
 480 435 480 435 480 425 c 0,47,48
 480 334 480 334 412 334 c 2,0,-1
506 881 m 1,49,50
 504 870 504 870 492 860.5 c 128,-1,51
 480 851 480 851 464 848 c 1,52,53
 426 891 426 891 365.5 931.5 c 128,-1,54
 305 972 305 972 242 989 c 1,55,56
 245 1058 245 1058 305 1096 c 1,57,58
 361 1073 361 1073 420 1007.5 c 128,-1,59
 479 942 479 942 506 881 c 1,49,50
EndSplineSet
EndChar

StartChar: Eacute
Encoding: 201 201 136
Width: 631
GlyphClass: 2
Flags: W
LayerCount: 2
Fore
SplineSet
412 334 m 2,0,-1
 316 335 l 2,1,2
 272 335 272 335 249 334 c 1,3,4
 234 201 234 201 233 106 c 1,5,6
 468 106 468 106 582 144 c 1,7,8
 573 70 573 70 537 29 c 128,-1,9
 501 -12 501 -12 447 -12 c 0,10,11
 431 -12 431 -12 357.5 -3.5 c 128,-1,12
 284 5 284 5 202 5 c 128,-1,13
 120 5 120 5 42 -12 c 1,14,15
 53 35 53 35 90 65 c 1,16,-1
 90 69 l 2,17,18
 90 123 90 123 118 315 c 1,19,20
 93 306 93 306 75 299 c 1,21,22
 73 321 73 321 73 332 c 0,23,24
 73 399 73 399 132 417 c 1,25,26
 150 549 150 549 156 655 c 1,27,28
 119 657 119 657 109 672 c 128,-1,29
 99 687 99 687 99 731 c 1,30,31
 102 776 102 776 107 790 c 1,32,33
 219 775 219 775 354.5 775 c 128,-1,34
 490 775 490 775 616 799 c 1,35,36
 602 694 602 694 488 673 c 0,37,38
 421 660 421 660 289 656 c 1,39,40
 288 645 288 645 260 424 c 1,41,42
 320 422 320 422 343 422 c 0,43,44
 438 422 438 422 478 455 c 1,45,46
 480 435 480 435 480 425 c 0,47,48
 480 334 480 334 412 334 c 2,0,-1
286 881 m 1,49,50
 313 942 313 942 372 1007.5 c 128,-1,51
 431 1073 431 1073 487 1096 c 1,52,53
 547 1058 547 1058 550 989 c 1,54,55
 487 972 487 972 426.5 931.5 c 128,-1,56
 366 891 366 891 328 848 c 1,57,58
 312 851 312 851 300 860.5 c 128,-1,59
 288 870 288 870 286 881 c 1,49,50
EndSplineSet
EndChar

StartChar: Ecircumflex
Encoding: 202 202 137
Width: 631
GlyphClass: 2
Flags: W
LayerCount: 2
Fore
SplineSet
412 334 m 2,0,-1
 316 335 l 2,1,2
 272 335 272 335 249 334 c 1,3,4
 234 201 234 201 233 106 c 1,5,6
 468 106 468 106 582 144 c 1,7,8
 573 70 573 70 537 29 c 128,-1,9
 501 -12 501 -12 447 -12 c 0,10,11
 431 -12 431 -12 357.5 -3.5 c 128,-1,12
 284 5 284 5 202 5 c 128,-1,13
 120 5 120 5 42 -12 c 1,14,15
 53 35 53 35 90 65 c 1,16,-1
 90 69 l 2,17,18
 90 123 90 123 118 315 c 1,19,20
 93 306 93 306 75 299 c 1,21,22
 73 321 73 321 73 332 c 0,23,24
 73 399 73 399 132 417 c 1,25,26
 150 549 150 549 156 655 c 1,27,28
 119 657 119 657 109 672 c 128,-1,29
 99 687 99 687 99 731 c 1,30,31
 102 776 102 776 107 790 c 1,32,33
 219 775 219 775 354.5 775 c 128,-1,34
 490 775 490 775 616 799 c 1,35,36
 602 694 602 694 488 673 c 0,37,38
 421 660 421 660 289 656 c 1,39,40
 288 645 288 645 260 424 c 1,41,42
 320 422 320 422 343 422 c 0,43,44
 438 422 438 422 478 455 c 1,45,46
 480 435 480 435 480 425 c 0,47,48
 480 334 480 334 412 334 c 2,0,-1
550 877 m 1,49,50
 513 866 513 866 473.5 866 c 128,-1,51
 434 866 434 866 417 887.5 c 128,-1,52
 400 909 400 909 383 976 c 1,53,54
 331 896 331 896 249 849 c 1,55,56
 199 883 199 883 198 938 c 1,57,58
 280 989 280 989 321 1030 c 2,59,-1
 344 1053 l 2,60,61
 350 1059 350 1059 366 1078.5 c 128,-1,62
 382 1098 382 1098 386 1102 c 1,63,64
 422 1102 422 1102 441 1082 c 128,-1,65
 460 1062 460 1062 467 1034 c 128,-1,66
 474 1006 474 1006 495 960 c 128,-1,67
 516 914 516 914 550 877 c 1,49,50
EndSplineSet
EndChar

StartChar: Edieresis
Encoding: 203 203 138
Width: 631
GlyphClass: 2
Flags: W
LayerCount: 2
Fore
SplineSet
412 334 m 2,0,-1
 316 335 l 2,1,2
 272 335 272 335 249 334 c 1,3,4
 234 201 234 201 233 106 c 1,5,6
 468 106 468 106 582 144 c 1,7,8
 573 70 573 70 537 29 c 128,-1,9
 501 -12 501 -12 447 -12 c 0,10,11
 431 -12 431 -12 357.5 -3.5 c 128,-1,12
 284 5 284 5 202 5 c 128,-1,13
 120 5 120 5 42 -12 c 1,14,15
 53 35 53 35 90 65 c 1,16,-1
 90 69 l 2,17,18
 90 123 90 123 118 315 c 1,19,20
 93 306 93 306 75 299 c 1,21,22
 73 321 73 321 73 332 c 0,23,24
 73 399 73 399 132 417 c 1,25,26
 150 549 150 549 156 655 c 1,27,28
 119 657 119 657 109 672 c 128,-1,29
 99 687 99 687 99 731 c 1,30,31
 102 776 102 776 107 790 c 1,32,33
 219 775 219 775 354.5 775 c 128,-1,34
 490 775 490 775 616 799 c 1,35,36
 602 694 602 694 488 673 c 0,37,38
 421 660 421 660 289 656 c 1,39,40
 288 645 288 645 260 424 c 1,41,42
 320 422 320 422 343 422 c 0,43,44
 438 422 438 422 478 455 c 1,45,46
 480 435 480 435 480 425 c 0,47,48
 480 334 480 334 412 334 c 2,0,-1
298 896 m 0,49,50
 195 896 195 896 195 968 c 0,51,52
 195 994 195 994 210 1039 c 1,53,54
 238 1043 238 1043 259 1043 c 0,55,56
 362 1043 362 1043 362 971 c 0,57,58
 362 945 362 945 347 900 c 1,59,60
 319 896 319 896 298 896 c 0,49,50
508 896 m 0,61,62
 405 896 405 896 405 968 c 0,63,64
 405 994 405 994 420 1039 c 1,65,66
 448 1043 448 1043 469 1043 c 0,67,68
 572 1043 572 1043 572 971 c 0,69,70
 572 945 572 945 557 900 c 1,71,72
 529 896 529 896 508 896 c 0,61,62
EndSplineSet
EndChar

StartChar: Igrave
Encoding: 204 204 139
Width: 344
GlyphClass: 2
Flags: W
LayerCount: 2
Fore
SplineSet
272.5 723 m 128,-1,1
 274 709 274 709 274 672 c 128,-1,2
 274 635 274 635 241 409 c 128,-1,3
 208 183 208 183 208 92.5 c 128,-1,4
 208 2 208 2 222 -31 c 1,5,6
 137 -9 137 -9 106 27.5 c 128,-1,7
 75 64 75 64 75 129 c 0,8,9
 75 167 75 167 96 322 c 1,10,11
 133 579 133 579 133 720 c 0,12,13
 133 750 133 750 129 802 c 1,14,15
 205 798 205 798 240 778 c 0,16,17
 255 770 255 770 263 753.5 c 128,-1,0
 271 737 271 737 272.5 723 c 128,-1,1
340 881 m 1,18,19
 338 870 338 870 326 860.5 c 128,-1,20
 314 851 314 851 298 848 c 1,21,22
 260 891 260 891 199.5 931.5 c 128,-1,23
 139 972 139 972 76 989 c 1,24,25
 79 1058 79 1058 139 1096 c 1,26,27
 195 1073 195 1073 254 1007.5 c 128,-1,28
 313 942 313 942 340 881 c 1,18,19
EndSplineSet
EndChar

StartChar: Iacute
Encoding: 205 205 140
Width: 344
GlyphClass: 2
Flags: W
LayerCount: 2
Fore
SplineSet
272.5 723 m 128,-1,1
 274 709 274 709 274 672 c 128,-1,2
 274 635 274 635 241 409 c 128,-1,3
 208 183 208 183 208 92.5 c 128,-1,4
 208 2 208 2 222 -31 c 1,5,6
 137 -9 137 -9 106 27.5 c 128,-1,7
 75 64 75 64 75 129 c 0,8,9
 75 167 75 167 96 322 c 1,10,11
 133 579 133 579 133 720 c 0,12,13
 133 750 133 750 129 802 c 1,14,15
 205 798 205 798 240 778 c 0,16,17
 255 770 255 770 263 753.5 c 128,-1,0
 271 737 271 737 272.5 723 c 128,-1,1
89 881 m 1,18,19
 116 942 116 942 175 1007.5 c 128,-1,20
 234 1073 234 1073 290 1096 c 1,21,22
 350 1058 350 1058 353 989 c 1,23,24
 290 972 290 972 229.5 931.5 c 128,-1,25
 169 891 169 891 131 848 c 1,26,27
 115 851 115 851 103 860.5 c 128,-1,28
 91 870 91 870 89 881 c 1,18,19
EndSplineSet
EndChar

StartChar: Icircumflex
Encoding: 206 206 141
Width: 344
GlyphClass: 2
Flags: W
LayerCount: 2
Fore
SplineSet
272.5 723 m 128,-1,1
 274 709 274 709 274 672 c 128,-1,2
 274 635 274 635 241 409 c 128,-1,3
 208 183 208 183 208 92.5 c 128,-1,4
 208 2 208 2 222 -31 c 1,5,6
 137 -9 137 -9 106 27.5 c 128,-1,7
 75 64 75 64 75 129 c 0,8,9
 75 167 75 167 96 322 c 1,10,11
 133 579 133 579 133 720 c 0,12,13
 133 750 133 750 129 802 c 1,14,15
 205 798 205 798 240 778 c 0,16,17
 255 770 255 770 263 753.5 c 128,-1,0
 271 737 271 737 272.5 723 c 128,-1,1
384 877 m 1,18,19
 347 866 347 866 307.5 866 c 128,-1,20
 268 866 268 866 251 887.5 c 128,-1,21
 234 909 234 909 217 976 c 1,22,23
 165 896 165 896 83 849 c 1,24,25
 33 883 33 883 32 938 c 1,26,27
 114 989 114 989 155 1030 c 2,28,-1
 178 1053 l 2,29,30
 184 1059 184 1059 200 1078.5 c 128,-1,31
 216 1098 216 1098 220 1102 c 1,32,33
 256 1102 256 1102 275 1082 c 128,-1,34
 294 1062 294 1062 301 1034 c 128,-1,35
 308 1006 308 1006 329 960 c 128,-1,36
 350 914 350 914 384 877 c 1,18,19
EndSplineSet
EndChar

StartChar: Idieresis
Encoding: 207 207 142
Width: 344
GlyphClass: 2
Flags: W
LayerCount: 2
Fore
SplineSet
272.5 723 m 128,-1,1
 274 709 274 709 274 672 c 128,-1,2
 274 635 274 635 241 409 c 128,-1,3
 208 183 208 183 208 92.5 c 128,-1,4
 208 2 208 2 222 -31 c 1,5,6
 137 -9 137 -9 106 27.5 c 128,-1,7
 75 64 75 64 75 129 c 0,8,9
 75 167 75 167 96 322 c 1,10,11
 133 579 133 579 133 720 c 0,12,13
 133 750 133 750 129 802 c 1,14,15
 205 798 205 798 240 778 c 0,16,17
 255 770 255 770 263 753.5 c 128,-1,0
 271 737 271 737 272.5 723 c 128,-1,1
138 896 m 0,18,19
 35 896 35 896 35 968 c 0,20,21
 35 994 35 994 50 1039 c 1,22,23
 78 1043 78 1043 99 1043 c 0,24,25
 202 1043 202 1043 202 971 c 0,26,27
 202 945 202 945 187 900 c 1,28,29
 159 896 159 896 138 896 c 0,18,19
348 896 m 0,30,31
 245 896 245 896 245 968 c 0,32,33
 245 994 245 994 260 1039 c 1,34,35
 288 1043 288 1043 309 1043 c 0,36,37
 412 1043 412 1043 412 971 c 0,38,39
 412 945 412 945 397 900 c 1,40,41
 369 896 369 896 348 896 c 0,30,31
EndSplineSet
EndChar

StartChar: Eth
Encoding: 208 208 143
Width: 760
GlyphClass: 2
Flags: W
LayerCount: 2
Fore
SplineSet
267.5 457 m 128,-1,1
 340 464 340 464 391 464 c 128,-1,2
 442 464 442 464 461 436.5 c 128,-1,3
 480 409 480 409 480 355 c 0,4,5
 480 351 480 351 479.5 343.5 c 128,-1,6
 479 336 479 336 479 332 c 1,7,8
 409 343 409 343 355.5 343 c 128,-1,9
 302 343 302 343 229.5 336 c 128,-1,10
 157 329 157 329 106 329 c 128,-1,11
 55 329 55 329 36 356.5 c 128,-1,12
 17 384 17 384 17 438 c 0,13,14
 17 442 17 442 17.5 449.5 c 128,-1,15
 18 457 18 457 18 461 c 1,16,17
 88 450 88 450 141.5 450 c 128,-1,0
 195 450 195 450 267.5 457 c 128,-1,1
428 802 m 0,18,19
 566 802 566 802 645 693 c 128,-1,20
 724 584 724 584 724 419 c 0,21,22
 724 282 724 282 663 175 c 0,23,24
 595 56 595 56 472 10 c 0,25,26
 405 -15 405 -15 331 -15 c 128,-1,27
 257 -15 257 -15 194.5 2 c 128,-1,28
 132 19 132 19 104 36 c 2,29,-1
 75 53 l 1,30,31
 76 61 76 61 97 202 c 0,32,33
 141 496 141 496 141 735 c 0,34,35
 141 814 141 814 127 847 c 1,36,37
 234 819 234 819 261 759 c 1,38,39
 350 802 350 802 428 802 c 0,18,19
308 60 m 0,40,41
 395 60 395 60 458.5 116 c 128,-1,42
 522 172 522 172 550.5 253 c 128,-1,43
 579 334 579 334 579 425 c 0,44,45
 579 553 579 553 524 634 c 128,-1,46
 469 715 469 715 376 715 c 0,47,48
 318 715 318 715 274 697 c 1,49,50
 274 636 274 636 247.5 390 c 128,-1,51
 221 144 221 144 221 75 c 1,52,53
 260 60 260 60 308 60 c 0,40,41
EndSplineSet
EndChar

StartChar: Ntilde
Encoding: 209 209 144
Width: 821
GlyphClass: 2
Flags: W
LayerCount: 2
Fore
SplineSet
202 232 m 128,-1,1
 195 155 195 155 195 101 c 128,-1,2
 195 47 195 47 199 -5 c 1,3,4
 129 -5 129 -5 104.5 11.5 c 128,-1,5
 80 28 80 28 80 58 c 0,6,7
 80 67 80 67 113 326.5 c 128,-1,8
 146 586 146 586 147 690 c 1,9,-1
 138 703 l 2,10,11
 113 740 113 740 72 765 c 0,12,13
 62 771 62 771 60 773 c 1,14,15
 108 802 108 802 152 802 c 0,16,17
 240 802 240 802 281 744.5 c 128,-1,18
 322 687 322 687 434 461 c 0,19,20
 446 436 446 436 470.5 385.5 c 128,-1,21
 495 335 495 335 510 304 c 0,22,23
 545 229 545 229 585 163 c 1,24,25
 588 202 588 202 612.5 402.5 c 128,-1,26
 637 603 637 603 637 720 c 0,27,28
 637 751 637 751 633 801 c 1,29,30
 703 801 703 801 727 785 c 128,-1,31
 751 769 751 769 751 740 c 0,32,33
 751 729 751 729 718 461 c 128,-1,34
 685 193 685 193 685 90 c 0,35,36
 685 53 685 53 687 36 c 1,37,38
 695 29 695 29 713 19 c 1,39,40
 651 -21 651 -21 598 -21 c 128,-1,41
 545 -21 545 -21 506 38 c 0,42,43
 488 64 488 64 385.5 260.5 c 128,-1,44
 283 457 283 457 240 534 c 1,45,46
 236 500 236 500 222.5 404.5 c 128,-1,0
 209 309 209 309 202 232 c 128,-1,1
610.5 924 m 128,-1,48
 582 894 582 894 549 894 c 128,-1,49
 516 894 516 894 468.5 908 c 128,-1,50
 421 922 421 922 402 922 c 0,51,52
 354 922 354 922 327 879 c 1,53,54
 304 883 304 883 300 903 c 1,55,56
 308 972 308 972 336.5 1002 c 128,-1,57
 365 1032 365 1032 398 1032 c 128,-1,58
 431 1032 431 1032 478.5 1018 c 128,-1,59
 526 1004 526 1004 545 1004 c 0,60,61
 593 1004 593 1004 620 1047 c 1,62,63
 643 1043 643 1043 647 1023 c 1,64,47
 639 954 639 954 610.5 924 c 128,-1,48
EndSplineSet
EndChar

StartChar: Ograve
Encoding: 210 210 145
Width: 802
GlyphClass: 2
Flags: W
LayerCount: 2
Fore
SplineSet
562.5 653 m 128,-1,1
 524 716 524 716 457.5 716 c 128,-1,2
 391 716 391 716 331.5 657.5 c 128,-1,3
 272 599 272 599 238.5 510 c 128,-1,4
 205 421 205 421 205 330 c 0,5,6
 205 205 205 205 246.5 125 c 128,-1,7
 288 45 288 45 372 45 c 0,8,9
 442 45 442 45 495.5 106.5 c 128,-1,10
 549 168 549 168 575 259 c 128,-1,11
 601 350 601 350 601 450 c 0,12,0
 601 590 601 590 562.5 653 c 128,-1,1
506.5 5 m 128,-1,14
 439 -25 439 -25 359 -25 c 128,-1,15
 279 -25 279 -25 218.5 11 c 128,-1,16
 158 47 158 47 122 107 c 0,17,18
 50 227 50 227 50 387 c 128,-1,19
 50 547 50 547 129.5 672 c 128,-1,20
 209 797 209 797 342 830 c 1,21,22
 350 828 350 828 357.5 822 c 128,-1,23
 365 816 365 816 366 809 c 1,24,25
 237 715 237 715 210 553 c 1,26,27
 252 671 252 671 336.5 737.5 c 128,-1,28
 421 804 421 804 518 804 c 128,-1,29
 615 804 615 804 683.5 720.5 c 128,-1,30
 752 637 752 637 752 479 c 0,31,32
 752 324 752 324 694 200 c 0,33,34
 664 134 664 134 619 84.5 c 128,-1,13
 574 35 574 35 506.5 5 c 128,-1,14
591 881 m 1,35,36
 589 870 589 870 577 860.5 c 128,-1,37
 565 851 565 851 549 848 c 1,38,39
 511 891 511 891 450.5 931.5 c 128,-1,40
 390 972 390 972 327 989 c 1,41,42
 330 1058 330 1058 390 1096 c 1,43,44
 446 1073 446 1073 505 1007.5 c 128,-1,45
 564 942 564 942 591 881 c 1,35,36
EndSplineSet
EndChar

StartChar: Oacute
Encoding: 211 211 146
Width: 802
GlyphClass: 2
Flags: W
LayerCount: 2
Fore
SplineSet
562.5 653 m 128,-1,1
 524 716 524 716 457.5 716 c 128,-1,2
 391 716 391 716 331.5 657.5 c 128,-1,3
 272 599 272 599 238.5 510 c 128,-1,4
 205 421 205 421 205 330 c 0,5,6
 205 205 205 205 246.5 125 c 128,-1,7
 288 45 288 45 372 45 c 0,8,9
 442 45 442 45 495.5 106.5 c 128,-1,10
 549 168 549 168 575 259 c 128,-1,11
 601 350 601 350 601 450 c 0,12,0
 601 590 601 590 562.5 653 c 128,-1,1
506.5 5 m 128,-1,14
 439 -25 439 -25 359 -25 c 128,-1,15
 279 -25 279 -25 218.5 11 c 128,-1,16
 158 47 158 47 122 107 c 0,17,18
 50 227 50 227 50 387 c 128,-1,19
 50 547 50 547 129.5 672 c 128,-1,20
 209 797 209 797 342 830 c 1,21,22
 350 828 350 828 357.5 822 c 128,-1,23
 365 816 365 816 366 809 c 1,24,25
 237 715 237 715 210 553 c 1,26,27
 252 671 252 671 336.5 737.5 c 128,-1,28
 421 804 421 804 518 804 c 128,-1,29
 615 804 615 804 683.5 720.5 c 128,-1,30
 752 637 752 637 752 479 c 0,31,32
 752 324 752 324 694 200 c 0,33,34
 664 134 664 134 619 84.5 c 128,-1,13
 574 35 574 35 506.5 5 c 128,-1,14
381 881 m 1,35,36
 408 942 408 942 467 1007.5 c 128,-1,37
 526 1073 526 1073 582 1096 c 1,38,39
 642 1058 642 1058 645 989 c 1,40,41
 582 972 582 972 521.5 931.5 c 128,-1,42
 461 891 461 891 423 848 c 1,43,44
 407 851 407 851 395 860.5 c 128,-1,45
 383 870 383 870 381 881 c 1,35,36
EndSplineSet
EndChar

StartChar: Ocircumflex
Encoding: 212 212 147
Width: 802
GlyphClass: 2
Flags: W
LayerCount: 2
Fore
SplineSet
562.5 653 m 128,-1,1
 524 716 524 716 457.5 716 c 128,-1,2
 391 716 391 716 331.5 657.5 c 128,-1,3
 272 599 272 599 238.5 510 c 128,-1,4
 205 421 205 421 205 330 c 0,5,6
 205 205 205 205 246.5 125 c 128,-1,7
 288 45 288 45 372 45 c 0,8,9
 442 45 442 45 495.5 106.5 c 128,-1,10
 549 168 549 168 575 259 c 128,-1,11
 601 350 601 350 601 450 c 0,12,0
 601 590 601 590 562.5 653 c 128,-1,1
506.5 5 m 128,-1,14
 439 -25 439 -25 359 -25 c 128,-1,15
 279 -25 279 -25 218.5 11 c 128,-1,16
 158 47 158 47 122 107 c 0,17,18
 50 227 50 227 50 387 c 128,-1,19
 50 547 50 547 129.5 672 c 128,-1,20
 209 797 209 797 342 830 c 1,21,22
 350 828 350 828 357.5 822 c 128,-1,23
 365 816 365 816 366 809 c 1,24,25
 237 715 237 715 210 553 c 1,26,27
 252 671 252 671 336.5 737.5 c 128,-1,28
 421 804 421 804 518 804 c 128,-1,29
 615 804 615 804 683.5 720.5 c 128,-1,30
 752 637 752 637 752 479 c 0,31,32
 752 324 752 324 694 200 c 0,33,34
 664 134 664 134 619 84.5 c 128,-1,13
 574 35 574 35 506.5 5 c 128,-1,14
696 877 m 1,35,36
 659 866 659 866 619.5 866 c 128,-1,37
 580 866 580 866 563 887.5 c 128,-1,38
 546 909 546 909 529 976 c 1,39,40
 477 896 477 896 395 849 c 1,41,42
 345 883 345 883 344 938 c 1,43,44
 426 989 426 989 467 1030 c 2,45,-1
 490 1053 l 2,46,47
 496 1059 496 1059 512 1078.5 c 128,-1,48
 528 1098 528 1098 532 1102 c 1,49,50
 568 1102 568 1102 587 1082 c 128,-1,51
 606 1062 606 1062 613 1034 c 128,-1,52
 620 1006 620 1006 641 960 c 128,-1,53
 662 914 662 914 696 877 c 1,35,36
EndSplineSet
EndChar

StartChar: Otilde
Encoding: 213 213 148
Width: 802
GlyphClass: 2
Flags: W
LayerCount: 2
Fore
SplineSet
562.5 653 m 128,-1,1
 524 716 524 716 457.5 716 c 128,-1,2
 391 716 391 716 331.5 657.5 c 128,-1,3
 272 599 272 599 238.5 510 c 128,-1,4
 205 421 205 421 205 330 c 0,5,6
 205 205 205 205 246.5 125 c 128,-1,7
 288 45 288 45 372 45 c 0,8,9
 442 45 442 45 495.5 106.5 c 128,-1,10
 549 168 549 168 575 259 c 128,-1,11
 601 350 601 350 601 450 c 0,12,0
 601 590 601 590 562.5 653 c 128,-1,1
506.5 5 m 128,-1,14
 439 -25 439 -25 359 -25 c 128,-1,15
 279 -25 279 -25 218.5 11 c 128,-1,16
 158 47 158 47 122 107 c 0,17,18
 50 227 50 227 50 387 c 128,-1,19
 50 547 50 547 129.5 672 c 128,-1,20
 209 797 209 797 342 830 c 1,21,22
 350 828 350 828 357.5 822 c 128,-1,23
 365 816 365 816 366 809 c 1,24,25
 237 715 237 715 210 553 c 1,26,27
 252 671 252 671 336.5 737.5 c 128,-1,28
 421 804 421 804 518 804 c 128,-1,29
 615 804 615 804 683.5 720.5 c 128,-1,30
 752 637 752 637 752 479 c 0,31,32
 752 324 752 324 694 200 c 0,33,34
 664 134 664 134 619 84.5 c 128,-1,13
 574 35 574 35 506.5 5 c 128,-1,14
655.5 924 m 128,-1,36
 627 894 627 894 594 894 c 128,-1,37
 561 894 561 894 513.5 908 c 128,-1,38
 466 922 466 922 447 922 c 0,39,40
 399 922 399 922 372 879 c 1,41,42
 349 883 349 883 345 903 c 1,43,44
 353 972 353 972 381.5 1002 c 128,-1,45
 410 1032 410 1032 443 1032 c 128,-1,46
 476 1032 476 1032 523.5 1018 c 128,-1,47
 571 1004 571 1004 590 1004 c 0,48,49
 638 1004 638 1004 665 1047 c 1,50,51
 688 1043 688 1043 692 1023 c 1,52,35
 684 954 684 954 655.5 924 c 128,-1,36
EndSplineSet
EndChar

StartChar: Odieresis
Encoding: 214 214 149
Width: 802
GlyphClass: 2
Flags: W
LayerCount: 2
Fore
SplineSet
562.5 653 m 128,-1,1
 524 716 524 716 457.5 716 c 128,-1,2
 391 716 391 716 331.5 657.5 c 128,-1,3
 272 599 272 599 238.5 510 c 128,-1,4
 205 421 205 421 205 330 c 0,5,6
 205 205 205 205 246.5 125 c 128,-1,7
 288 45 288 45 372 45 c 0,8,9
 442 45 442 45 495.5 106.5 c 128,-1,10
 549 168 549 168 575 259 c 128,-1,11
 601 350 601 350 601 450 c 0,12,0
 601 590 601 590 562.5 653 c 128,-1,1
506.5 5 m 128,-1,14
 439 -25 439 -25 359 -25 c 128,-1,15
 279 -25 279 -25 218.5 11 c 128,-1,16
 158 47 158 47 122 107 c 0,17,18
 50 227 50 227 50 387 c 128,-1,19
 50 547 50 547 129.5 672 c 128,-1,20
 209 797 209 797 342 830 c 1,21,22
 350 828 350 828 357.5 822 c 128,-1,23
 365 816 365 816 366 809 c 1,24,25
 237 715 237 715 210 553 c 1,26,27
 252 671 252 671 336.5 737.5 c 128,-1,28
 421 804 421 804 518 804 c 128,-1,29
 615 804 615 804 683.5 720.5 c 128,-1,30
 752 637 752 637 752 479 c 0,31,32
 752 324 752 324 694 200 c 0,33,34
 664 134 664 134 619 84.5 c 128,-1,13
 574 35 574 35 506.5 5 c 128,-1,14
430 896 m 0,35,36
 327 896 327 896 327 968 c 0,37,38
 327 994 327 994 342 1039 c 1,39,40
 370 1043 370 1043 391 1043 c 0,41,42
 494 1043 494 1043 494 971 c 0,43,44
 494 945 494 945 479 900 c 1,45,46
 451 896 451 896 430 896 c 0,35,36
640 896 m 0,47,48
 537 896 537 896 537 968 c 0,49,50
 537 994 537 994 552 1039 c 1,51,52
 580 1043 580 1043 601 1043 c 0,53,54
 704 1043 704 1043 704 971 c 0,55,56
 704 945 704 945 689 900 c 1,57,58
 661 896 661 896 640 896 c 0,47,48
EndSplineSet
EndChar

StartChar: multiply
Encoding: 215 215 150
Width: 620
GlyphClass: 2
Flags: W
LayerCount: 2
Fore
SplineSet
201 140 m 128,-1,1
 173 119 173 119 150 119 c 128,-1,2
 127 119 127 119 109.5 128.5 c 128,-1,3
 92 138 92 138 64 162 c 1,4,5
 117 212 117 212 223 345 c 1,6,-1
 212 354 l 2,7,8
 161 395 161 395 138 415 c 128,-1,9
 115 435 115 435 94 463 c 128,-1,10
 73 491 73 491 73 514 c 128,-1,11
 73 537 73 537 82.5 554.5 c 128,-1,12
 92 572 92 572 116 600 c 1,13,14
 170 543 170 543 299 440 c 1,15,-1
 309 452 l 1,16,17
 351 505 351 505 372 529 c 0,18,19
 426 591 426 591 470 591 c 0,20,21
 492 591 492 591 509.5 581.5 c 128,-1,22
 527 572 527 572 555 548 c 1,23,24
 501 497 501 497 450 433.5 c 128,-1,25
 399 370 399 370 394 364 c 1,26,-1
 406 355 l 1,27,28
 459 313 459 313 483 292 c 0,29,30
 545 238 545 238 545 194 c 0,31,32
 545 172 545 172 535.5 154.5 c 128,-1,33
 526 137 526 137 502 109 c 1,34,35
 447 166 447 166 318 269 c 1,36,-1
 310 258 l 1,37,38
 269 207 269 207 249 184 c 128,-1,0
 229 161 229 161 201 140 c 128,-1,1
EndSplineSet
EndChar

StartChar: Oslash
Encoding: 216 216 151
Width: 802
GlyphClass: 2
Flags: W
LayerCount: 2
Fore
SplineSet
562.5 653 m 128,-1,1
 524 716 524 716 457.5 716 c 128,-1,2
 391 716 391 716 331.5 657.5 c 128,-1,3
 272 599 272 599 238.5 510 c 128,-1,4
 205 421 205 421 205 330 c 0,5,6
 205 205 205 205 246.5 125 c 128,-1,7
 288 45 288 45 372 45 c 0,8,9
 442 45 442 45 495.5 106.5 c 128,-1,10
 549 168 549 168 575 259 c 128,-1,11
 601 350 601 350 601 450 c 0,12,0
 601 590 601 590 562.5 653 c 128,-1,1
506.5 5 m 128,-1,14
 439 -25 439 -25 359 -25 c 128,-1,15
 279 -25 279 -25 218.5 11 c 128,-1,16
 158 47 158 47 122 107 c 0,17,18
 50 227 50 227 50 387 c 128,-1,19
 50 547 50 547 129.5 672 c 128,-1,20
 209 797 209 797 342 830 c 1,21,22
 350 828 350 828 357.5 822 c 128,-1,23
 365 816 365 816 366 809 c 1,24,25
 237 715 237 715 210 553 c 1,26,27
 252 671 252 671 336.5 737.5 c 128,-1,28
 421 804 421 804 518 804 c 128,-1,29
 615 804 615 804 683.5 720.5 c 128,-1,30
 752 637 752 637 752 479 c 0,31,32
 752 324 752 324 694 200 c 0,33,34
 664 134 664 134 619 84.5 c 128,-1,13
 574 35 574 35 506.5 5 c 128,-1,14
542 603 m 128,-1,36
 467 417 467 417 384.5 199.5 c 128,-1,37
 302 -18 302 -18 288 -120 c 1,38,39
 277 -120 277 -120 253 -112 c 128,-1,40
 229 -104 229 -104 214 -95 c 128,-1,41
 199 -86 199 -86 186.5 -67 c 128,-1,42
 174 -48 174 -48 174 -24 c 0,43,44
 174 21 174 21 257 213.5 c 128,-1,45
 340 406 340 406 431.5 623.5 c 128,-1,46
 523 841 523 841 538 930 c 1,47,48
 546 927 546 927 562.5 915.5 c 128,-1,49
 579 904 579 904 590 894 c 0,50,51
 617 866 617 866 617 827.5 c 128,-1,35
 617 789 617 789 542 603 c 128,-1,36
EndSplineSet
EndChar

StartChar: Ugrave
Encoding: 217 217 152
Width: 755
GlyphClass: 2
Flags: W
LayerCount: 2
Fore
SplineSet
683.5 723 m 128,-1,1
 685 709 685 709 685 672 c 128,-1,2
 685 635 685 635 652 409 c 128,-1,3
 619 183 619 183 619 92.5 c 128,-1,4
 619 2 619 2 633 -31 c 1,5,6
 548 -9 548 -9 517 27.5 c 128,-1,7
 486 64 486 64 486 129 c 0,8,9
 486 149 486 149 487 160 c 1,10,11
 396 -20 396 -20 238 -20 c 0,12,13
 154 -20 154 -20 112 37.5 c 128,-1,14
 70 95 70 95 70 220 c 0,15,16
 70 291 70 291 92.5 476 c 128,-1,17
 115 661 115 661 115 716.5 c 128,-1,18
 115 772 115 772 104 802 c 1,19,20
 187 781 187 781 218.5 746.5 c 128,-1,21
 250 712 250 712 250 649.5 c 128,-1,22
 250 587 250 587 230 450.5 c 128,-1,23
 210 314 210 314 210 230.5 c 128,-1,24
 210 147 210 147 234 112 c 128,-1,25
 258 77 258 77 301 77 c 0,26,27
 352 77 352 77 400 122 c 0,28,29
 498 215 498 215 528 479 c 1,30,-1
 528 481 l 1,31,32
 544 620 544 620 544 685 c 128,-1,33
 544 750 544 750 540 802 c 1,34,35
 616 798 616 798 651 778 c 0,36,37
 666 770 666 770 674 753.5 c 128,-1,0
 682 737 682 737 683.5 723 c 128,-1,1
509 881 m 1,38,39
 507 870 507 870 495 860.5 c 128,-1,40
 483 851 483 851 467 848 c 1,41,42
 429 891 429 891 368.5 931.5 c 128,-1,43
 308 972 308 972 245 989 c 1,44,45
 248 1058 248 1058 308 1096 c 1,46,47
 364 1073 364 1073 423 1007.5 c 128,-1,48
 482 942 482 942 509 881 c 1,38,39
EndSplineSet
EndChar

StartChar: Uacute
Encoding: 218 218 153
Width: 755
GlyphClass: 2
Flags: W
LayerCount: 2
Fore
SplineSet
683.5 723 m 128,-1,1
 685 709 685 709 685 672 c 128,-1,2
 685 635 685 635 652 409 c 128,-1,3
 619 183 619 183 619 92.5 c 128,-1,4
 619 2 619 2 633 -31 c 1,5,6
 548 -9 548 -9 517 27.5 c 128,-1,7
 486 64 486 64 486 129 c 0,8,9
 486 149 486 149 487 160 c 1,10,11
 396 -20 396 -20 238 -20 c 0,12,13
 154 -20 154 -20 112 37.5 c 128,-1,14
 70 95 70 95 70 220 c 0,15,16
 70 291 70 291 92.5 476 c 128,-1,17
 115 661 115 661 115 716.5 c 128,-1,18
 115 772 115 772 104 802 c 1,19,20
 187 781 187 781 218.5 746.5 c 128,-1,21
 250 712 250 712 250 649.5 c 128,-1,22
 250 587 250 587 230 450.5 c 128,-1,23
 210 314 210 314 210 230.5 c 128,-1,24
 210 147 210 147 234 112 c 128,-1,25
 258 77 258 77 301 77 c 0,26,27
 352 77 352 77 400 122 c 0,28,29
 498 215 498 215 528 479 c 1,30,-1
 528 481 l 1,31,32
 544 620 544 620 544 685 c 128,-1,33
 544 750 544 750 540 802 c 1,34,35
 616 798 616 798 651 778 c 0,36,37
 666 770 666 770 674 753.5 c 128,-1,0
 682 737 682 737 683.5 723 c 128,-1,1
297 881 m 1,38,39
 324 942 324 942 383 1007.5 c 128,-1,40
 442 1073 442 1073 498 1096 c 1,41,42
 558 1058 558 1058 561 989 c 1,43,44
 498 972 498 972 437.5 931.5 c 128,-1,45
 377 891 377 891 339 848 c 1,46,47
 323 851 323 851 311 860.5 c 128,-1,48
 299 870 299 870 297 881 c 1,38,39
EndSplineSet
EndChar

StartChar: Ucircumflex
Encoding: 219 219 154
Width: 755
GlyphClass: 2
Flags: W
LayerCount: 2
Fore
SplineSet
683.5 723 m 128,-1,1
 685 709 685 709 685 672 c 128,-1,2
 685 635 685 635 652 409 c 128,-1,3
 619 183 619 183 619 92.5 c 128,-1,4
 619 2 619 2 633 -31 c 1,5,6
 548 -9 548 -9 517 27.5 c 128,-1,7
 486 64 486 64 486 129 c 0,8,9
 486 149 486 149 487 160 c 1,10,11
 396 -20 396 -20 238 -20 c 0,12,13
 154 -20 154 -20 112 37.5 c 128,-1,14
 70 95 70 95 70 220 c 0,15,16
 70 291 70 291 92.5 476 c 128,-1,17
 115 661 115 661 115 716.5 c 128,-1,18
 115 772 115 772 104 802 c 1,19,20
 187 781 187 781 218.5 746.5 c 128,-1,21
 250 712 250 712 250 649.5 c 128,-1,22
 250 587 250 587 230 450.5 c 128,-1,23
 210 314 210 314 210 230.5 c 128,-1,24
 210 147 210 147 234 112 c 128,-1,25
 258 77 258 77 301 77 c 0,26,27
 352 77 352 77 400 122 c 0,28,29
 498 215 498 215 528 479 c 1,30,-1
 528 481 l 1,31,32
 544 620 544 620 544 685 c 128,-1,33
 544 750 544 750 540 802 c 1,34,35
 616 798 616 798 651 778 c 0,36,37
 666 770 666 770 674 753.5 c 128,-1,0
 682 737 682 737 683.5 723 c 128,-1,1
592 877 m 1,38,39
 555 866 555 866 515.5 866 c 128,-1,40
 476 866 476 866 459 887.5 c 128,-1,41
 442 909 442 909 425 976 c 1,42,43
 373 896 373 896 291 849 c 1,44,45
 241 883 241 883 240 938 c 1,46,47
 322 989 322 989 363 1030 c 2,48,-1
 386 1053 l 2,49,50
 392 1059 392 1059 408 1078.5 c 128,-1,51
 424 1098 424 1098 428 1102 c 1,52,53
 464 1102 464 1102 483 1082 c 128,-1,54
 502 1062 502 1062 509 1034 c 128,-1,55
 516 1006 516 1006 537 960 c 128,-1,56
 558 914 558 914 592 877 c 1,38,39
EndSplineSet
EndChar

StartChar: Udieresis
Encoding: 220 220 155
Width: 755
GlyphClass: 2
Flags: W
LayerCount: 2
Fore
SplineSet
683.5 723 m 128,-1,1
 685 709 685 709 685 672 c 128,-1,2
 685 635 685 635 652 409 c 128,-1,3
 619 183 619 183 619 92.5 c 128,-1,4
 619 2 619 2 633 -31 c 1,5,6
 548 -9 548 -9 517 27.5 c 128,-1,7
 486 64 486 64 486 129 c 0,8,9
 486 149 486 149 487 160 c 1,10,11
 396 -20 396 -20 238 -20 c 0,12,13
 154 -20 154 -20 112 37.5 c 128,-1,14
 70 95 70 95 70 220 c 0,15,16
 70 291 70 291 92.5 476 c 128,-1,17
 115 661 115 661 115 716.5 c 128,-1,18
 115 772 115 772 104 802 c 1,19,20
 187 781 187 781 218.5 746.5 c 128,-1,21
 250 712 250 712 250 649.5 c 128,-1,22
 250 587 250 587 230 450.5 c 128,-1,23
 210 314 210 314 210 230.5 c 128,-1,24
 210 147 210 147 234 112 c 128,-1,25
 258 77 258 77 301 77 c 0,26,27
 352 77 352 77 400 122 c 0,28,29
 498 215 498 215 528 479 c 1,30,-1
 528 481 l 1,31,32
 544 620 544 620 544 685 c 128,-1,33
 544 750 544 750 540 802 c 1,34,35
 616 798 616 798 651 778 c 0,36,37
 666 770 666 770 674 753.5 c 128,-1,0
 682 737 682 737 683.5 723 c 128,-1,1
341 896 m 0,38,39
 238 896 238 896 238 968 c 0,40,41
 238 994 238 994 253 1039 c 1,42,43
 281 1043 281 1043 302 1043 c 0,44,45
 405 1043 405 1043 405 971 c 0,46,47
 405 945 405 945 390 900 c 1,48,49
 362 896 362 896 341 896 c 0,38,39
551 896 m 0,50,51
 448 896 448 896 448 968 c 0,52,53
 448 994 448 994 463 1039 c 1,54,55
 491 1043 491 1043 512 1043 c 0,56,57
 615 1043 615 1043 615 971 c 0,58,59
 615 945 615 945 600 900 c 1,60,61
 572 896 572 896 551 896 c 0,50,51
EndSplineSet
EndChar

StartChar: Yacute
Encoding: 221 221 156
Width: 565
GlyphClass: 2
Flags: W
LayerCount: 2
Fore
SplineSet
327 283 m 1,0,1
 311 148 311 148 311 75 c 128,-1,2
 311 2 311 2 325 -31 c 1,3,4
 240 -9 240 -9 209 27.5 c 128,-1,5
 178 64 178 64 178 119.5 c 128,-1,6
 178 175 178 175 193 278 c 1,7,8
 86 660 86 660 8 777 c 1,9,10
 49 803 49 803 94 803 c 0,11,12
 118 803 118 803 134.5 798.5 c 128,-1,13
 151 794 151 794 167 778 c 128,-1,14
 183 762 183 762 194.5 737 c 128,-1,15
 206 712 206 712 220 664 c 1,16,17
 244 588 244 588 281 404 c 1,18,-1
 288 365 l 1,19,20
 380 508 380 508 437.5 635 c 128,-1,21
 495 762 495 762 505 833 c 1,22,23
 580 791 580 791 580 719.5 c 128,-1,24
 580 648 580 648 327 283 c 1,0,1
248 881 m 1,25,26
 275 942 275 942 334 1007.5 c 128,-1,27
 393 1073 393 1073 449 1096 c 1,28,29
 509 1058 509 1058 512 989 c 1,30,31
 449 972 449 972 388.5 931.5 c 128,-1,32
 328 891 328 891 290 848 c 1,33,34
 274 851 274 851 262 860.5 c 128,-1,35
 250 870 250 870 248 881 c 1,25,26
EndSplineSet
EndChar

StartChar: Thorn
Encoding: 222 222 157
Width: 621
GlyphClass: 2
Flags: W
LayerCount: 2
Fore
SplineSet
105 3 m 128,-1,1
 80 23 80 23 80 70 c 128,-1,2
 80 117 80 117 113.5 354.5 c 128,-1,3
 147 592 147 592 147 693.5 c 128,-1,4
 147 795 147 795 133 826 c 1,5,6
 203 821 203 821 241.5 783.5 c 128,-1,7
 280 746 280 746 280 683 c 0,8,9
 280 657 280 657 275 610 c 1,10,11
 347 643 347 643 421 643 c 0,12,13
 520 643 520 643 573.5 585.5 c 128,-1,14
 627 528 627 528 627 444 c 0,15,16
 627 340 627 340 550 256 c 0,17,18
 514 216 514 216 455.5 191 c 128,-1,19
 397 166 397 166 326 166 c 0,20,21
 296 166 296 166 269 170 c 1,22,-1
 266 212 l 1,23,24
 372 212 372 212 436 277 c 128,-1,25
 500 342 500 342 500 425 c 0,26,27
 500 483 500 483 464.5 521 c 128,-1,28
 429 559 429 559 362 560 c 0,29,30
 317 560 317 560 266 538 c 1,31,32
 265 530 265 530 258.5 484.5 c 128,-1,33
 252 439 252 439 250 421.5 c 128,-1,34
 248 404 248 404 242.5 361.5 c 128,-1,35
 237 319 237 319 234.5 292 c 128,-1,36
 232 265 232 265 229 226 c 0,37,38
 223 150 223 150 223 85 c 128,-1,39
 223 20 223 20 229 -15 c 1,40,41
 197 -17 197 -17 187 -17 c 0,42,0
 130 -17 130 -17 105 3 c 128,-1,1
EndSplineSet
EndChar

StartChar: germandbls
Encoding: 223 223 158
Width: 713
GlyphClass: 2
Flags: W
LayerCount: 2
Fore
SplineSet
693 235 m 0,0,1
 693 129 693 129 620 48 c 128,-1,2
 547 -33 547 -33 424 -33 c 0,3,4
 347 -33 347 -33 308 4.5 c 128,-1,5
 269 42 269 42 269 93.5 c 128,-1,6
 269 145 269 145 300.5 183 c 128,-1,7
 332 221 332 221 381 221 c 0,8,9
 405 221 405 221 429 211 c 1,10,11
 414 194 414 194 401 157.5 c 128,-1,12
 388 121 388 121 388 90 c 0,13,14
 388 29 388 29 439 29 c 0,15,16
 483 29 483 29 513 88 c 128,-1,17
 543 147 543 147 543 222.5 c 128,-1,18
 543 298 543 298 504.5 352 c 128,-1,19
 466 406 466 406 390 406 c 1,20,-1
 372 451 l 1,21,22
 440 493 440 493 479.5 554.5 c 128,-1,23
 519 616 519 616 519 672 c 128,-1,24
 519 728 519 728 497 757 c 128,-1,25
 475 786 475 786 435 786 c 0,26,27
 378 786 378 786 334.5 719 c 128,-1,28
 291 652 291 652 273 507 c 0,29,30
 270 480 270 480 260.5 405.5 c 128,-1,31
 251 331 251 331 246 285 c 0,32,33
 230 155 230 155 230 79.5 c 128,-1,34
 230 4 230 4 232.5 -22.5 c 128,-1,35
 235 -49 235 -49 246 -113 c 1,36,37
 174 -90 174 -90 140 -38.5 c 128,-1,38
 106 13 106 13 106 83 c 0,39,40
 106 222 106 222 146 462 c 1,41,42
 91 452 91 452 37 428 c 1,43,44
 35 450 35 450 35 461 c 0,45,46
 35 515 35 515 68.5 534 c 128,-1,47
 102 553 102 553 164 554 c 1,48,49
 185 640 185 640 219 702.5 c 128,-1,50
 253 765 253 765 293 798 c 0,51,52
 368 860 368 860 457 860 c 128,-1,53
 546 860 546 860 594 812.5 c 128,-1,54
 642 765 642 765 642 697 c 128,-1,55
 642 629 642 629 600.5 564.5 c 128,-1,56
 559 500 559 500 488 460 c 1,57,-1
 489 455 l 1,58,59
 585 449 585 449 639 385 c 128,-1,60
 693 321 693 321 693 235 c 0,0,1
EndSplineSet
EndChar

StartChar: agrave
Encoding: 224 224 159
Width: 635
GlyphClass: 2
Flags: W
LayerCount: 2
Fore
SplineSet
503 652 m 1,0,1
 501 641 501 641 489 631.5 c 128,-1,2
 477 622 477 622 461 619 c 1,3,4
 423 662 423 662 362.5 702.5 c 128,-1,5
 302 743 302 743 239 760 c 1,6,7
 242 829 242 829 302 867 c 1,8,9
 358 844 358 844 417 778.5 c 128,-1,10
 476 713 476 713 503 652 c 1,0,1
186 189 m 0,11,12
 186 142 186 142 203.5 112.5 c 128,-1,13
 221 83 221 83 253 83 c 0,14,15
 300 83 300 83 342.5 138 c 128,-1,16
 385 193 385 193 410.5 279 c 128,-1,17
 436 365 436 365 436 442.5 c 128,-1,18
 436 520 436 520 430 568 c 1,19,20
 460 570 460 570 472 570 c 0,21,22
 523 570 523 570 549 551 c 128,-1,23
 575 532 575 532 575 483 c 0,24,25
 575 464 575 464 551 328.5 c 128,-1,26
 527 193 527 193 527 111.5 c 128,-1,27
 527 30 527 30 558 -33 c 1,28,29
 483 -20 483 -20 448 22.5 c 128,-1,30
 413 65 413 65 413 145 c 0,31,32
 413 159 413 159 417 199 c 1,33,34
 390 104 390 104 321 46 c 128,-1,35
 252 -12 252 -12 185.5 -12 c 128,-1,36
 119 -12 119 -12 78.5 37.5 c 128,-1,37
 38 87 38 87 38 178 c 128,-1,38
 38 269 38 269 70.5 354.5 c 128,-1,39
 103 440 103 440 168 499.5 c 128,-1,40
 233 559 233 559 313 559 c 0,41,42
 359 559 359 559 407 537 c 1,43,44
 306 501 306 501 246 395.5 c 128,-1,45
 186 290 186 290 186 189 c 0,11,12
EndSplineSet
EndChar

StartChar: aacute
Encoding: 225 225 160
Width: 635
GlyphClass: 2
Flags: W
LayerCount: 2
Fore
SplineSet
280 652 m 1,0,1
 307 713 307 713 366 778.5 c 128,-1,2
 425 844 425 844 481 867 c 1,3,4
 541 829 541 829 544 760 c 1,5,6
 481 743 481 743 420.5 702.5 c 128,-1,7
 360 662 360 662 322 619 c 1,8,9
 306 622 306 622 294 631.5 c 128,-1,10
 282 641 282 641 280 652 c 1,0,1
186 189 m 0,11,12
 186 142 186 142 203.5 112.5 c 128,-1,13
 221 83 221 83 253 83 c 0,14,15
 300 83 300 83 342.5 138 c 128,-1,16
 385 193 385 193 410.5 279 c 128,-1,17
 436 365 436 365 436 442.5 c 128,-1,18
 436 520 436 520 430 568 c 1,19,20
 460 570 460 570 472 570 c 0,21,22
 523 570 523 570 549 551 c 128,-1,23
 575 532 575 532 575 483 c 0,24,25
 575 464 575 464 551 328.5 c 128,-1,26
 527 193 527 193 527 111.5 c 128,-1,27
 527 30 527 30 558 -33 c 1,28,29
 483 -20 483 -20 448 22.5 c 128,-1,30
 413 65 413 65 413 145 c 0,31,32
 413 159 413 159 417 199 c 1,33,34
 390 104 390 104 321 46 c 128,-1,35
 252 -12 252 -12 185.5 -12 c 128,-1,36
 119 -12 119 -12 78.5 37.5 c 128,-1,37
 38 87 38 87 38 178 c 128,-1,38
 38 269 38 269 70.5 354.5 c 128,-1,39
 103 440 103 440 168 499.5 c 128,-1,40
 233 559 233 559 313 559 c 0,41,42
 359 559 359 559 407 537 c 1,43,44
 306 501 306 501 246 395.5 c 128,-1,45
 186 290 186 290 186 189 c 0,11,12
EndSplineSet
EndChar

StartChar: acircumflex
Encoding: 226 226 161
Width: 635
GlyphClass: 2
Flags: W
LayerCount: 2
Fore
SplineSet
582 648 m 1,0,1
 545 637 545 637 505.5 637 c 128,-1,2
 466 637 466 637 449 658.5 c 128,-1,3
 432 680 432 680 415 747 c 1,4,5
 363 667 363 667 281 620 c 1,6,7
 231 654 231 654 230 709 c 1,8,9
 312 760 312 760 353 801 c 2,10,11
 353 801 353 801 376 824 c 0,12,13
 382 830 382 830 398 849.5 c 128,-1,14
 414 869 414 869 418 873 c 1,15,16
 454 873 454 873 473 853 c 128,-1,17
 492 833 492 833 499 805 c 128,-1,18
 506 777 506 777 527 731 c 128,-1,19
 548 685 548 685 582 648 c 1,0,1
186 189 m 0,20,21
 186 142 186 142 203.5 112.5 c 128,-1,22
 221 83 221 83 253 83 c 0,23,24
 300 83 300 83 342.5 138 c 128,-1,25
 385 193 385 193 410.5 279 c 128,-1,26
 436 365 436 365 436 442.5 c 128,-1,27
 436 520 436 520 430 568 c 1,28,29
 460 570 460 570 472 570 c 0,30,31
 523 570 523 570 549 551 c 128,-1,32
 575 532 575 532 575 483 c 0,33,34
 575 464 575 464 551 328.5 c 128,-1,35
 527 193 527 193 527 111.5 c 128,-1,36
 527 30 527 30 558 -33 c 1,37,38
 483 -20 483 -20 448 22.5 c 128,-1,39
 413 65 413 65 413 145 c 0,40,41
 413 159 413 159 417 199 c 1,42,43
 390 104 390 104 321 46 c 128,-1,44
 252 -12 252 -12 185.5 -12 c 128,-1,45
 119 -12 119 -12 78.5 37.5 c 128,-1,46
 38 87 38 87 38 178 c 128,-1,47
 38 269 38 269 70.5 354.5 c 128,-1,48
 103 440 103 440 168 499.5 c 128,-1,49
 233 559 233 559 313 559 c 0,50,51
 359 559 359 559 407 537 c 1,52,53
 306 501 306 501 246 395.5 c 128,-1,54
 186 290 186 290 186 189 c 0,20,21
EndSplineSet
EndChar

StartChar: atilde
Encoding: 227 227 162
Width: 635
GlyphClass: 2
Flags: W
LayerCount: 2
Fore
SplineSet
549.5 695 m 128,-1,1
 521 665 521 665 488 665 c 128,-1,2
 455 665 455 665 407.5 679 c 128,-1,3
 360 693 360 693 341 693 c 0,4,5
 293 693 293 693 266 650 c 1,6,7
 243 654 243 654 239 674 c 1,8,9
 247 743 247 743 275.5 773 c 128,-1,10
 304 803 304 803 337 803 c 128,-1,11
 370 803 370 803 417.5 789 c 128,-1,12
 465 775 465 775 484 775 c 0,13,14
 532 775 532 775 559 818 c 1,15,16
 582 814 582 814 586 794 c 1,17,0
 578 725 578 725 549.5 695 c 128,-1,1
186 189 m 0,18,19
 186 142 186 142 203.5 112.5 c 128,-1,20
 221 83 221 83 253 83 c 0,21,22
 300 83 300 83 342.5 138 c 128,-1,23
 385 193 385 193 410.5 279 c 128,-1,24
 436 365 436 365 436 442.5 c 128,-1,25
 436 520 436 520 430 568 c 1,26,27
 460 570 460 570 472 570 c 0,28,29
 523 570 523 570 549 551 c 128,-1,30
 575 532 575 532 575 483 c 0,31,32
 575 464 575 464 551 328.5 c 128,-1,33
 527 193 527 193 527 111.5 c 128,-1,34
 527 30 527 30 558 -33 c 1,35,36
 483 -20 483 -20 448 22.5 c 128,-1,37
 413 65 413 65 413 145 c 0,38,39
 413 159 413 159 417 199 c 1,40,41
 390 104 390 104 321 46 c 128,-1,42
 252 -12 252 -12 185.5 -12 c 128,-1,43
 119 -12 119 -12 78.5 37.5 c 128,-1,44
 38 87 38 87 38 178 c 128,-1,45
 38 269 38 269 70.5 354.5 c 128,-1,46
 103 440 103 440 168 499.5 c 128,-1,47
 233 559 233 559 313 559 c 0,48,49
 359 559 359 559 407 537 c 1,50,51
 306 501 306 501 246 395.5 c 128,-1,52
 186 290 186 290 186 189 c 0,18,19
EndSplineSet
EndChar

StartChar: adieresis
Encoding: 228 228 163
Width: 646
GlyphClass: 2
Flags: W
LayerCount: 2
Fore
SplineSet
339 667 m 0,0,1
 236 667 236 667 236 739 c 0,2,3
 236 765 236 765 251 810 c 1,4,5
 279 814 279 814 300 814 c 0,6,7
 403 814 403 814 403 742 c 0,8,9
 403 716 403 716 388 671 c 1,10,11
 360 667 360 667 339 667 c 0,0,1
549 667 m 0,12,13
 446 667 446 667 446 739 c 0,14,15
 446 765 446 765 461 810 c 1,16,17
 489 814 489 814 510 814 c 0,18,19
 613 814 613 814 613 742 c 0,20,21
 613 716 613 716 598 671 c 1,22,23
 570 667 570 667 549 667 c 0,12,13
186 189 m 0,24,25
 186 142 186 142 203.5 112.5 c 128,-1,26
 221 83 221 83 253 83 c 0,27,28
 300 83 300 83 342.5 138 c 128,-1,29
 385 193 385 193 410.5 279 c 128,-1,30
 436 365 436 365 436 442.5 c 128,-1,31
 436 520 436 520 430 568 c 1,32,33
 460 570 460 570 472 570 c 0,34,35
 523 570 523 570 549 551 c 128,-1,36
 575 532 575 532 575 483 c 0,37,38
 575 464 575 464 551 328.5 c 128,-1,39
 527 193 527 193 527 111.5 c 128,-1,40
 527 30 527 30 558 -33 c 1,41,42
 483 -20 483 -20 448 22.5 c 128,-1,43
 413 65 413 65 413 145 c 0,44,45
 413 159 413 159 417 199 c 1,46,47
 390 104 390 104 321 46 c 128,-1,48
 252 -12 252 -12 185.5 -12 c 128,-1,49
 119 -12 119 -12 78.5 37.5 c 128,-1,50
 38 87 38 87 38 178 c 128,-1,51
 38 269 38 269 70.5 354.5 c 128,-1,52
 103 440 103 440 168 499.5 c 128,-1,53
 233 559 233 559 313 559 c 0,54,55
 359 559 359 559 407 537 c 1,56,57
 306 501 306 501 246 395.5 c 128,-1,58
 186 290 186 290 186 189 c 0,24,25
EndSplineSet
EndChar

StartChar: aring
Encoding: 229 229 164
Width: 635
GlyphClass: 2
Flags: W
LayerCount: 2
Fore
SplineSet
449 748 m 0,0,1
 449 781 449 781 410 781 c 0,2,3
 391 781 391 781 374 776 c 1,4,5
 364 736 364 736 364 731 c 0,6,7
 364 698 364 698 403 698 c 0,8,9
 422 698 422 698 439 703 c 1,10,11
 449 743 449 743 449 748 c 0,0,1
394 617 m 0,12,13
 281 617 281 617 281 714 c 0,14,15
 281 761 281 761 309 845 c 1,16,17
 369 862 369 862 419 862 c 0,18,19
 532 862 532 862 532 765 c 0,20,21
 532 718 532 718 504 634 c 1,22,23
 444 617 444 617 394 617 c 0,12,13
186 189 m 0,24,25
 186 142 186 142 203.5 112.5 c 128,-1,26
 221 83 221 83 253 83 c 0,27,28
 300 83 300 83 342.5 138 c 128,-1,29
 385 193 385 193 410.5 279 c 128,-1,30
 436 365 436 365 436 442.5 c 128,-1,31
 436 520 436 520 430 568 c 1,32,33
 460 570 460 570 472 570 c 0,34,35
 523 570 523 570 549 551 c 128,-1,36
 575 532 575 532 575 483 c 0,37,38
 575 464 575 464 551 328.5 c 128,-1,39
 527 193 527 193 527 111.5 c 128,-1,40
 527 30 527 30 558 -33 c 1,41,42
 483 -20 483 -20 448 22.5 c 128,-1,43
 413 65 413 65 413 145 c 0,44,45
 413 159 413 159 417 199 c 1,46,47
 390 104 390 104 321 46 c 128,-1,48
 252 -12 252 -12 185.5 -12 c 128,-1,49
 119 -12 119 -12 78.5 37.5 c 128,-1,50
 38 87 38 87 38 178 c 128,-1,51
 38 269 38 269 70.5 354.5 c 128,-1,52
 103 440 103 440 168 499.5 c 128,-1,53
 233 559 233 559 313 559 c 0,54,55
 359 559 359 559 407 537 c 1,56,57
 306 501 306 501 246 395.5 c 128,-1,58
 186 290 186 290 186 189 c 0,24,25
EndSplineSet
EndChar

StartChar: ae
Encoding: 230 230 165
Width: 906
GlyphClass: 2
Flags: W
LayerCount: 2
Fore
SplineSet
308 35.5 m 128,-1,1
 244 -12 244 -12 181.5 -12 c 128,-1,2
 119 -12 119 -12 78.5 37.5 c 128,-1,3
 38 87 38 87 38 178 c 128,-1,4
 38 269 38 269 70.5 354.5 c 128,-1,5
 103 440 103 440 168 499.5 c 128,-1,6
 233 559 233 559 313 559 c 0,7,8
 359 559 359 559 407 537 c 1,9,10
 306 501 306 501 246 395.5 c 128,-1,11
 186 290 186 290 186 189 c 0,12,13
 186 142 186 142 203.5 112.5 c 128,-1,14
 221 83 221 83 253 83 c 0,15,16
 300 83 300 83 342.5 138 c 128,-1,17
 385 193 385 193 410.5 279 c 128,-1,18
 436 365 436 365 436 442.5 c 128,-1,19
 436 520 436 520 430 568 c 1,20,21
 460 570 460 570 480.5 570 c 128,-1,22
 501 570 501 570 505 555 c 128,-1,23
 509 540 509 540 509 483 c 1,24,25
 570 577 570 577 703 577 c 0,26,27
 781 577 781 577 822 537 c 128,-1,28
 863 497 863 497 863 432 c 0,29,30
 863 338 863 338 797.5 292 c 128,-1,31
 732 246 732 246 637 246 c 0,32,33
 589 246 589 246 543 257 c 1,34,35
 542 247 542 247 542 226 c 0,36,37
 542 143 542 143 573 101 c 128,-1,38
 604 59 604 59 647 59 c 128,-1,39
 690 59 690 59 729 85 c 128,-1,40
 768 111 768 111 797 157 c 1,41,42
 833 149 833 149 833 120 c 1,43,44
 745 -15 745 -15 606 -15 c 0,45,46
 526 -15 526 -15 473 29.5 c 128,-1,47
 420 74 420 74 405 163 c 1,48,0
 372 83 372 83 308 35.5 c 128,-1,1
679 515 m 0,49,50
 628 515 628 515 593 452 c 128,-1,51
 558 389 558 389 547 299 c 1,52,-1
 562 299 l 2,53,54
 649 299 649 299 690.5 344 c 128,-1,55
 732 389 732 389 732 452 c 0,56,57
 732 478 732 478 718.5 496.5 c 128,-1,58
 705 515 705 515 679 515 c 0,49,50
EndSplineSet
EndChar

StartChar: ccedilla
Encoding: 231 231 166
Width: 545
GlyphClass: 2
Flags: W
LayerCount: 2
Fore
SplineSet
193 226 m 0,0,1
 193 59 193 59 291 59 c 0,2,3
 329 59 329 59 368 85 c 128,-1,4
 407 111 407 111 436 157 c 1,5,6
 472 149 472 149 472 120 c 1,7,8
 430 47 430 47 369 16 c 128,-1,9
 308 -15 308 -15 247 -15 c 0,10,11
 165 -15 165 -15 107.5 45.5 c 128,-1,12
 50 106 50 106 50 221 c 0,13,14
 50 368 50 368 131 472.5 c 128,-1,15
 212 577 212 577 350 577 c 0,16,17
 427 577 427 577 466 539.5 c 128,-1,18
 505 502 505 502 505 450.5 c 128,-1,19
 505 399 505 399 473.5 361 c 128,-1,20
 442 323 442 323 393 323 c 0,21,22
 369 323 369 323 345 333 c 1,23,24
 360 350 360 350 373 386.5 c 128,-1,25
 386 423 386 423 386 454 c 0,26,27
 386 515 386 515 333 515 c 0,28,29
 271 515 271 515 232 424 c 128,-1,30
 193 333 193 333 193 226 c 0,0,1
277 -74.5 m 128,-1,32
 309 -105 309 -105 309 -157 c 128,-1,33
 309 -209 309 -209 271.5 -257 c 128,-1,34
 234 -305 234 -305 171 -323 c 1,35,36
 117 -303 117 -303 117 -238 c 1,37,38
 165 -229 165 -229 192.5 -203.5 c 128,-1,39
 220 -178 220 -178 220 -146 c 0,40,41
 220 -98 220 -98 161 -77 c 1,42,43
 162 -58 162 -58 177 -40 c 1,44,31
 245 -44 245 -44 277 -74.5 c 128,-1,32
EndSplineSet
EndChar

StartChar: egrave
Encoding: 232 232 167
Width: 560
GlyphClass: 2
Flags: W
LayerCount: 2
Fore
SplineSet
291 246 m 0,0,1
 243 246 243 246 197 257 c 1,2,3
 196 247 196 247 196 226 c 0,4,5
 196 143 196 143 227 101 c 128,-1,6
 258 59 258 59 301 59 c 128,-1,7
 344 59 344 59 383 85 c 128,-1,8
 422 111 422 111 451 157 c 1,9,10
 487 149 487 149 487 120 c 1,11,12
 399 -15 399 -15 260 -15 c 0,13,14
 176 -15 176 -15 113 49.5 c 128,-1,15
 50 114 50 114 50 229 c 0,16,17
 50 315 50 315 83 392.5 c 128,-1,18
 116 470 116 470 188 523.5 c 128,-1,19
 260 577 260 577 347.5 577 c 128,-1,20
 435 577 435 577 476 537 c 128,-1,21
 517 497 517 497 517 432 c 0,22,23
 517 338 517 338 451.5 292 c 128,-1,24
 386 246 386 246 291 246 c 0,0,1
333 515 m 0,25,26
 282 515 282 515 247 452 c 128,-1,27
 212 389 212 389 201 299 c 1,28,-1
 216 299 l 2,29,30
 303 299 303 299 344.5 344 c 128,-1,31
 386 389 386 389 386 452 c 0,32,33
 386 478 386 478 372.5 496.5 c 128,-1,34
 359 515 359 515 333 515 c 0,25,26
464 652 m 1,35,36
 462 641 462 641 450 631.5 c 128,-1,37
 438 622 438 622 422 619 c 1,38,39
 384 662 384 662 323.5 702.5 c 128,-1,40
 263 743 263 743 200 760 c 1,41,42
 203 829 203 829 263 867 c 1,43,44
 319 844 319 844 378 778.5 c 128,-1,45
 437 713 437 713 464 652 c 1,35,36
EndSplineSet
EndChar

StartChar: eacute
Encoding: 233 233 168
Width: 560
GlyphClass: 2
Flags: W
LayerCount: 2
Fore
SplineSet
291 246 m 0,0,1
 243 246 243 246 197 257 c 1,2,3
 196 247 196 247 196 226 c 0,4,5
 196 143 196 143 227 101 c 128,-1,6
 258 59 258 59 301 59 c 128,-1,7
 344 59 344 59 383 85 c 128,-1,8
 422 111 422 111 451 157 c 1,9,10
 487 149 487 149 487 120 c 1,11,12
 399 -15 399 -15 260 -15 c 0,13,14
 176 -15 176 -15 113 49.5 c 128,-1,15
 50 114 50 114 50 229 c 0,16,17
 50 315 50 315 83 392.5 c 128,-1,18
 116 470 116 470 188 523.5 c 128,-1,19
 260 577 260 577 347.5 577 c 128,-1,20
 435 577 435 577 476 537 c 128,-1,21
 517 497 517 497 517 432 c 0,22,23
 517 338 517 338 451.5 292 c 128,-1,24
 386 246 386 246 291 246 c 0,0,1
333 515 m 0,25,26
 282 515 282 515 247 452 c 128,-1,27
 212 389 212 389 201 299 c 1,28,-1
 216 299 l 2,29,30
 303 299 303 299 344.5 344 c 128,-1,31
 386 389 386 389 386 452 c 0,32,33
 386 478 386 478 372.5 496.5 c 128,-1,34
 359 515 359 515 333 515 c 0,25,26
239 652 m 1,35,36
 266 713 266 713 325 778.5 c 128,-1,37
 384 844 384 844 440 867 c 1,38,39
 500 829 500 829 503 760 c 1,40,41
 440 743 440 743 379.5 702.5 c 128,-1,42
 319 662 319 662 281 619 c 1,43,44
 265 622 265 622 253 631.5 c 128,-1,45
 241 641 241 641 239 652 c 1,35,36
EndSplineSet
EndChar

StartChar: ecircumflex
Encoding: 234 234 169
Width: 560
GlyphClass: 2
Flags: W
LayerCount: 2
Fore
SplineSet
291 246 m 0,0,1
 243 246 243 246 197 257 c 1,2,3
 196 247 196 247 196 226 c 0,4,5
 196 143 196 143 227 101 c 128,-1,6
 258 59 258 59 301 59 c 128,-1,7
 344 59 344 59 383 85 c 128,-1,8
 422 111 422 111 451 157 c 1,9,10
 487 149 487 149 487 120 c 1,11,12
 399 -15 399 -15 260 -15 c 0,13,14
 176 -15 176 -15 113 49.5 c 128,-1,15
 50 114 50 114 50 229 c 0,16,17
 50 315 50 315 83 392.5 c 128,-1,18
 116 470 116 470 188 523.5 c 128,-1,19
 260 577 260 577 347.5 577 c 128,-1,20
 435 577 435 577 476 537 c 128,-1,21
 517 497 517 497 517 432 c 0,22,23
 517 338 517 338 451.5 292 c 128,-1,24
 386 246 386 246 291 246 c 0,0,1
333 515 m 0,25,26
 282 515 282 515 247 452 c 128,-1,27
 212 389 212 389 201 299 c 1,28,-1
 216 299 l 2,29,30
 303 299 303 299 344.5 344 c 128,-1,31
 386 389 386 389 386 452 c 0,32,33
 386 478 386 478 372.5 496.5 c 128,-1,34
 359 515 359 515 333 515 c 0,25,26
524 648 m 1,35,36
 487 637 487 637 447.5 637 c 128,-1,37
 408 637 408 637 391 658.5 c 128,-1,38
 374 680 374 680 357 747 c 1,39,40
 305 667 305 667 223 620 c 1,41,42
 173 654 173 654 172 709 c 1,43,44
 254 760 254 760 295 801 c 2,45,-1
 318 824 l 2,46,47
 324 830 324 830 340 849.5 c 128,-1,48
 356 869 356 869 360 873 c 1,49,50
 396 873 396 873 415 853 c 128,-1,51
 434 833 434 833 441 805 c 128,-1,52
 448 777 448 777 469 731 c 128,-1,53
 490 685 490 685 524 648 c 1,35,36
EndSplineSet
EndChar

StartChar: edieresis
Encoding: 235 235 170
Width: 560
GlyphClass: 2
Flags: W
LayerCount: 2
Fore
SplineSet
291 246 m 0,0,1
 243 246 243 246 197 257 c 1,2,3
 196 247 196 247 196 226 c 0,4,5
 196 143 196 143 227 101 c 128,-1,6
 258 59 258 59 301 59 c 128,-1,7
 344 59 344 59 383 85 c 128,-1,8
 422 111 422 111 451 157 c 1,9,10
 487 149 487 149 487 120 c 1,11,12
 399 -15 399 -15 260 -15 c 0,13,14
 176 -15 176 -15 113 49.5 c 128,-1,15
 50 114 50 114 50 229 c 0,16,17
 50 315 50 315 83 392.5 c 128,-1,18
 116 470 116 470 188 523.5 c 128,-1,19
 260 577 260 577 347.5 577 c 128,-1,20
 435 577 435 577 476 537 c 128,-1,21
 517 497 517 497 517 432 c 0,22,23
 517 338 517 338 451.5 292 c 128,-1,24
 386 246 386 246 291 246 c 0,0,1
333 515 m 0,25,26
 282 515 282 515 247 452 c 128,-1,27
 212 389 212 389 201 299 c 1,28,-1
 216 299 l 2,29,30
 303 299 303 299 344.5 344 c 128,-1,31
 386 389 386 389 386 452 c 0,32,33
 386 478 386 478 372.5 496.5 c 128,-1,34
 359 515 359 515 333 515 c 0,25,26
246 667 m 0,35,36
 143 667 143 667 143 739 c 0,37,38
 143 765 143 765 158 810 c 1,39,40
 186 814 186 814 207 814 c 0,41,42
 310 814 310 814 310 742 c 0,43,44
 310 716 310 716 295 671 c 1,45,46
 267 667 267 667 246 667 c 0,35,36
456 667 m 0,47,48
 353 667 353 667 353 739 c 0,49,50
 353 765 353 765 368 810 c 1,51,52
 396 814 396 814 417 814 c 0,53,54
 520 814 520 814 520 742 c 0,55,56
 520 716 520 716 505 671 c 1,57,58
 477 667 477 667 456 667 c 0,47,48
EndSplineSet
EndChar

StartChar: igrave
Encoding: 236 236 171
Width: 321
GlyphClass: 2
Flags: W
LayerCount: 2
Fore
SplineSet
87 164 m 0,0,1
 87 206 87 206 103 316 c 128,-1,2
 119 426 119 426 119 487 c 128,-1,3
 119 548 119 548 113 581 c 1,4,5
 135 583 135 583 154 583 c 0,6,7
 212 583 212 583 234.5 563.5 c 128,-1,8
 257 544 257 544 257 497 c 0,9,10
 257 482 257 482 232.5 339.5 c 128,-1,11
 208 197 208 197 207.5 104.5 c 128,-1,12
 207 12 207 12 219 -15 c 1,13,14
 141 5 141 5 114 45.5 c 128,-1,15
 87 86 87 86 87 164 c 0,0,1
329 652 m 1,16,17
 327 641 327 641 315 631.5 c 128,-1,18
 303 622 303 622 287 619 c 1,19,20
 249 662 249 662 188.5 702.5 c 128,-1,21
 128 743 128 743 65 760 c 1,22,23
 68 829 68 829 128 867 c 1,24,25
 184 844 184 844 243 778.5 c 128,-1,26
 302 713 302 713 329 652 c 1,16,17
EndSplineSet
EndChar

StartChar: iacute
Encoding: 237 237 172
Width: 321
GlyphClass: 2
Flags: W
LayerCount: 2
Fore
SplineSet
87 164 m 0,0,1
 87 206 87 206 103 316 c 128,-1,2
 119 426 119 426 119 487 c 128,-1,3
 119 548 119 548 113 581 c 1,4,5
 135 583 135 583 154 583 c 0,6,7
 212 583 212 583 234.5 563.5 c 128,-1,8
 257 544 257 544 257 497 c 0,9,10
 257 482 257 482 232.5 339.5 c 128,-1,11
 208 197 208 197 207.5 104.5 c 128,-1,12
 207 12 207 12 219 -15 c 1,13,14
 141 5 141 5 114 45.5 c 128,-1,15
 87 86 87 86 87 164 c 0,0,1
74 652 m 1,16,17
 101 713 101 713 160 778.5 c 128,-1,18
 219 844 219 844 275 867 c 1,19,20
 335 829 335 829 338 760 c 1,21,22
 275 743 275 743 214.5 702.5 c 128,-1,23
 154 662 154 662 116 619 c 1,24,25
 100 622 100 622 88 631.5 c 128,-1,26
 76 641 76 641 74 652 c 1,16,17
EndSplineSet
EndChar

StartChar: icircumflex
Encoding: 238 238 173
Width: 321
GlyphClass: 2
Flags: W
LayerCount: 2
Fore
SplineSet
87 164 m 0,0,1
 87 206 87 206 103 316 c 128,-1,2
 119 426 119 426 119 487 c 128,-1,3
 119 548 119 548 113 581 c 1,4,5
 135 583 135 583 154 583 c 0,6,7
 212 583 212 583 234.5 563.5 c 128,-1,8
 257 544 257 544 257 497 c 0,9,10
 257 482 257 482 232.5 339.5 c 128,-1,11
 208 197 208 197 207.5 104.5 c 128,-1,12
 207 12 207 12 219 -15 c 1,13,14
 141 5 141 5 114 45.5 c 128,-1,15
 87 86 87 86 87 164 c 0,0,1
376 648 m 1,16,17
 339 637 339 637 299.5 637 c 128,-1,18
 260 637 260 637 243 658.5 c 128,-1,19
 226 680 226 680 209 747 c 1,20,21
 157 667 157 667 75 620 c 1,22,23
 25 654 25 654 24 709 c 1,24,25
 106 760 106 760 147 801 c 2,26,-1
 170 824 l 2,27,28
 176 830 176 830 192 849.5 c 128,-1,29
 208 869 208 869 212 873 c 1,30,31
 248 873 248 873 267 853 c 128,-1,32
 286 833 286 833 293 805 c 128,-1,33
 300 777 300 777 321 731 c 128,-1,34
 342 685 342 685 376 648 c 1,16,17
EndSplineSet
EndChar

StartChar: idieresis
Encoding: 239 239 174
Width: 321
GlyphClass: 2
Flags: W
LayerCount: 2
Fore
SplineSet
87 164 m 0,0,1
 87 206 87 206 103 316 c 128,-1,2
 119 426 119 426 119 487 c 128,-1,3
 119 548 119 548 113 581 c 1,4,5
 135 583 135 583 154 583 c 0,6,7
 212 583 212 583 234.5 563.5 c 128,-1,8
 257 544 257 544 257 497 c 0,9,10
 257 482 257 482 232.5 339.5 c 128,-1,11
 208 197 208 197 207.5 104.5 c 128,-1,12
 207 12 207 12 219 -15 c 1,13,14
 141 5 141 5 114 45.5 c 128,-1,15
 87 86 87 86 87 164 c 0,0,1
104 667 m 0,16,17
 1 667 1 667 1 739 c 0,18,19
 1 765 1 765 16 810 c 1,20,21
 44 814 44 814 65 814 c 0,22,23
 168 814 168 814 168 742 c 0,24,25
 168 716 168 716 153 671 c 1,26,27
 125 667 125 667 104 667 c 0,16,17
314 667 m 0,28,29
 211 667 211 667 211 739 c 0,30,31
 211 765 211 765 226 810 c 1,32,33
 254 814 254 814 275 814 c 0,34,35
 378 814 378 814 378 742 c 0,36,37
 378 716 378 716 363 671 c 1,38,39
 335 667 335 667 314 667 c 0,28,29
EndSplineSet
EndChar

StartChar: eth
Encoding: 240 240 175
Width: 617
GlyphClass: 2
Flags: W
LayerCount: 2
Fore
SplineSet
158 784 m 0,0,1
 158 830 158 830 208.5 864.5 c 128,-1,2
 259 899 259 899 322 899 c 0,3,4
 457 899 457 899 525 765 c 1,5,6
 579 793 579 793 609.5 793 c 128,-1,7
 640 793 640 793 654.5 776.5 c 128,-1,8
 669 760 669 760 683 727 c 1,9,10
 628 708 628 708 557 677 c 1,11,12
 578 595 578 595 578 496.5 c 128,-1,13
 578 398 578 398 559 309.5 c 128,-1,14
 540 221 540 221 503 147.5 c 128,-1,15
 466 74 466 74 404.5 29.5 c 128,-1,16
 343 -15 343 -15 261 -15 c 128,-1,17
 179 -15 179 -15 114.5 52.5 c 128,-1,18
 50 120 50 120 50 252.5 c 128,-1,19
 50 385 50 385 128 463 c 128,-1,20
 206 541 206 541 315 541 c 0,21,22
 391 541 391 541 458 501 c 1,23,24
 456 568 456 568 448 620 c 1,25,26
 404 599 404 599 376 599 c 128,-1,27
 348 599 348 599 332.5 616 c 128,-1,28
 317 633 317 633 305 666 c 1,29,30
 373 690 373 690 427 714 c 1,31,32
 392 825 392 825 332 825 c 0,33,34
 291 825 291 825 267.5 795 c 128,-1,35
 244 765 244 765 244 709 c 1,36,37
 208 709 208 709 183 731.5 c 128,-1,38
 158 754 158 754 158 784 c 0,0,1
217 104.5 m 128,-1,40
 240 57 240 57 283.5 57 c 128,-1,41
 327 57 327 57 359 89 c 128,-1,42
 391 121 391 121 411 176 c 0,43,44
 451 284 451 284 457 438 c 1,45,46
 408 474 408 474 360 474 c 0,47,48
 290 474 290 474 242 405.5 c 128,-1,49
 194 337 194 337 194 228 c 0,50,39
 194 152 194 152 217 104.5 c 128,-1,40
EndSplineSet
EndChar

StartChar: ntilde
Encoding: 241 241 176
Width: 626
GlyphClass: 2
Flags: W
LayerCount: 2
Fore
SplineSet
532.5 540.5 m 128,-1,1
 558 504 558 504 558 441.5 c 128,-1,2
 558 379 558 379 538.5 266 c 128,-1,3
 519 153 519 153 519 101.5 c 128,-1,4
 519 50 519 50 532 26.5 c 128,-1,5
 545 3 545 3 576 -14 c 1,6,7
 563 -15 563 -15 539 -15 c 0,8,9
 455 -15 455 -15 419.5 11 c 128,-1,10
 384 37 384 37 384 102 c 0,11,12
 384 139 384 139 404 246.5 c 128,-1,13
 424 354 424 354 424 407 c 0,14,15
 424 473 424 473 384 473 c 0,16,17
 361 473 361 473 332 446 c 128,-1,18
 303 419 303 419 276 372.5 c 128,-1,19
 249 326 249 326 231 253 c 128,-1,20
 213 180 213 180 213 107.5 c 128,-1,21
 213 35 213 35 219 0 c 1,22,23
 187 -2 187 -2 177 -2 c 0,24,25
 120 -2 120 -2 95 18 c 128,-1,26
 70 38 70 38 70 84 c 0,27,28
 70 104 70 104 91 238 c 128,-1,29
 112 372 112 372 112 451.5 c 128,-1,30
 112 531 112 531 95 598 c 1,31,32
 168 575 168 575 197 532.5 c 128,-1,33
 226 490 226 490 226 435.5 c 128,-1,34
 226 381 226 381 214 309 c 1,35,36
 247 421 247 421 318 499 c 128,-1,37
 389 577 389 577 448 577 c 128,-1,0
 507 577 507 577 532.5 540.5 c 128,-1,1
511.5 695 m 128,-1,39
 483 665 483 665 450 665 c 128,-1,40
 417 665 417 665 369.5 679 c 128,-1,41
 322 693 322 693 303 693 c 0,42,43
 255 693 255 693 228 650 c 1,44,45
 205 654 205 654 201 674 c 1,46,47
 209 743 209 743 237.5 773 c 128,-1,48
 266 803 266 803 299 803 c 128,-1,49
 332 803 332 803 379.5 789 c 128,-1,50
 427 775 427 775 446 775 c 0,51,52
 494 775 494 775 521 818 c 1,53,54
 544 814 544 814 548 794 c 1,55,38
 540 725 540 725 511.5 695 c 128,-1,39
EndSplineSet
EndChar

StartChar: ograve
Encoding: 242 242 177
Width: 617
GlyphClass: 2
Flags: W
LayerCount: 2
Fore
SplineSet
361 501 m 0,0,1
 296 501 296 501 245 413.5 c 128,-1,2
 194 326 194 326 194 239 c 0,3,4
 194 57 194 57 288 57 c 0,5,6
 355 57 355 57 397 144.5 c 128,-1,7
 439 232 439 232 439 341 c 0,8,9
 439 501 439 501 361 501 c 0,0,1
525 515 m 128,-1,11
 567 456 567 456 567 357 c 0,12,13
 567 246 567 246 522 153 c 0,14,15
 472 48 472 48 380 8 c 0,16,17
 328 -15 328 -15 266 -15 c 0,18,19
 179 -15 179 -15 114.5 52.5 c 128,-1,20
 50 120 50 120 50 246.5 c 128,-1,21
 50 373 50 373 112 469.5 c 128,-1,22
 174 566 174 566 276 591 c 1,23,24
 287 591 287 591 296.5 584.5 c 128,-1,25
 306 578 306 578 306 571 c 1,26,27
 205 501 205 501 185 376 c 1,28,29
 206 432 206 432 236.5 473 c 128,-1,30
 267 514 267 514 300 535 c 0,31,32
 363 574 363 574 423 574 c 128,-1,10
 483 574 483 574 525 515 c 128,-1,11
474 652 m 1,33,34
 472 641 472 641 460 631.5 c 128,-1,35
 448 622 448 622 432 619 c 1,36,37
 394 662 394 662 333.5 702.5 c 128,-1,38
 273 743 273 743 210 760 c 1,39,40
 213 829 213 829 273 867 c 1,41,42
 329 844 329 844 388 778.5 c 128,-1,43
 447 713 447 713 474 652 c 1,33,34
EndSplineSet
EndChar

